<svg width="1413" height="1507" viewBox="0 0 1413 1507" fill="none" xmlns="http://www.w3.org/2000/svg">
<path d="M155.847 384.403L156.299 383.962V383.33C156.299 366.244 169.898 352.124 195.156 340.619C220.325 329.153 256.52 320.559 300.467 314.28C388.329 301.726 506.722 298.486 628.73 299.756C750.72 301.026 876.255 306.802 978.375 312.261C1009.43 313.922 1038.33 315.553 1064.31 317.02C1123.21 320.346 1167.11 322.824 1187.07 322.866C1317.68 420.871 1382.98 538.955 1403.52 696.147C1424.07 853.478 1399.8 1049.99 1351.11 1304.79C1221.2 1377.91 980.371 1427.66 734.773 1445.84C489.125 1464.02 239.154 1450.59 91.1542 1397.64C15.9055 1239.3 -8.28245 1025.53 6.54805 831.485C13.9708 734.366 31.1638 642.249 56.5864 564.563C82.0184 486.848 115.644 423.705 155.847 384.403Z" fill="url(#paint0_linear)" stroke="url(#paint1_linear)" stroke-width="3"/>
<path d="M20.967 1060.97C29.7606 1111.39 45.4892 1160.09 51.9905 1210.92C58.6816 1263.23 58.0874 1318.22 71.9341 1368.99" stroke="black" stroke-linecap="round" stroke-linejoin="round"/>
<path d="M54.2063 1072.05C64.0669 1145.46 85.2191 1216.68 97.5406 1289.71C102.993 1322.03 102.404 1361.7 118.469 1391.15" stroke="black" stroke-linecap="round" stroke-linejoin="round"/>
<path d="M98.5256 1089.78C116.519 1145.26 118.139 1203.89 130.534 1260.65C138.931 1299.11 147.279 1337.43 153.186 1376.38C156.567 1398.67 154.44 1385.92 156.141 1399.52C156.303 1400.82 156.141 1396.9 156.141 1395.58" stroke="black" stroke-linecap="round" stroke-linejoin="round"/>
<path d="M140.629 1096.43C148.276 1122.77 153.163 1149.28 159.341 1175.96C168.922 1217.32 183.696 1256.94 191.596 1298.82C197.443 1329.82 199.206 1363.06 209.323 1393.12C211.778 1400.41 214.166 1407.17 215.479 1414.79C216.316 1419.64 215.971 1404.94 215.971 1400.01" stroke="black" stroke-linecap="round" stroke-linejoin="round"/>
<path d="M182.732 1116.37C186.076 1158.18 199.208 1199.55 208.092 1240.46C215.89 1276.38 225.348 1311.9 231.975 1348.06C236.53 1372.91 237.344 1399.6 244.286 1423.9C244.964 1426.27 244.779 1418.98 244.779 1416.51C244.779 1395.5 244.779 1374.49 244.779 1353.48" stroke="black" stroke-linecap="round" stroke-linejoin="round"/>
<path d="M209.323 1131.88C211.309 1145.58 215.958 1157.19 221.265 1170.05C233.081 1198.66 243.796 1226.34 249.826 1256.84C253.659 1276.22 256.075 1295.86 260.783 1315.07C264.645 1330.83 271.444 1345.74 274.817 1361.6C279.649 1384.32 280.396 1408.29 282.45 1431.41C284.824 1458.11 277.858 1377.99 275.802 1351.26" stroke="black" stroke-linecap="round" stroke-linejoin="round"/>
<path d="M246.995 1149.61C256.423 1179.66 268.055 1209.12 276.048 1239.6C283.435 1267.78 285.698 1296.97 290.329 1325.66C295.03 1354.78 305.274 1382.39 311.996 1411.09C313.094 1415.78 324.472 1444.58 326.769 1437.69" stroke="black" stroke-linecap="round" stroke-linejoin="round"/>
<path d="M304.61 1231.6C307.002 1264.75 319.541 1294.97 325.292 1327.38C329.135 1349.04 331.457 1371.3 334.525 1393.12C336.226 1405.21 338.397 1417.22 340.065 1429.31C342.135 1444.32 340.512 1416.14 340.065 1413.31" stroke="black" stroke-linecap="round" stroke-linejoin="round"/>
<path d="M346.713 1300.3C347.662 1344.89 358.23 1387.22 362.225 1431.16C363.392 1444.01 372.543 1457.25 355.577 1448.76" stroke="black" stroke-linecap="round" stroke-linejoin="round"/>
<path d="M373.304 1340.18C374.439 1364.58 377.826 1389.47 384.261 1413.06C386.131 1419.92 389.002 1426.47 394.479 1431.16C398.893 1434.94 399.896 1438.89 399.896 1444.33" stroke="black" stroke-linecap="round" stroke-linejoin="round"/>
<path d="M406.544 1375.64C412.598 1395.69 413.636 1417.6 415.408 1438.42C415.939 1444.67 416.581 1449.98 420.701 1454.92C425.348 1460.5 413.372 1440.22 413.192 1439.9" stroke="black" stroke-linecap="round" stroke-linejoin="round"/>
<path d="M433.135 1413.31C438.783 1429.36 441.442 1446.4 448.155 1462.06C453.814 1475.27 445.219 1462.06 441.999 1457.63" stroke="black" stroke-linecap="round" stroke-linejoin="round"/>
<path d="M45.3427 739.658C45.3427 713.067 45.3427 686.475 45.3427 659.884C45.3427 649.637 45.1061 635.809 45.9582 625.413C47.1238 611.192 52.3374 602.045 56.4224 588.973" stroke="black" stroke-linecap="round" stroke-linejoin="round"/>
<path d="M89.6616 730.794C82.2779 691.27 83.0137 651.177 83.0137 611.133" stroke="black" stroke-linecap="round" stroke-linejoin="round"/>
<path d="M114.037 735.226C114.037 707.896 114.037 680.566 114.037 653.236" stroke="black" stroke-linecap="round" stroke-linejoin="round"/>
<path d="M63.0703 733.01C63.0703 701.248 63.0703 669.486 63.0703 637.724" stroke="black" stroke-linecap="round" stroke-linejoin="round"/>
<path d="M1377.13 1021.08C1362.07 1089.96 1353.7 1161.98 1348.82 1232.34C1347.1 1257.16 1346.31 1282.07 1346.11 1306.94C1346.04 1315.93 1346.11 1311.82 1346.11 1306.94" stroke="black" stroke-linecap="round" stroke-linejoin="round"/>
<path d="M1346.11 1052.11C1346.11 1124.21 1346.11 1196.31 1346.11 1268.41C1346.11 1284.54 1346.11 1300.67 1346.11 1316.79C1346.11 1319.84 1346.83 1328.51 1345.25 1325.9C1337.09 1312.49 1334.53 1288.03 1330.6 1273.7" stroke="black" stroke-linecap="round" stroke-linejoin="round"/>
<path d="M1317.3 1089.78C1321.38 1161.35 1323.95 1304.73 1323.95 1304.73" stroke="black" stroke-linecap="round" stroke-linejoin="round"/>
<path d="M1292.93 1089.78C1297.22 1154.65 1297.36 1219.29 1297.36 1284.29C1297.36 1296.68 1297.36 1309.08 1297.36 1321.47C1297.36 1325.04 1299.22 1335.15 1297.24 1332.18C1293.46 1326.52 1295.58 1311.68 1295.14 1304.73" stroke="black" stroke-linecap="round" stroke-linejoin="round"/>
<path d="M1266.34 1111.94C1265.61 1173.11 1252.69 1233.55 1253.53 1294.63C1253.7 1307.1 1255.4 1319.25 1256.98 1331.57C1257.23 1333.55 1257.47 1338.38 1257.47 1333.54" stroke="black" stroke-linecap="round" stroke-linejoin="round"/>
<path d="M1235.31 1145.18C1235.31 1191.35 1237.18 1237.94 1234.33 1284.05C1233.14 1303.19 1231.02 1322.32 1229.16 1341.41C1227.97 1353.59 1226.5 1331.67 1226.45 1331.32" stroke="black" stroke-linecap="round" stroke-linejoin="round"/>
<path d="M1206.5 1171.77C1197.18 1238.11 1206.77 1313.25 1195.42 1375.64" stroke="black" stroke-linecap="round" stroke-linejoin="round"/>
<path d="M1164.4 1205.01C1169.2 1244.63 1179.19 1283.38 1179.91 1323.44C1180.11 1334.51 1180.57 1345.41 1181.64 1356.43C1182.09 1361.12 1180.46 1347.08 1179.91 1342.4" stroke="black" stroke-linecap="round" stroke-linejoin="round"/>
<path d="M1151.11 1247.11C1151.11 1281.75 1153.95 1317.51 1150.12 1352C1149.08 1361.41 1148.18 1372.29 1144.95 1381.3C1143.51 1385.32 1135.95 1373.82 1135.59 1373.42" stroke="black" stroke-linecap="round" stroke-linejoin="round"/>
<path d="M1117.87 1289.22C1116.43 1316.91 1109.47 1343.85 1107.28 1371.45C1106.67 1379.08 1107.96 1386.59 1104.57 1393.37" stroke="black" stroke-linecap="round" stroke-linejoin="round"/>
<path d="M1095.71 1326.89C1092.68 1350.44 1090.36 1373.91 1086.1 1397.31C1081.98 1420 1081.56 1396.25 1080.2 1386.72" stroke="black" stroke-linecap="round" stroke-linejoin="round"/>
<path d="M1066.9 1357.91C1064.86 1371.17 1064.68 1384.41 1064.68 1397.8" stroke="black" stroke-linecap="round" stroke-linejoin="round"/>
<path d="M858.599 172.373C886.804 181.051 919.31 178.611 948.469 180.744C971.87 182.457 995.414 183.938 1018.64 187.392C1039.15 190.443 1054.4 197.536 1073.55 203.396" stroke="black" stroke-linecap="round" stroke-linejoin="round"/>
<path d="M871.895 145.781C902.509 147.094 932.97 153.412 963.488 156.369C980.804 158.047 994.892 160.694 1011.5 156.861" stroke="black" stroke-linecap="round" stroke-linejoin="round"/>
<path d="M1326.17 611.133C1326.17 635.508 1326.17 659.884 1326.17 684.259" stroke="black" stroke-linecap="round" stroke-linejoin="round"/>
<path d="M1326.17 493.687C1326.17 501.113 1324.87 510.115 1327.15 517.324C1328.94 522.977 1335.71 528.328 1338.35 534.067C1347.32 553.552 1355.51 575.844 1362.61 596.113C1378.51 641.559 1374.32 692.931 1386 739.658" stroke="black" stroke-linecap="round" stroke-linejoin="round"/>
<path d="M1306.22 529.142C1330.99 598.488 1357.19 744.09 1357.19 744.09" stroke="black" stroke-linecap="round" stroke-linejoin="round"/>
<path d="M1330.6 699.771C1331.38 725.621 1333.74 751.496 1335.03 777.33" stroke="black" stroke-linecap="round" stroke-linejoin="round"/>
<mask id="path-36-inside-1" fill="white">
<path d="M173.34 972.629C161.946 1037.8 225.84 1173.13 264.627 1147.13C286.514 1147.13 274.608 1063.03 274.608 1008.63C274.608 964.325 264.627 916.151 234.978 910.129C201.84 903.399 185.84 901.129 173.34 972.629Z"/>
</mask>
<path d="M173.34 972.629C161.946 1037.8 225.84 1173.13 264.627 1147.13C286.514 1147.13 274.608 1063.03 274.608 1008.63C274.608 964.325 264.627 916.151 234.978 910.129C201.84 903.399 185.84 901.129 173.34 972.629Z" fill="#FFDDDD"/>
<path d="M173.34 972.629L170.385 972.113L173.34 972.629ZM264.627 1147.13L262.957 1144.64C263.451 1144.31 264.032 1144.13 264.627 1144.13V1147.13ZM234.978 910.129L235.575 907.189V907.189L234.978 910.129ZM176.296 973.146C173.545 988.878 175.315 1009.11 180.265 1030.37C185.203 1051.57 193.252 1073.57 202.848 1092.73C212.469 1111.93 223.532 1128.07 234.395 1137.76C239.825 1142.6 245.031 1145.68 249.819 1146.86C254.495 1148.01 258.858 1147.38 262.957 1144.64L266.297 1149.62C260.699 1153.37 254.581 1154.21 248.384 1152.68C242.298 1151.18 236.237 1147.44 230.401 1142.24C218.731 1131.83 207.261 1114.93 197.484 1095.41C187.682 1075.84 179.47 1053.41 174.421 1031.73C169.383 1010.09 167.439 988.967 170.385 972.113L176.296 973.146ZM264.627 1144.13C266.214 1144.13 267.593 1143.44 268.923 1141.63C270.334 1139.71 271.549 1136.68 272.493 1132.48C274.373 1124.11 274.945 1112.19 274.825 1098.3C274.705 1084.47 273.905 1068.92 273.13 1053.37C272.356 1037.85 271.608 1022.32 271.608 1008.63H277.608C277.608 1022.14 278.347 1037.52 279.122 1053.07C279.896 1068.58 280.704 1084.26 280.825 1098.25C280.945 1112.19 280.39 1124.7 278.347 1133.8C277.329 1138.33 275.883 1142.29 273.757 1145.19C271.548 1148.19 268.511 1150.13 264.627 1150.13V1144.13ZM271.608 1008.63C271.608 986.648 269.126 963.89 263.069 945.985C256.965 927.936 247.578 915.75 234.381 913.069L235.575 907.189C252.027 910.531 262.455 925.443 268.753 944.062C275.099 962.825 277.608 986.306 277.608 1008.63H271.608ZM234.381 913.069C226.032 911.374 219.115 910.041 213.105 910.001C207.208 909.962 202.432 911.176 198.259 914.413C194.009 917.71 190.058 923.357 186.382 932.838C182.71 942.307 179.407 955.351 176.296 973.146L170.385 972.113C173.524 954.158 176.908 940.673 180.788 930.669C184.662 920.676 189.126 913.904 194.581 909.673C200.113 905.381 206.332 903.956 213.145 904.001C219.845 904.045 227.355 905.52 235.575 907.189L234.381 913.069Z" fill="url(#paint2_linear)" mask="url(#path-36-inside-1)"/>
<path d="M262.784 1020.71C262.784 1027.78 261.546 1035.3 262.283 1042.32C263.034 1049.47 264.073 1056.71 264.073 1063.93C264.073 1071.28 264.717 1078.56 264.717 1085.85C264.717 1091.75 263.429 1097.03 263.429 1102.84" stroke="black" stroke-linecap="round" stroke-linejoin="round"/>
<path d="M262.784 1116.06C254.6 1114.35 248.627 1101.12 246.82 1090.05C244.999 1078.88 242.812 1067.15 242.812 1055.64" stroke="black" stroke-linecap="round" stroke-linejoin="round"/>
<path d="M218.328 1055.64C211.539 1046.49 211.524 1031.38 209.953 1018.72C209.346 1013.83 207.953 1005.28 209.953 1000.89" stroke="black" stroke-linecap="round" stroke-linejoin="round"/>
<path d="M244.1 955.574C239.077 960.021 234.624 963.902 230.856 970.259C228.576 974.108 228.751 978.843 227.349 982.951" stroke="black" stroke-linecap="round" stroke-linejoin="round"/>
<path d="M1246.51 863.899L1246.46 864.079L1246.44 864.267C1216.51 1119.49 1140.9 1273.84 1038.52 1367.21C936.158 1460.56 806.726 1493.25 668.451 1504.5C468.993 1497.98 279.912 1304.83 205.392 880.154C153.252 583.026 208.163 386.012 318.332 268.447C428.517 150.865 594.414 112.285 765.26 132.986L765.38 133H765.5C984.313 133 1137.57 210.556 1219.64 340.382C1301.76 470.274 1312.95 652.982 1246.51 863.899Z" fill="#FFDDDD" stroke="black" stroke-width="4"/>
<path d="M818.005 1217.27C826.341 1229.96 829.217 1245.12 829.406 1263.09C829.558 1277.56 827.976 1293.61 826.216 1311.44C825.651 1317.17 825.068 1323.08 824.519 1329.18C816.028 1379.62 792.538 1418.77 754.086 1430C723.154 1429.82 697.947 1406.24 680.291 1375.17C663.113 1344.93 653.546 1308.34 653.023 1281.77C655.077 1281.58 657.102 1281.39 659.1 1281.21C689.464 1278.39 713.56 1276.16 737.127 1268.37C762.351 1260.04 786.848 1245.41 818.005 1217.27Z" fill="#E4ADAD" stroke="black" stroke-width="5"/>
<path d="M817.856 1217.04C826.306 1229.78 829.216 1245.01 829.406 1263.09C829.559 1277.56 827.976 1293.61 826.216 1311.44C825.651 1317.17 825.068 1323.08 824.519 1329.18C816.036 1379.59 794.053 1417.75 754.149 1429.97C717.2 1427.39 694.67 1403.02 687.361 1372.42C680.033 1341.74 688.081 1304.94 712.467 1278.1C722.096 1274.16 729.772 1271.11 736.075 1268.6C750.954 1262.69 758.192 1259.81 765.449 1255.53C770.676 1252.45 775.915 1248.65 783.987 1242.56C786.101 1240.96 788.414 1239.21 790.976 1237.26C797.818 1232.07 806.444 1225.52 817.856 1217.04Z" fill="#D23333" stroke="black" stroke-width="5"/>
<path d="M1013.86 1037.75C1013.93 1042.48 1014.01 1047.29 1014.09 1052.19C999.024 1034.53 983.877 1023.63 969.138 1017.57C952.891 1010.89 937.296 1010.14 923.111 1012.49C899.762 1016.35 880.047 1028.68 867.585 1036.47C865.983 1037.47 864.501 1038.4 863.146 1039.23C832.217 973.931 826.563 912.496 840.375 841.439C847.236 806.141 873.03 780.157 901.367 771.602C915.512 767.331 930.22 767.421 943.528 772.768C956.813 778.107 968.893 788.762 977.683 805.973C1011.22 871.644 1012.22 934.198 1013.86 1037.75Z" fill="white" stroke="black" stroke-width="5"/>
<path d="M1017.04 1057.64C974.155 1012.58 967.382 1007.16 925.574 1010.91C879.817 983.657 881.568 865.187 896.506 827.587C911.443 789.987 962.709 748.437 987.404 826.683C1010.55 885.727 1011.41 980.943 1017.04 1057.64Z" fill="#00ADB5"/>
<path d="M1015.16 1053.63C992.955 1032.03 986.128 1017.74 940.532 1008.88C926.768 977.042 932.383 937.63 942.01 911.419C952.737 890.282 969.866 857.969 998.351 872.146C1007.57 912.281 1019 931.245 1015.16 1053.63Z" fill="black"/>
<path d="M520.671 1045.04C521.475 1049.18 522.292 1053.39 523.126 1057.67C507.617 1044.42 493.1 1037.2 479.661 1034.27C464.598 1030.98 451.085 1033.12 439.317 1037.87C419.979 1045.68 405.159 1060.71 395.839 1070.16C394.787 1071.23 393.805 1072.23 392.894 1073.13C355.933 1018.39 341.004 962.632 341.004 894.5C341.004 860.534 358.705 831.897 381.306 818.949C392.58 812.49 405.006 809.963 417.089 812.489C429.153 815.012 441.147 822.63 451.472 836.961C490.914 891.711 502.118 949.443 520.671 1045.04Z" fill="white" stroke="black" stroke-width="5"/>
<path d="M527.17 1063.8C483.17 1029.8 476.5 1026 441.5 1037C398 1020 379.871 910 386.371 872.5C392.871 835 429.67 787.305 463.67 855.305C493.17 905.805 509.67 993.805 527.17 1063.8Z" fill="#00ADB5"/>
<path d="M524.743 1059.5C502.243 1043.5 494.06 1031.5 453.743 1031.5C436.743 1004.5 435 967 438.861 941C444.5 919.5 453.743 886.5 480.361 894.5C494.861 930 507.743 945.5 524.743 1059.5Z" fill="black"/>
<mask id="path-51-inside-2" fill="white">
<path d="M1261 1042.5C1261 1105.74 1206.5 1183 1143 1203.5C1105.72 1203.5 1126 1105.74 1126 1042.5C1126 991 1143 935 1193.5 928C1241.5 943.5 1267 984 1261 1042.5Z"/>
</mask>
<path d="M1261 1042.5C1261 1105.74 1206.5 1183 1143 1203.5C1105.72 1203.5 1126 1105.74 1126 1042.5C1126 991 1143 935 1193.5 928C1241.5 943.5 1267 984 1261 1042.5Z" fill="#FFDDDD"/>
<path d="M1261 1042.5L1258.02 1042.19C1258.01 1042.3 1258 1042.4 1258 1042.5H1261ZM1143 1203.5V1206.5C1143.31 1206.5 1143.62 1206.45 1143.92 1206.35L1143 1203.5ZM1193.5 928L1194.42 925.145C1193.99 925.006 1193.54 924.966 1193.09 925.028L1193.5 928ZM1258 1042.5C1258 1073.32 1244.68 1107.84 1223.38 1137.27C1202.09 1166.68 1173.07 1190.64 1142.08 1200.65L1143.92 1206.35C1176.43 1195.86 1206.42 1170.93 1228.24 1140.79C1250.07 1110.64 1264 1074.91 1264 1042.5H1258ZM1143 1200.5C1139.07 1200.5 1136.05 1199.24 1133.61 1196.98C1131.1 1194.65 1129.05 1191.1 1127.47 1186.3C1124.29 1176.65 1123.32 1162.88 1123.52 1146.75C1123.72 1130.69 1125.09 1112.64 1126.41 1094.55C1127.72 1076.52 1129 1058.44 1129 1042.5H1123C1123 1058.18 1121.74 1076.04 1120.42 1094.12C1119.11 1112.14 1117.73 1130.39 1117.52 1146.68C1117.32 1162.89 1118.26 1177.52 1121.77 1188.17C1123.53 1193.53 1126.01 1198.11 1129.53 1201.37C1133.11 1204.7 1137.61 1206.5 1143 1206.5V1200.5ZM1129 1042.5C1129 1017.02 1133.21 990.649 1143.5 969.895C1153.74 949.231 1169.88 934.302 1193.91 930.972L1193.09 925.028C1166.62 928.698 1149.01 945.269 1138.12 967.23C1127.29 989.101 1123 1016.48 1123 1042.5H1129ZM1192.58 930.855C1215.97 938.409 1233.72 951.989 1244.93 970.668C1256.15 989.371 1260.96 1013.44 1258.02 1042.19L1263.98 1042.81C1267.04 1013.06 1262.1 987.629 1250.07 967.582C1238.03 947.511 1219.03 933.091 1194.42 925.145L1192.58 930.855Z" fill="url(#paint3_linear)" mask="url(#path-51-inside-2)"/>
<path d="M1146.14 1056.55C1146.14 1064.76 1148.25 1073.51 1146.99 1081.67C1145.71 1089.97 1143.94 1098.4 1143.94 1106.78C1143.94 1115.33 1142.85 1123.79 1142.85 1132.27C1142.85 1139.13 1145.04 1145.26 1145.04 1152.02" stroke="black" stroke-linecap="round" stroke-linejoin="round"/>
<path d="M1146.14 1167.38C1160.08 1165.39 1170.25 1150.01 1173.33 1137.14C1176.43 1124.17 1180.16 1110.53 1180.16 1097.15" stroke="black" stroke-linecap="round" stroke-linejoin="round"/>
<path d="M1221.86 1097.15C1233.42 1086.51 1233.45 1068.95 1236.12 1054.23C1237.16 1048.55 1239.53 1038.61 1236.12 1033.5" stroke="black" stroke-linecap="round" stroke-linejoin="round"/>
<path d="M1177.96 980.827C1186.52 985.996 1194.1 990.508 1200.52 997.898C1204.41 1002.37 1204.11 1007.88 1206.5 1012.65" stroke="black" stroke-linecap="round" stroke-linejoin="round"/>
<path d="M819.411 708.881L828.918 693.038L839.772 682.01L849.945 673.048L862.828 664.081L877.056 660.617L891.958 659.217L908.89 659.189L924.462 661.916L934.618 663.964L945.45 666.699L955.604 669.435L973.201 676.976L984.703 684.527L997.557 692.764L1011.08 705.817L1030 734" stroke="black" stroke-width="5"/>
<path d="M282.618 797.957L286.28 783.155L295.402 759.903C296.381 757.406 297.56 754.993 298.927 752.685L304.086 743.973L319.405 729.107L334.903 716.138L357.441 708.177L382.83 698.782L412.329 694.989L442.969 703.314L476.282 723.965" stroke="black" stroke-width="4"/>
<path d="M430.793 521.39C340.816 554.344 255.429 606.756 146.116 684.787C210.478 458.698 259.733 307.426 337.736 212.488C416.049 117.174 523.498 78.5 705.253 78.5C834.492 78.5 979.824 110.699 1096.06 199.753C1212.24 288.763 1299.51 434.699 1312.5 662.542C1312.49 683.829 1307.69 696.347 1299.36 702.531C1291.01 708.725 1278.57 708.984 1262.21 704.301C1245.91 699.636 1226.14 690.187 1203.55 677.607C1180.98 665.036 1155.68 649.391 1128.32 632.382C1126.58 631.303 1124.84 630.218 1123.08 629.128C1069.63 595.888 1008.67 557.984 945.351 528.055C879.963 497.15 811.916 474.681 746.864 474.681C617.295 474.681 521.747 488.077 430.793 521.39Z" fill="url(#paint4_linear)" stroke="url(#paint5_linear)" stroke-width="3"/>
<path d="M320.904 364.509L405.5 312.5L499.5 284L557 273.5L600 273.5L653 273.5L695.867 291.321" stroke="black" stroke-width="2"/>
<path d="M1212.69 541.429L1127.72 464.408L1027.38 407.719L964.6 379.882L916.064 366.81L856.239 350.698L804.246 355.246" stroke="black" stroke-width="2"/>
<path d="M1227.44 497.951L1142.47 420.931L1042.13 364.242L979.354 336.404L930.817 323.332L870.992 307.221L819 311.768" stroke="black" stroke-width="2"/>
<path d="M1243.44 461.951L1158.47 384.931L1058.13 328.242L995.354 300.404L946.817 287.332L886.992 271.221L835 275.768" stroke="black" stroke-width="2"/>
<path d="M1249.44 384.951L1164.47 307.931L1064.13 251.242L1001.35 223.404L952.817 210.332L892.992 194.221L841 198.768" stroke="black" stroke-width="2"/>
<path d="M229.54 515.088L326.81 435.842L439.457 377.087L509.442 348.082L563.003 334.247L629.019 317.193L685.19 321.228" stroke="black" stroke-width="2"/>
<path d="M330.237 280.297L420.503 240.613L516.77 225.521L574.703 223.155L616.945 229.16L669.01 236.562L708.669 260.195" stroke="black" stroke-width="2"/>
<path d="M400 215.246L479.449 191.189L561.537 188.061L610.284 191.735L645.077 200.809L687.962 211.994L718.881 235.401" stroke="black" stroke-width="2"/>
<path d="M430 166.246L509.449 142.189L591.537 139.061L640.284 142.735L675.077 151.809L717.962 162.994L748.881 186.401" stroke="black" stroke-width="2"/>
<path d="M558 106.454L614.146 100.55L671.427 105.322L705.256 110.922L729.186 118.149L758.68 127.055L779.428 141.153" stroke="black" stroke-width="2"/>
<path d="M420 195.246L499.449 171.189L581.537 168.061L630.284 171.735L665.077 180.809L707.962 191.994L738.881 215.401" stroke="black" stroke-width="2"/>
<path d="M622.998 417.454C550.951 502.771 452.825 628.515 450.443 773.62C383.746 660.767 381.256 599.719 397.838 549.974C412.514 505.945 419.994 485.193 426.952 472.122C432.72 461.288 438.096 455.776 447.15 446.493C448.82 444.781 450.615 442.94 452.562 440.914C454.091 440.808 455.937 440.358 457.998 439.686C460.397 438.903 463.21 437.776 466.358 436.391C472.652 433.622 480.392 429.768 489.002 425.435C490.161 424.852 491.337 424.259 492.527 423.66C509.048 415.335 528.414 405.576 547.162 398.132C567.331 390.125 586.476 384.928 600.479 386.858C607.416 387.813 612.976 390.501 616.827 395.367C620.629 400.171 622.919 407.289 622.998 417.454Z" fill="url(#paint6_linear)" stroke="url(#paint7_linear)" stroke-width="3"/>
<path d="M393.243 515.5C356.667 558.98 313.614 638.282 279.673 725.006C246.451 809.891 221.868 902.111 220.688 975.065C187.873 918.216 170.56 850.042 163.46 789.473C156.159 727.187 159.686 673.208 168.082 648.019C182.759 603.99 190.239 583.238 197.197 570.167C202.965 559.333 208.341 553.821 217.395 544.538C219.065 542.826 220.86 540.985 222.806 538.959C224.336 538.853 226.182 538.403 228.243 537.731C230.642 536.948 233.455 535.821 236.603 534.436C242.897 531.666 250.637 527.813 259.247 523.48C260.406 522.897 261.582 522.304 262.772 521.705C279.293 513.38 298.658 503.621 317.407 496.177C337.576 488.169 356.721 482.973 370.724 484.903C377.661 485.858 383.22 488.546 387.072 493.412C390.874 498.216 393.164 505.334 393.243 515.5Z" fill="url(#paint8_linear)" stroke="url(#paint9_linear)" stroke-width="3"/>
<path d="M382.964 478.366C353.233 526.6 323.479 595.673 303.822 670.835C284.582 744.4 274.986 823.907 284.619 895.499C243.643 844.801 215.355 795.137 198.309 751.603C180.779 706.835 175.192 668.69 179.776 642.601C187.808 596.891 192.15 575.263 197.108 561.31C201.217 549.745 205.723 543.501 213.31 532.986C214.71 531.046 216.215 528.961 217.841 526.67C219.338 526.341 221.098 525.624 223.038 524.655C225.295 523.528 227.912 521.999 230.821 520.165C236.638 516.499 243.727 511.547 251.605 505.994C252.666 505.246 253.741 504.487 254.83 503.719C269.945 493.051 287.662 480.547 305.109 470.423C323.879 459.533 342.05 451.574 356.185 451.419C363.187 451.343 369.082 453.183 373.608 457.429C378.076 461.62 381.389 468.323 382.964 478.366Z" fill="url(#paint10_linear)" stroke="url(#paint11_linear)" stroke-width="3"/>
<path d="M624.876 420.058C629.341 423.089 632.602 427.777 633.632 435.021C613.297 453.876 600.006 469.439 588.966 486.686C578.233 503.454 569.653 521.775 558.795 546.147C544.144 519.816 544.076 499.996 544.009 480.476C544.008 480.176 544.007 479.875 544.006 479.575C543.942 462.049 547.707 449.622 553.203 440.139C558.624 430.783 565.784 424.193 572.88 418.348C574.579 418.132 576.646 417.794 578.984 417.411C586.701 416.147 597.361 414.402 607.406 415.023C614.045 415.433 620.191 416.879 624.876 420.058Z" fill="url(#paint12_linear)" stroke="url(#paint13_linear)" stroke-width="3"/>
<path d="M667.229 408.767C671.694 411.798 674.955 416.487 675.985 423.73C655.65 442.585 642.359 458.149 631.319 475.396C620.586 492.163 612.006 510.484 601.148 534.856C586.497 508.526 586.429 488.705 586.362 469.186C586.361 468.885 586.36 468.585 586.359 468.284C586.295 450.758 590.06 438.332 595.556 428.848C600.977 419.493 608.137 412.902 615.233 407.057C616.932 406.842 618.999 406.503 621.337 406.12C629.054 404.857 639.714 403.111 649.759 403.732C656.398 404.143 662.545 405.588 667.229 408.767Z" fill="url(#paint14_linear)" stroke="url(#paint15_linear)" stroke-width="3"/>
<path d="M478.084 433.89C406.051 519.26 381.596 578.666 336.426 702.419C317.067 627.312 320.787 574.45 324.415 522.914C324.47 522.123 324.526 521.333 324.582 520.542C327.822 474.426 336.291 442.737 347.061 419.314C357.7 396.175 370.62 381.022 383.129 367.933C385.81 367.898 389.126 367.655 392.836 367.384L393.204 367.357C397.393 367.051 402.119 366.712 407.159 366.569C417.248 366.283 428.503 366.791 439.019 369.896C449.511 372.993 459.229 378.664 466.343 388.702C473.404 398.664 478.005 413.078 478.084 433.89Z" fill="url(#paint16_linear)" stroke="url(#paint17_linear)" stroke-width="3"/>
<path d="M272.483 502.954C235.958 546.461 227.027 598.992 221.433 656.166C220.567 665.023 219.78 673.993 218.985 683.061C214.715 731.744 210.196 783.27 191.725 835.605C134.518 711.272 118.984 641.777 118.984 589.5C118.984 543.327 127.447 511.687 139.004 488.33C150.402 465.292 164.849 450.221 177.426 437.102C177.46 437.066 177.494 437.031 177.528 436.996C180.209 436.961 183.525 436.718 187.235 436.447L187.603 436.42C191.792 436.114 196.518 435.774 201.558 435.632C211.647 435.346 222.902 435.853 233.418 438.958C243.91 442.056 253.628 447.727 260.742 457.764C267.803 467.727 272.404 482.141 272.483 502.954Z" fill="url(#paint18_linear)" stroke="url(#paint19_linear)" stroke-width="3"/>
<path d="M559.502 379.863C623.64 463.342 710.937 586.293 713.283 728.163C772.41 618.002 774.61 558.3 759.847 509.621C746.767 466.492 740.099 446.158 733.895 433.351C728.755 422.739 723.967 417.343 715.899 408.251C714.424 406.589 712.839 404.802 711.122 402.838C709.739 402.718 708.101 402.273 706.304 401.628C704.155 400.857 701.639 399.75 698.83 398.392C693.215 395.675 686.311 391.898 678.638 387.654C677.605 387.082 676.558 386.502 675.498 385.915C660.772 377.759 643.521 368.205 626.821 360.917C617.875 357.013 609.124 353.777 601.04 351.758C592.942 349.736 585.606 348.959 579.45 349.891C573.337 350.817 568.426 353.417 565.007 358.164C561.616 362.873 559.569 369.869 559.502 379.863Z" fill="url(#paint20_linear)" stroke="url(#paint21_linear)" stroke-width="3"/>
<path d="M709.501 394.937C762.364 478.599 801.72 627.632 802.969 769.564C827.437 714.995 850.234 662.37 865.666 617.138C873.68 593.652 879.693 572.198 882.927 553.528C886.166 534.836 886.594 519.058 883.545 506.864C872.769 463.776 864.965 448.062 857.721 439.847C854.746 436.472 851.861 434.347 848.726 432.038C848.041 431.534 847.344 431.021 846.632 430.484C842.775 427.576 838.663 424.101 834.052 417.815C832.874 417.664 831.533 417.208 830.117 416.592C828.324 415.812 826.235 414.696 823.914 413.335C819.273 410.613 813.572 406.829 807.246 402.587C806.395 402.016 805.533 401.437 804.66 400.851C792.513 392.692 778.3 383.147 764.546 375.868C757.178 371.97 749.988 368.746 743.358 366.738C736.711 364.726 730.745 363.971 725.774 364.883C720.875 365.783 716.882 368.309 714.064 373.053C711.247 377.797 709.548 384.861 709.501 394.937Z" fill="url(#paint22_linear)" stroke="url(#paint23_linear)" stroke-width="3"/>
<path d="M750.501 397.937C803.364 481.599 842.72 630.632 843.969 772.564C868.437 717.995 891.234 665.37 906.666 620.138C914.68 596.652 920.693 575.198 923.927 556.528C927.166 537.836 927.594 522.058 924.545 509.864C913.769 466.776 905.965 451.062 898.721 442.847C895.746 439.472 892.861 437.347 889.726 435.038C889.041 434.534 888.344 434.021 887.632 433.484C883.775 430.576 879.663 427.101 875.052 420.815C873.874 420.664 872.533 420.208 871.117 419.592C869.324 418.812 867.235 417.696 864.914 416.335C860.273 413.613 854.572 409.829 848.246 405.587C847.395 405.016 846.533 404.437 845.66 403.851C833.513 395.692 819.3 386.147 805.546 378.868C798.178 374.97 790.988 371.746 784.358 369.738C777.711 367.726 771.745 366.971 766.774 367.883C761.875 368.783 757.882 371.309 755.064 376.053C752.247 380.797 750.548 387.861 750.501 397.937Z" fill="url(#paint24_linear)" stroke="url(#paint25_linear)" stroke-width="3"/>
<path d="M1121.5 522.378C1183.32 620.265 1229.32 794.916 1230.58 961.049C1259.3 896.935 1286.1 835.071 1304.21 781.935C1313.57 754.494 1320.59 729.421 1324.37 707.595C1328.15 685.747 1328.65 667.276 1325.08 652.983C1312.51 602.653 1303.39 584.242 1294.89 574.595C1291.4 570.632 1288.01 568.132 1284.35 565.434C1283.55 564.846 1282.74 564.248 1281.92 563.625C1277.41 560.224 1272.61 556.163 1267.22 548.792C1265.86 548.634 1264.29 548.105 1262.59 547.368C1260.52 546.463 1258.09 545.165 1255.38 543.577C1249.98 540.402 1243.33 535.987 1235.95 531.031C1234.95 530.364 1233.95 529.687 1232.93 529.001C1218.75 519.473 1202.16 508.316 1186.1 499.808C1177.49 495.25 1169.09 491.477 1161.33 489.125C1153.56 486.769 1146.55 485.876 1140.7 486.952C1134.91 488.015 1130.19 491.006 1126.86 496.614C1123.54 502.221 1121.55 510.546 1121.5 522.378Z" fill="url(#paint26_linear)" stroke="url(#paint27_linear)" stroke-width="3"/>
<path d="M1087.5 548.378C1149.32 646.265 1195.32 820.916 1196.58 987.049C1225.31 922.935 1252.1 861.071 1270.21 807.935C1279.57 780.494 1286.59 755.421 1290.37 733.595C1294.15 711.747 1294.65 693.276 1291.08 678.983C1278.51 628.653 1269.39 610.242 1260.89 600.595C1257.4 596.632 1254.01 594.132 1250.35 591.434C1249.55 590.846 1248.74 590.248 1247.92 589.625C1243.41 586.224 1238.61 582.163 1233.22 574.792C1231.86 574.634 1230.29 574.105 1228.6 573.368C1226.52 572.463 1224.09 571.165 1221.38 569.577C1215.98 566.402 1209.33 561.987 1201.95 557.031C1200.95 556.364 1199.95 555.687 1198.93 555.001C1184.76 545.473 1168.16 534.316 1152.1 525.808C1143.49 521.25 1135.09 517.477 1127.33 515.125C1119.56 512.769 1112.55 511.876 1106.7 512.952C1100.91 514.015 1096.19 517.006 1092.86 522.614C1089.54 528.221 1087.55 536.546 1087.5 548.378Z" fill="url(#paint28_linear)" stroke="url(#paint29_linear)" stroke-width="3"/>
<path d="M1060.5 506.378C1122.32 604.265 1168.32 778.916 1169.58 945.049C1198.3 880.935 1225.1 819.071 1243.21 765.935C1252.57 738.494 1259.59 713.421 1263.37 691.595C1267.15 669.747 1267.65 651.276 1264.08 636.983C1251.51 586.653 1242.39 568.242 1233.89 558.595C1230.4 554.632 1227.01 552.132 1223.35 549.434C1222.55 548.846 1221.74 548.248 1220.92 547.625C1216.41 544.224 1211.61 540.163 1206.22 532.792C1204.86 532.634 1203.29 532.105 1201.59 531.368C1199.52 530.463 1197.09 529.165 1194.38 527.577C1188.98 524.402 1182.33 519.987 1174.95 515.031C1173.95 514.364 1172.95 513.687 1171.93 513.001C1157.75 503.473 1141.16 492.316 1125.1 483.808C1116.49 479.25 1108.09 475.477 1100.33 473.125C1092.56 470.769 1085.55 469.876 1079.7 470.952C1073.91 472.015 1069.19 475.006 1065.86 480.614C1062.54 486.221 1060.55 494.546 1060.5 506.378Z" fill="url(#paint30_linear)" stroke="url(#paint31_linear)" stroke-width="3"/>
<path d="M998.501 588.378C1060.32 686.265 1106.32 860.916 1107.58 1027.05C1136.31 962.935 1163.1 901.071 1181.21 847.935C1190.57 820.494 1197.59 795.421 1201.37 773.595C1205.15 751.747 1205.65 733.276 1202.08 718.983C1189.51 668.653 1180.39 650.242 1171.89 640.595C1168.4 636.632 1165.01 634.132 1161.35 631.434C1160.55 630.846 1159.74 630.248 1158.92 629.625C1154.41 626.224 1149.61 622.163 1144.22 614.792C1142.86 614.634 1141.29 614.105 1139.6 613.368C1137.52 612.463 1135.09 611.165 1132.38 609.577C1126.98 606.402 1120.33 601.987 1112.95 597.031C1111.95 596.364 1110.95 595.687 1109.93 595.001C1095.76 585.473 1079.16 574.316 1063.1 565.808C1054.49 561.25 1046.09 557.477 1038.33 555.125C1030.56 552.769 1023.55 551.876 1017.7 552.952C1011.91 554.015 1007.19 557.006 1003.86 562.614C1000.54 568.221 998.548 576.546 998.501 588.378Z" fill="url(#paint32_linear)" stroke="url(#paint33_linear)" stroke-width="3"/>
<path d="M925.908 562.475C936.91 623.412 942.622 692.145 947.825 765.487C995.825 736.978 1029.59 686.414 1049.92 636.543C1059.27 613.614 1065.75 590.873 1069.47 570.561C1060.17 541.082 1048.57 514.489 1033.88 491.303L1033.64 490.936V490.5C1033.64 479.923 1035.39 472.113 1038.63 466.652C1040.84 462.928 1043.72 460.345 1047.11 458.736C1042.4 453.523 1037.61 450.148 1032.9 447.683C1029.52 445.914 1026.15 444.595 1022.81 443.405C1021.69 443.008 1020.57 442.622 1019.46 442.236C1017.26 441.479 1015.07 440.725 1012.97 439.901C1006.73 437.452 1000.88 434.249 996.057 427.816C994.878 427.665 993.535 427.209 992.117 426.592C990.324 425.812 988.235 424.696 985.914 423.335C981.273 420.613 975.572 416.829 969.246 412.587C968.396 412.016 967.533 411.437 966.66 410.851C954.513 402.692 940.3 393.147 926.546 385.868C919.178 381.97 911.988 378.746 905.358 376.738C898.711 374.726 892.745 373.971 887.774 374.883C882.875 375.783 878.882 378.309 876.064 383.053C873.247 387.797 871.548 394.861 871.501 404.937C898.338 447.439 914.819 501.056 925.908 562.475ZM1036.64 490.067C1050.47 511.968 1061.55 536.82 1070.56 564.169C1074 542.417 1074.09 524.024 1071.04 511.864C1064.65 486.29 1057.06 470.874 1049.14 461.113C1045.94 462.443 1043.26 464.723 1041.21 468.183C1038.39 472.927 1036.69 479.991 1036.64 490.067ZM1073.49 564.875C1073.2 566.684 1072.89 568.516 1072.55 570.367C1080.09 594.365 1086.11 620.209 1091.05 647.605C1102.05 708.542 1107.77 777.275 1112.97 850.617C1160.97 822.108 1194.74 771.544 1215.06 721.673C1225.37 696.397 1232.19 671.35 1235.67 649.533C1239.15 627.678 1239.24 609.197 1236.19 596.994C1225.47 554.137 1211.41 539.807 1198.04 532.814C1194.66 531.044 1191.29 529.725 1187.95 528.535C1186.84 528.138 1185.72 527.752 1184.6 527.366C1182.4 526.609 1180.21 525.855 1178.12 525.031C1171.88 522.582 1166.02 519.379 1161.2 512.946C1160.02 512.795 1158.68 512.339 1157.26 511.722C1155.47 510.942 1153.38 509.826 1151.06 508.465C1146.42 505.743 1140.72 501.96 1134.39 497.717C1133.54 497.146 1132.68 496.567 1131.8 495.981C1119.66 487.822 1105.44 478.277 1091.69 470.999C1084.32 467.1 1077.13 463.876 1070.5 461.869C1063.85 459.856 1057.89 459.101 1052.92 460.013C1052.68 460.057 1052.45 460.104 1052.22 460.155C1060.2 470.369 1067.68 486.045 1073.95 511.136C1077.15 523.912 1076.99 542.858 1073.49 564.875Z" fill="url(#paint34_linear)" stroke="url(#paint35_linear)" stroke-width="3"/>
<path d="M399.269 464.418L466.77 416.101L543.497 386.755L590.838 374.565L626.702 371.975L670.907 368.782L707.707 381.01" stroke="black" stroke-width="2"/>
<path d="M1083.94 513.993L1025.03 459.436L954.951 422.74L910.987 405.957L876.872 399.82L834.822 392.256L798 400.696" stroke="black" stroke-width="2"/>
<path d="M321.435 165.965C349.615 182.299 375.395 197.081 396.282 203.286C321.822 254.405 243.87 343.572 219.272 432.877C160.86 396.107 119.853 341.369 97.1782 306.412C85.2106 287.961 71.2643 264.298 60.3175 240.538C49.4423 216.933 41.6456 193.479 41.5034 175.011C65.7433 131.198 94.762 109.956 125.826 102.776C157.096 95.5498 190.8 102.485 224.391 115.735C256.966 128.584 289.188 147.267 318.701 164.38C319.615 164.91 320.526 165.438 321.435 165.965Z" fill="#C4C4C4" stroke="black" stroke-width="4"/>
<path d="M230.156 268.978C246.515 286.092 262.886 302.521 280.403 315.019C279.752 316.007 279.112 316.98 278.482 317.939C262.077 342.872 252.291 357.746 244.326 373.054C236.103 388.859 229.835 405.096 220.175 433.288C161.682 396.518 120.625 341.716 97.93 306.728C85.9592 288.273 72.3261 265.282 61.6927 242.197C51.3265 219.691 43.9163 197.316 43.517 179.039C100.477 164.383 141.873 185.613 178.071 217.017C193.521 230.422 207.961 245.626 222.253 260.675C224.89 263.452 227.523 266.224 230.156 268.978Z" fill="#FFDDDD" stroke="black" stroke-width="4"/>
<path d="M1388.92 139.49C1365.18 220.383 1331.61 289.54 1242.5 373.777C1195.49 289.24 1121.88 212.21 999.142 165.364C1000.29 163.479 1002.62 161.642 1006.46 159.879C1011.32 157.647 1018.1 155.759 1026.51 154.013C1037.51 151.727 1051 149.736 1066.16 147.5C1074.18 146.317 1082.67 145.064 1091.5 143.663C1142.19 135.621 1203.69 122.742 1249.33 89.8649C1270.28 85.2859 1288.27 81.8113 1303.8 80.2478C1319.44 78.6736 1332.46 79.0527 1343.4 82.1136C1364.88 88.1244 1379.01 104.682 1388.92 139.49Z" fill="#C4C4C4" stroke="black" stroke-width="4"/>
<path d="M1369.95 154.551C1361.41 193.683 1323.85 276.601 1234.18 361.271C1227.64 352.742 1222.54 345.509 1217.35 338.143C1205.89 321.89 1193.97 304.992 1165.16 272.112C1168.68 259.194 1176.78 245.591 1195 227.244C1213.58 208.54 1242.59 185 1287.75 152.307C1292.25 150.309 1297.29 147.584 1302.56 144.736C1304.95 143.448 1307.38 142.135 1309.83 140.852C1317.82 136.664 1326.08 132.752 1333.93 130.767C1341.78 128.782 1349.01 128.775 1355.11 132.134C1361.15 135.456 1366.39 142.246 1369.95 154.551Z" fill="#FFDDDD" stroke="black" stroke-width="3"/>
<path d="M726.3 1146.61V1146.92L726.395 1147.22C727.398 1150.36 727.147 1153.34 725.694 1156.17C724.215 1159.05 721.424 1161.89 717.153 1164.53C708.604 1169.8 694.602 1173.96 675.315 1176C664.651 1175.99 654.476 1174.96 647.014 1171.36C643.309 1169.58 640.335 1167.2 638.279 1164.05C636.227 1160.9 635 1156.86 635 1151.61C635 1146.37 636.443 1140.13 638.853 1133.32C641.256 1126.52 644.574 1119.27 648.224 1112.02C651.851 1104.83 655.784 1097.68 659.445 1091.03L659.512 1090.91C662.903 1084.75 666.069 1078.99 668.502 1074.07C672.966 1074.53 678.537 1077.47 684.634 1082.39C691.208 1087.69 698.057 1095.01 704.277 1103C710.494 1110.98 716.033 1119.57 720.008 1127.38C724.024 1135.27 726.3 1142.09 726.3 1146.61Z" stroke="url(#paint36_linear)" stroke-width="4"/>
<defs>
<linearGradient id="paint0_linear" x1="705.061" y1="304.7" x2="746.332" y2="1437.44" gradientUnits="userSpaceOnUse">
<stop offset="0.354167" stop-color="#63A9FB" stop-opacity="0.953771"/>
<stop offset="0.552083" stop-color="#7AACE6"/>
<stop offset="0.723958" stop-color="#1A71D7" stop-opacity="0.81"/>
</linearGradient>
<linearGradient id="paint1_linear" x1="715.5" y1="298" x2="715.5" y2="1455" gradientUnits="userSpaceOnUse">
<stop offset="0.572575"/>
<stop offset="0.706208" stop-opacity="0"/>
</linearGradient>
<linearGradient id="paint2_linear" x1="262.572" y1="1077.88" x2="219.938" y2="1079.48" gradientUnits="userSpaceOnUse">
<stop stop-color="#EAE1E1"/>
<stop stop-color="#E4ADAD"/>
<stop offset="1"/>
</linearGradient>
<linearGradient id="paint3_linear" x1="1146.5" y1="1123" x2="1219" y2="1127" gradientUnits="userSpaceOnUse">
<stop stop-color="#EAE1E1"/>
<stop stop-color="#E4ADAD"/>
<stop offset="1"/>
</linearGradient>
<linearGradient id="paint4_linear" x1="728" y1="77" x2="728" y2="832" gradientUnits="userSpaceOnUse">
<stop stop-color="#155BAD"/>
<stop offset="0.255208" stop-color="#5F9EE8"/>
</linearGradient>
<linearGradient id="paint5_linear" x1="728" y1="77" x2="790" y2="414" gradientUnits="userSpaceOnUse">
<stop/>
<stop offset="0.737398" stop-opacity="0"/>
</linearGradient>
<linearGradient id="paint6_linear" x1="506.127" y1="384.955" x2="506.127" y2="779" gradientUnits="userSpaceOnUse">
<stop offset="0.541667" stop-color="#5C9BE3"/>
<stop offset="1" stop-color="#5E9DE6" stop-opacity="0"/>
</linearGradient>
<linearGradient id="paint7_linear" x1="506.127" y1="384.955" x2="506.127" y2="779" gradientUnits="userSpaceOnUse">
<stop offset="0.364583" stop-opacity="0"/>
<stop offset="0.682292"/>
</linearGradient>
<linearGradient id="paint8_linear" x1="276.372" y1="483" x2="276.372" y2="877.045" gradientUnits="userSpaceOnUse">
<stop offset="0.479167" stop-color="#5E9DE6" stop-opacity="0"/>
<stop offset="0.822917" stop-color="#5C9BE3"/>
</linearGradient>
<linearGradient id="paint9_linear" x1="276.372" y1="483" x2="276.372" y2="877.045" gradientUnits="userSpaceOnUse">
<stop offset="0.364583" stop-opacity="0"/>
<stop offset="0.682292"/>
</linearGradient>
<linearGradient id="paint10_linear" x1="263.832" y1="463.247" x2="328.043" y2="894.493" gradientUnits="userSpaceOnUse">
<stop offset="0.541667" stop-color="#5C9BE3"/>
<stop offset="1" stop-color="#5E9DE6" stop-opacity="0"/>
</linearGradient>
<linearGradient id="paint11_linear" x1="278.579" y1="454.462" x2="336.611" y2="844.21" gradientUnits="userSpaceOnUse">
<stop offset="0.364583" stop-opacity="0"/>
<stop offset="0.682292"/>
</linearGradient>
<linearGradient id="paint12_linear" x1="374.799" y1="470.572" x2="390.122" y2="600.296" gradientUnits="userSpaceOnUse">
<stop offset="0.541667" stop-color="#5C9BE3"/>
<stop offset="1" stop-color="#5E9DE6" stop-opacity="0"/>
</linearGradient>
<linearGradient id="paint13_linear" x1="383.996" y1="489.651" x2="399.319" y2="619.376" gradientUnits="userSpaceOnUse">
<stop stop-opacity="0"/>
<stop offset="0.989583"/>
</linearGradient>
<linearGradient id="paint14_linear" x1="417.152" y1="459.281" x2="432.475" y2="589.006" gradientUnits="userSpaceOnUse">
<stop offset="0.541667" stop-color="#5C9BE3"/>
<stop offset="1" stop-color="#5E9DE6" stop-opacity="0"/>
</linearGradient>
<linearGradient id="paint15_linear" x1="426.349" y1="478.361" x2="441.672" y2="608.085" gradientUnits="userSpaceOnUse">
<stop stop-opacity="0"/>
<stop offset="0.989583"/>
</linearGradient>
<linearGradient id="paint16_linear" x1="399.793" y1="365" x2="399.793" y2="707.437" gradientUnits="userSpaceOnUse">
<stop offset="0.541667" stop-color="#5C9BE3"/>
<stop offset="1" stop-color="#5E9DE6" stop-opacity="0"/>
</linearGradient>
<linearGradient id="paint17_linear" x1="399.793" y1="365" x2="399.793" y2="707.437" gradientUnits="userSpaceOnUse">
<stop offset="0.364583" stop-opacity="0"/>
<stop offset="0.682292"/>
</linearGradient>
<linearGradient id="paint18_linear" x1="171.335" y1="418" x2="171.335" y2="823.5" gradientUnits="userSpaceOnUse">
<stop offset="0.541667" stop-color="#5C9BE3"/>
<stop offset="1" stop-color="#5E9DE6" stop-opacity="0"/>
</linearGradient>
<linearGradient id="paint19_linear" x1="209.5" y1="442.5" x2="143.5" y2="677" gradientUnits="userSpaceOnUse">
<stop offset="0.322917" stop-opacity="0"/>
<stop offset="0.786458"/>
</linearGradient>
<linearGradient id="paint20_linear" x1="663.5" y1="348" x2="663.5" y2="734" gradientUnits="userSpaceOnUse">
<stop offset="0.541667" stop-color="#5C9BE3"/>
<stop offset="1" stop-color="#5E9DE6" stop-opacity="0"/>
</linearGradient>
<linearGradient id="paint21_linear" x1="663.5" y1="348" x2="663.5" y2="734" gradientUnits="userSpaceOnUse">
<stop offset="0.364583" stop-opacity="0"/>
<stop offset="0.682292"/>
</linearGradient>
<linearGradient id="paint22_linear" x1="797.555" y1="363" x2="797.555" y2="776.5" gradientUnits="userSpaceOnUse">
<stop offset="0.541667" stop-color="#5C9BE3"/>
<stop offset="1" stop-color="#5E9DE6" stop-opacity="0"/>
</linearGradient>
<linearGradient id="paint23_linear" x1="797.555" y1="363" x2="797.555" y2="776.5" gradientUnits="userSpaceOnUse">
<stop offset="0.364583" stop-opacity="0"/>
<stop offset="0.682292"/>
</linearGradient>
<linearGradient id="paint24_linear" x1="838.555" y1="366" x2="838.555" y2="779.5" gradientUnits="userSpaceOnUse">
<stop offset="0.541667" stop-color="#5C9BE3"/>
<stop offset="1" stop-color="#5E9DE6" stop-opacity="0"/>
</linearGradient>
<linearGradient id="paint25_linear" x1="991.5" y1="210" x2="1076" y2="547" gradientUnits="userSpaceOnUse">
<stop offset="0.601832" stop-opacity="0"/>
<stop offset="0.682292"/>
</linearGradient>
<linearGradient id="paint26_linear" x1="1224.5" y1="485" x2="1224.5" y2="968" gradientUnits="userSpaceOnUse">
<stop offset="0.541667" stop-color="#5C9BE3"/>
<stop offset="1" stop-color="#5E9DE6" stop-opacity="0"/>
</linearGradient>
<linearGradient id="paint27_linear" x1="1224.5" y1="485" x2="1346" y2="748.5" gradientUnits="userSpaceOnUse">
<stop offset="0.364583" stop-opacity="0"/>
<stop offset="0.682292"/>
</linearGradient>
<linearGradient id="paint28_linear" x1="1190.5" y1="511" x2="1190.5" y2="994" gradientUnits="userSpaceOnUse">
<stop offset="0.541667" stop-color="#5C9BE3"/>
<stop offset="1" stop-color="#5E9DE6" stop-opacity="0"/>
</linearGradient>
<linearGradient id="paint29_linear" x1="1190.5" y1="511" x2="1190.5" y2="994" gradientUnits="userSpaceOnUse">
<stop offset="0.364583" stop-opacity="0"/>
<stop offset="0.682292"/>
</linearGradient>
<linearGradient id="paint30_linear" x1="1163.5" y1="469" x2="1163.5" y2="952" gradientUnits="userSpaceOnUse">
<stop offset="0.541667" stop-color="#5C9BE3"/>
<stop offset="1" stop-color="#5E9DE6" stop-opacity="0"/>
</linearGradient>
<linearGradient id="paint31_linear" x1="1163.5" y1="469" x2="1163.5" y2="952" gradientUnits="userSpaceOnUse">
<stop offset="0.364583" stop-opacity="0"/>
<stop offset="0.682292"/>
</linearGradient>
<linearGradient id="paint32_linear" x1="1101.5" y1="551" x2="1101.5" y2="1034" gradientUnits="userSpaceOnUse">
<stop offset="0.541667" stop-color="#5C9BE3"/>
<stop offset="1" stop-color="#5E9DE6" stop-opacity="0"/>
</linearGradient>
<linearGradient id="paint33_linear" x1="1101.5" y1="551" x2="1101.5" y2="1034" gradientUnits="userSpaceOnUse">
<stop offset="0.364583" stop-opacity="0"/>
<stop offset="0.682292"/>
</linearGradient>
<linearGradient id="paint34_linear" x1="1054.94" y1="373" x2="1054.94" y2="853.13" gradientUnits="userSpaceOnUse">
<stop offset="0.541667" stop-color="#5C9BE3"/>
<stop offset="1" stop-color="#5E9DE6" stop-opacity="0"/>
</linearGradient>
<linearGradient id="paint35_linear" x1="1202" y1="440.5" x2="1142" y2="746.5" gradientUnits="userSpaceOnUse">
<stop offset="0.364583" stop-opacity="0"/>
<stop offset="0.682292"/>
</linearGradient>
<linearGradient id="paint36_linear" x1="648.69" y1="1166.63" x2="697.446" y2="1129.13" gradientUnits="userSpaceOnUse">
<stop offset="0.213542"/>
<stop offset="0.911458" stop-opacity="0"/>
</linearGradient>
</defs>
</svg>

