<svg width="486" height="508" viewBox="0 0 486 508" fill="none" xmlns="http://www.w3.org/2000/svg">
<ellipse cx="243" cy="254" rx="243" ry="254" fill="#C4C4C4" fill-opacity="0.1"/>
<rect x="33" y="47" width="416" height="415" rx="205" fill="#E5EAAE" stroke="#A8A2A2" stroke-width="8"/>
<path d="M114.845 125.585L114.935 125.337V125.073C114.935 121.162 117.656 117.551 123.332 114.25C128.972 110.969 137.165 108.224 147.237 105.956C167.355 101.425 194.525 98.8881 222.611 97.5279C267.444 95.3566 314.357 96.1908 338.261 96.6159C343.912 96.7164 348.278 96.794 351.025 96.8036C381.233 122.197 396.361 152.765 401.139 193.531C405.935 234.448 400.301 285.603 388.924 352.062C358.583 370.95 307.342 385.278 254.886 391.443C202.429 397.608 149.135 395.564 114.655 382.007C94.0238 315.461 81.5749 217.24 114.845 125.585Z" fill="url(#paint0_linear)" stroke="url(#paint1_linear)" stroke-width="3"/>
<mask id="path-4-inside-1" fill="white">
<path d="M398.994 243.57C398.994 259.664 385.654 279.327 370.11 284.545C360.985 284.545 365.949 259.664 365.949 243.57C365.949 230.463 370.11 216.211 382.471 214.43C394.221 218.374 400.463 228.682 398.994 243.57Z"/>
</mask>
<path d="M398.994 243.57C398.994 259.664 385.654 279.327 370.11 284.545C360.985 284.545 365.949 259.664 365.949 243.57C365.949 230.463 370.11 216.211 382.471 214.43C394.221 218.374 400.463 228.682 398.994 243.57Z" fill="#FFDDDD"/>
<path d="M398.994 243.57L396.009 243.276C395.999 243.373 395.994 243.472 395.994 243.57H398.994ZM370.11 284.545V287.545C370.435 287.545 370.757 287.492 371.065 287.389L370.11 284.545ZM382.471 214.43L383.426 211.586C382.982 211.436 382.508 211.393 382.044 211.46L382.471 214.43ZM395.994 243.57C395.994 250.853 392.944 259.205 387.919 266.422C382.892 273.641 376.147 279.354 369.155 281.701L371.065 287.389C379.616 284.518 387.314 277.791 392.843 269.85C398.373 261.908 401.994 252.381 401.994 243.57H395.994ZM370.11 281.545C369.734 281.545 369.564 281.449 369.395 281.285C369.148 281.047 368.796 280.528 368.47 279.5C367.807 277.406 367.558 274.206 367.607 270.129C367.656 266.119 367.984 261.597 368.308 256.972C368.63 252.397 368.949 247.717 368.949 243.57H362.949C362.949 247.47 362.647 251.936 362.323 256.552C362.003 261.118 361.659 265.834 361.608 270.056C361.557 274.211 361.777 278.238 362.75 281.311C363.243 282.867 364 284.417 365.228 285.603C366.534 286.863 368.205 287.545 370.11 287.545V281.545ZM368.949 243.57C368.949 237.273 369.957 230.922 372.283 226.044C374.571 221.243 377.986 218.107 382.899 217.399L382.044 211.46C374.596 212.534 369.749 217.415 366.867 223.462C364.021 229.432 362.949 236.761 362.949 243.57H368.949ZM381.517 217.274C386.764 219.035 390.644 222.156 393.091 226.396C395.555 230.665 396.696 236.304 396.009 243.276L401.98 243.865C402.76 235.948 401.515 228.989 398.288 223.397C395.043 217.775 389.929 213.769 383.426 211.586L381.517 217.274Z" fill="url(#paint2_linear)" mask="url(#path-4-inside-1)"/>
<path d="M370.878 247.145C370.878 249.236 371.395 251.461 371.087 253.538C370.774 255.652 370.341 257.796 370.341 259.93C370.341 262.105 370.073 264.259 370.073 266.416C370.073 268.161 370.61 269.722 370.61 271.443" stroke="black" stroke-linecap="round" stroke-linejoin="round"/>
<path d="M370.878 275.353C374.291 274.846 376.781 270.933 377.534 267.657C378.294 264.355 379.206 260.884 379.206 257.479" stroke="black" stroke-linecap="round" stroke-linejoin="round"/>
<path d="M389.413 257.479C392.244 254.771 392.25 250.301 392.905 246.556C393.158 245.109 393.739 242.58 392.905 241.28" stroke="black" stroke-linecap="round" stroke-linejoin="round"/>
<path d="M378.668 227.874C380.763 229.19 382.619 230.338 384.19 232.219C385.141 233.357 385.068 234.758 385.652 235.974" stroke="black" stroke-linecap="round" stroke-linejoin="round"/>
<mask id="path-10-inside-2" fill="white">
<path d="M114.4 269.308C111.611 285.894 127.251 320.335 136.745 313.718C142.102 313.718 139.188 292.314 139.188 278.469C139.188 267.194 136.745 254.934 129.487 253.401C121.376 251.688 117.459 251.111 114.4 269.308Z"/>
</mask>
<path d="M114.4 269.308C111.611 285.894 127.251 320.335 136.745 313.718C142.102 313.718 139.188 292.314 139.188 278.469C139.188 267.194 136.745 254.934 129.487 253.401C121.376 251.688 117.459 251.111 114.4 269.308Z" fill="#FFDDDD"/>
<path d="M114.4 269.308L111.441 268.81L114.4 269.308ZM136.745 313.718L135.029 311.257C135.533 310.906 136.131 310.718 136.745 310.718V313.718ZM129.487 253.401L130.107 250.466L130.107 250.466L129.487 253.401ZM117.358 269.805C116.752 273.411 117.125 278.244 118.307 283.519C119.478 288.748 121.392 294.185 123.669 298.912C125.97 303.69 128.533 307.512 130.896 309.703C132.078 310.8 133.025 311.314 133.689 311.484C134.225 311.621 134.601 311.555 135.029 311.257L138.46 316.179C136.515 317.535 134.325 317.84 132.2 317.296C130.202 316.784 128.391 315.564 126.816 314.103C123.663 311.179 120.71 306.595 118.263 301.516C115.792 296.387 113.726 290.517 112.452 284.83C111.189 279.19 110.653 273.497 111.441 268.81L117.358 269.805ZM136.745 310.718C136.214 310.718 135.923 311.061 135.939 311.039C136.03 310.91 136.248 310.478 136.454 309.524C136.859 307.65 137.005 304.829 136.975 301.31C136.947 297.842 136.753 293.935 136.563 289.961C136.374 286.022 136.188 282.015 136.188 278.469H142.188C142.188 281.846 142.366 285.707 142.556 289.674C142.745 293.608 142.945 297.647 142.975 301.261C143.005 304.824 142.875 308.219 142.319 310.791C142.045 312.06 141.612 313.408 140.837 314.504C139.987 315.706 138.615 316.718 136.745 316.718V310.718ZM136.188 278.469C136.188 272.996 135.589 267.46 134.206 263.21C132.766 258.782 130.835 256.752 128.867 256.337L130.107 250.466C135.397 251.583 138.316 256.449 139.912 261.354C141.565 266.436 142.188 272.668 142.188 278.469H136.188ZM128.867 256.337C126.772 255.894 125.314 255.613 124.117 255.605C123.044 255.598 122.438 255.816 121.933 256.223C121.338 256.703 120.552 257.718 119.718 259.953C118.891 262.171 118.11 265.332 117.358 269.805L111.441 268.81C112.219 264.185 113.075 260.594 114.096 257.856C115.111 255.135 116.385 252.99 118.166 251.553C120.036 250.045 122.12 249.591 124.159 249.605C126.073 249.618 128.147 250.052 130.107 250.466L128.867 256.337Z" fill="url(#paint3_linear)" mask="url(#path-10-inside-2)"/>
<path d="M136.294 281.545C136.294 283.343 135.991 285.258 136.171 287.044C136.355 288.863 136.609 290.707 136.609 292.543C136.609 294.414 136.767 296.267 136.767 298.123C136.767 299.624 136.451 300.967 136.451 302.447" stroke="black" stroke-linecap="round" stroke-linejoin="round"/>
<path d="M136.294 305.811C134.29 305.375 132.828 302.008 132.386 299.191C131.94 296.35 131.405 293.364 131.405 290.434" stroke="black" stroke-linecap="round" stroke-linejoin="round"/>
<path d="M125.412 290.434C123.75 288.105 123.746 284.26 123.362 281.038C123.213 279.794 122.872 277.618 123.362 276.499" stroke="black" stroke-linecap="round" stroke-linejoin="round"/>
<path d="M131.72 264.967C130.491 266.099 129.401 267.086 128.478 268.704C127.92 269.684 127.963 270.889 127.62 271.935" stroke="black" stroke-linecap="round" stroke-linejoin="round"/>
<path d="M374.266 242.03L374.213 242.205L374.193 242.386C366.888 307.155 348.463 346.046 323.754 369.475C299.081 392.871 267.838 401.141 234.178 403.997C186.563 402.32 140.567 354.234 122.359 246.35C109.636 170.97 123.096 121.359 149.642 91.905C176.186 62.4546 216.233 52.6914 257.721 57.9181L257.846 57.9338H257.971C311.138 57.9338 348.087 77.5018 367.841 109.989C387.647 142.561 390.457 188.587 374.266 242.03Z" fill="#FFDDDD" stroke="black" stroke-width="4"/>
<path d="M263.902 284.858C265.035 288.017 266.109 291.013 266.931 293.681C275.027 289.156 282.511 286.222 290.306 285.378C298.089 284.535 305.983 285.795 314.898 289.333C315.191 285.305 315.751 280.868 316.324 276.325L316.348 276.141C317.113 270.081 317.904 263.783 318.199 257.694C318.801 245.284 317.261 234.842 310.495 229.159C300.757 220.981 291.926 217.708 284.003 218.448C276.095 219.187 268.468 223.986 261.269 233.316C254.549 242.025 254.936 253.751 257.838 265.751C259.275 271.692 261.284 277.522 263.186 282.857C263.426 283.53 263.666 284.198 263.902 284.858Z" fill="white" stroke="black" stroke-width="5"/>
<path d="M315.443 291.199C303.386 284.532 289.194 284.274 276.578 289.945C268.672 276.531 264.116 247.754 275.113 233.865C287.556 218.152 308.725 219.02 317.208 236.809C322.914 248.774 316.875 271.741 315.443 291.199Z" fill="#00ADB5"/>
<path d="M316.126 291.632C308.021 287.084 300.859 285.568 287.204 286.739C284.518 281.726 284.282 259.019 285.23 250.859C286.557 239.438 306.572 227.07 317.378 236.795C323.856 247.709 315.001 288.288 316.126 291.632Z" fill="black"/>
<path d="M153.775 305.574C155.124 308.619 156.403 311.506 157.417 314.09C164.829 309.037 171.804 305.593 179.261 304.194C186.707 302.797 194.426 303.477 203.293 306.328C203.243 302.312 203.412 297.874 203.586 293.329L203.593 293.146C203.826 287.052 204.064 280.716 203.84 274.622C203.616 268.52 202.931 262.802 201.379 257.944C199.832 253.101 197.473 249.263 193.994 246.696C183.893 239.243 175.113 236.64 167.574 237.936C160.049 239.23 153.096 244.524 146.914 254.343C141.141 263.511 142.498 275.194 146.311 286.959C148.198 292.781 150.629 298.451 152.915 303.632C153.203 304.285 153.491 304.933 153.775 305.574Z" fill="white" stroke="black" stroke-width="5"/>
<path d="M204.074 308.187C191.883 302.414 178.168 303.173 166.468 309.72C157.719 296.935 150.918 268.62 160.369 254.01C171.062 237.48 191.56 236.829 201.233 253.927C207.738 265.427 203.83 288.718 204.074 308.187Z" fill="#00ADB5"/>
<path d="M204.588 308.434C196.405 304.492 189.383 303.496 176.334 305.634C173.329 300.844 171.205 278.294 171.437 270.116C171.761 258.671 189.999 244.951 201.214 253.844C208.363 264.23 203.226 305.19 204.588 308.434Z" fill="black"/>
<path d="M265.155 333.612C265.543 334.409 265.848 335.362 266.097 336.514C266.488 338.322 266.694 340.351 266.939 342.757C267.018 343.536 267.101 344.356 267.196 345.219C267.38 351.656 265.602 356.28 261.748 358.614C257.813 359.062 255.026 357.089 253.585 354.061C252.102 350.944 252.101 346.741 254.105 343.118C255.025 342.5 255.809 341.981 256.49 341.53C258.484 340.21 259.588 339.479 260.598 338.568C261.333 337.905 262.023 337.15 262.963 336.091C263.215 335.807 263.488 335.498 263.789 335.156C264.189 334.703 264.638 334.194 265.155 333.612Z" fill="#D23333" stroke="black" stroke-width="5"/>
<path d="M265.262 333.84C265.6 334.589 265.871 335.47 266.097 336.514C266.488 338.322 266.695 340.352 266.94 342.758C267.019 343.537 267.102 344.356 267.197 345.22C267.383 351.693 265.426 356.476 261.724 358.642C258.672 359.153 255.394 357.444 252.396 354.122C249.997 351.464 248.145 348.15 247.147 345.313C250.688 344.18 253.802 343.115 256.723 341.412C259.677 339.691 262.362 337.372 265.262 333.84Z" fill="#E4ADAD" stroke="black" stroke-width="5"/>
<path d="M257.19 211.286L260.55 205.124L264.369 200.824L267.945 197.326L272.468 193.82L277.449 192.443L282.66 191.863L288.578 191.811L294.014 192.83L297.558 193.599L301.337 194.633L304.88 195.668L311.012 198.547L315.014 201.446L319.487 204.606L324.183 209.631L330.728 220.507" stroke="black" stroke-width="5"/>
<path d="M134.286 250.767L135.198 244.422L137.223 236.85C137.916 234.259 138.81 231.723 139.895 229.268L140.52 227.854L145.609 221.809L150.814 216.596L158.678 213.762L167.524 210.384L177.996 209.562L189.205 214.051L201.706 223.985" stroke="black" stroke-width="4"/>
<path d="M173.584 151.896C152.142 160.062 131.795 172.876 106.262 191.683C121.615 135.822 133.527 98.523 152.107 75.0115C170.978 51.131 196.871 41.3419 241.174 41.3419C272.666 41.3419 307.649 48.4842 335.519 69.9193C363.33 91.3085 384.263 127.086 387.433 184.794C387.428 190.106 386.278 192.92 384.66 194.273C383.072 195.6 380.546 195.916 376.719 194.945C372.934 193.986 368.268 191.862 362.831 188.91C357.41 185.968 351.321 182.259 344.699 178.185C343.954 177.726 343.203 177.264 342.446 176.797C329.758 168.984 315.292 160.074 300.232 152.984C284.28 145.473 267.525 139.934 251.359 139.934C219.557 139.934 196.019 143.353 173.584 151.896Z" fill="url(#paint4_linear)" stroke="url(#paint5_linear)" stroke-width="3"/>
<path d="M280.282 111.675C285.787 117.679 292.76 123.485 300.428 129.87C302.546 131.634 304.717 133.441 306.925 135.309C317.265 144.059 328.285 154.043 337.956 166.771C356.699 191.438 370.237 226.231 364.52 282.072C387.313 248.201 393.331 218.975 392.871 195.822C392.46 175.146 386.896 159.268 383.299 149.004C382.667 147.199 382.096 145.568 381.624 144.115C374.924 123.49 369.61 113.121 364.817 106.721C362.428 103.531 360.146 101.298 357.828 99.2497C357.091 98.5985 356.335 97.9532 355.564 97.2952C354.078 96.0276 352.538 94.7133 350.977 93.2207C349.759 93.1765 347.966 93.0203 345.809 92.8267C345.554 92.8038 345.292 92.7802 345.025 92.7561C342.578 92.5357 339.651 92.272 336.402 92.0391C329.192 91.5223 320.445 91.1616 311.996 91.7647C303.515 92.3702 295.496 93.9376 289.642 97.1681C284.035 100.262 280.47 104.83 280.282 111.675Z" fill="url(#paint6_linear)" stroke="url(#paint7_linear)" stroke-width="3"/>
<path d="M321.146 171.462L321.262 171.559L321.356 171.678C340.779 196.122 341.506 225.756 341.531 265.435C349.858 250.612 356.997 237.509 361.314 225.585C366.099 212.366 367.327 200.829 363.016 190.181C355.862 172.512 349.845 164.163 344.862 159.287C342.365 156.844 340.094 155.239 337.954 153.729L337.882 153.679C335.843 152.242 333.859 150.842 332.057 148.89C323.513 143.986 314.315 139.585 306.36 136.607C302.35 135.105 298.685 133.976 295.597 133.322C292.463 132.658 290.093 132.522 288.586 132.856C287.852 133.019 287.45 133.265 287.238 133.491C287.054 133.687 286.905 133.979 286.908 134.517C286.915 135.739 287.711 137.848 290.026 141.094C294.579 147.481 304.261 157.277 321.146 171.462Z" fill="url(#paint8_linear)" stroke="url(#paint9_linear)" stroke-width="3"/>
<path d="M295.939 152.123C291.534 156.401 287.661 163.484 287.41 174.8C298.797 177.876 306.513 188.448 311.407 202.973C316.023 216.672 318.258 234.231 318.628 253.371C334.908 222.383 338.28 199.145 334.116 185.687C327.932 165.7 319.051 157.18 312.139 150.549C310.564 149.037 309.091 147.624 307.776 146.196C305.014 146.412 300.2 147.985 295.939 152.123Z" fill="url(#paint10_linear)" stroke="url(#paint11_linear)" stroke-width="3"/>
<path d="M246.632 142.186C253.778 149.679 266.759 163.933 277.112 179.542C282.458 187.602 287.14 196.078 289.946 204.213C291.894 209.862 292.967 215.432 292.67 220.622C299.949 209.222 302.011 195.628 301.71 183.365C301.363 169.197 297.867 157.063 295.914 152.651C292.462 144.853 289.301 140.763 286.492 138.099C285.077 136.756 283.725 135.75 282.392 134.783C282.272 134.696 282.153 134.61 282.033 134.523C280.919 133.717 279.789 132.899 278.713 131.938C263.528 127.256 251.121 132.639 246.632 142.186Z" fill="url(#paint12_linear)" stroke="url(#paint13_linear)" stroke-width="3"/>
<path d="M223.745 135.371C238.781 155.74 259.076 185.491 261.21 219.95C273.67 194.553 273.896 180.503 270.558 169.06C267.348 158.053 265.74 152.972 264.265 149.807C263.075 147.252 262.004 145.996 260.041 143.694C259.754 143.358 259.448 142.998 259.119 142.61C258.782 142.537 258.449 142.428 258.141 142.313C257.559 142.096 256.902 141.793 256.197 141.439C254.789 140.731 253.072 139.753 251.199 138.676C250.948 138.532 250.695 138.386 250.439 138.239C246.825 136.158 242.647 133.752 238.612 131.922C236.455 130.943 234.379 130.147 232.486 129.656C230.58 129.161 228.957 129.001 227.668 129.204C226.428 129.399 225.523 129.921 224.89 130.836C224.267 131.735 223.804 133.16 223.745 135.371Z" fill="url(#paint14_linear)" stroke="url(#paint15_linear)" stroke-width="3"/>
<path d="M219.53 98.24C226.346 101.386 230.526 105.961 230.779 112.633C224.188 118.643 215.839 124.458 206.674 130.842C204.142 132.606 201.548 134.413 198.911 136.279C186.55 145.03 173.379 155.011 161.819 167.739C139.302 192.529 123.03 227.592 130.114 283.987C102.265 249.722 94.9662 220.21 95.5196 196.915C96.01 176.273 102.647 160.425 106.95 150.151C107.708 148.343 108.393 146.707 108.959 145.248C116.968 124.624 123.318 114.257 129.052 107.852C131.915 104.655 134.652 102.413 137.434 100.357C138.321 99.7005 139.229 99.0525 140.153 98.393C141.96 97.1035 143.828 95.7701 145.725 94.2468C147.157 94.2116 149.354 94.0521 152.059 93.849C152.364 93.826 152.677 93.8024 152.996 93.7784C155.924 93.5577 159.429 93.2935 163.32 93.0603C171.956 92.5425 182.447 92.1799 192.591 92.7857C202.767 93.3933 212.444 94.9688 219.53 98.24Z" fill="url(#paint16_linear)" stroke="url(#paint17_linear)" stroke-width="3"/>
<path d="M175.082 162.393C179.737 164.759 181.945 170.587 181.209 177.451C166.508 191.156 158.195 201.204 155.433 213.541C152.929 224.729 155.044 237.578 160.476 256.389C155.3 250.6 148.673 242.694 143.355 233.816C136.315 222.066 131.78 208.965 135.498 196.974C136.003 195.346 136.451 193.682 136.905 191.992C137.753 188.841 138.625 185.603 139.932 182.352C141.893 177.472 144.737 172.89 149.662 169.418C161.989 160.728 170.274 159.948 175.082 162.393Z" fill="url(#paint18_linear)" stroke="url(#paint19_linear)" stroke-width="3"/>
<path d="M198.703 154.582C193.719 162.865 184.975 178.22 179.085 193.95C176.017 202.144 173.694 210.515 173.109 218.085C172.71 223.251 173.114 228.141 174.72 232.362C164.652 225.031 159.095 214.41 156.174 204.233C152.798 192.476 153 181.508 153.723 177.362C155.012 169.976 156.987 165.731 158.995 162.753C160.009 161.248 161.052 160.036 162.091 158.857C162.184 158.751 162.278 158.645 162.371 158.539C163.237 157.559 164.119 156.56 164.912 155.458C178.387 147.277 191.81 148.157 198.703 154.582Z" fill="url(#paint20_linear)" stroke="url(#paint21_linear)" stroke-width="3"/>
<path d="M237.574 128.888C220.622 149.784 197.682 180.385 195.501 215.84C181.19 189.523 180.917 175.074 184.68 163.336C188.283 152.098 190.085 146.917 191.738 143.689C193.074 141.08 194.278 139.796 196.482 137.444C196.815 137.089 197.172 136.708 197.555 136.296C197.936 136.226 198.324 136.113 198.694 135.987C199.334 135.771 200.062 135.466 200.849 135.106C202.421 134.386 204.343 133.391 206.446 132.291C206.727 132.144 207.012 131.995 207.3 131.844C211.353 129.72 216.05 127.26 220.588 125.386C225.524 123.349 229.95 122.149 233.04 122.592C234.513 122.803 235.574 123.371 236.298 124.322C236.993 125.235 237.505 126.668 237.574 128.888Z" fill="url(#paint22_linear)" stroke="url(#paint23_linear)" stroke-width="3"/>
<path d="M245.493 79.0263C245.493 79.0263 214.039 71.1779 203.024 71.4932C192.009 71.8085 167.914 74.5472 167.914 74.5472" stroke="black" stroke-width="2"/>
<path d="M245.493 79.0263C245.493 79.0263 214.039 71.1779 203.024 71.4932C192.009 71.8085 167.914 74.5472 167.914 74.5472" stroke="black" stroke-width="2"/>
<path d="M360.188 122.273C360.188 122.273 336.934 89.9771 308.172 79.288C279.411 68.599 245.264 79.288 245.264 79.288" stroke="black" stroke-width="2"/>
<path d="M331.182 158.667C331.182 158.667 311.695 139.735 288.026 133.132C264.358 126.529 236.604 132.125 236.604 132.125" stroke="black" stroke-width="2"/>
<path d="M364.536 159.96C364.536 159.96 338.816 127.502 307.178 116.624C275.54 105.746 238.117 116.22 238.117 116.22" stroke="black" stroke-width="2"/>
<path d="M344.4 122.273C344.4 122.273 323.747 102.904 298.699 96.107C273.651 89.3099 244.311 94.9529 244.311 94.9529" stroke="black" stroke-width="2"/>
<path d="M125.69 162.866C125.69 162.866 104.76 182.846 110.636 209.058C116.512 235.271 129.729 283.754 129.729 283.754" stroke="black" stroke-width="2"/>
<path d="M222.529 133.035C222.529 133.035 184.851 123.358 172.198 123.8C159.544 124.243 131.075 141.616 131.075 141.616" stroke="black" stroke-width="2"/>
<path d="M222.745 113.875C222.745 113.875 187.511 103.22 176.237 105.349C164.962 107.478 147.475 113.875 147.475 113.875" stroke="black" stroke-width="2"/>
<path d="M231.998 95.3144C231.998 95.3144 200.695 87.466 189.733 87.7813C178.772 88.0965 154.793 90.8353 154.793 90.8353" stroke="black" stroke-width="2"/>
<path d="M369.122 135.126C369.122 135.126 387.175 194.64 380.539 220.708C373.904 246.776 362.88 283.754 362.88 283.754" stroke="black" stroke-width="2"/>
<path d="M192.025 141.616C192.025 141.616 159.836 159.303 159.836 185.644C159.836 211.985 174.89 232.981 174.89 232.981" stroke="black" stroke-width="2"/>
<path d="M241.225 143.015C241.225 143.015 255.629 147.552 260.953 173.555C266.277 199.558 260.953 222.129 260.953 222.129" stroke="black" stroke-width="2"/>
<path d="M341.451 171.392C341.451 171.392 345.25 182.626 352.6 208.422C359.949 234.218 341.451 266.906 341.451 266.906" stroke="black" stroke-width="2"/>
<path d="M209.771 143.015C209.771 143.015 195.695 145.998 192.025 172.919C188.355 199.841 197.797 220.2 197.797 220.2" stroke="black" stroke-width="2"/>
<path d="M254.199 140.216C254.199 140.216 295.199 143.779 312.334 167.193C329.468 190.607 319.541 249.915 319.541 249.915" stroke="black" stroke-width="2"/>
<path d="M102.966 245.592C102.966 245.592 99.0079 332.109 125.198 386.424M112.716 263.903C112.716 263.903 111.738 336.075 137.928 390.39M129.116 310.731C129.116 310.731 125.2 338.473 151.389 392.788M144.782 328.546C144.782 328.546 138.42 339.638 164.609 393.953M164.609 366.213C164.609 366.213 168.771 381.101 174.644 394.316" stroke="black"/>
<path d="M373.407 363.27C394.213 308.695 394.213 197.08 394.213 197.08" stroke="black"/>
<path d="M362.024 368.121C377.934 333.509 377.934 280.955 377.934 280.955" stroke="black"/>
<path d="M351.009 371.968C366.919 337.356 367.042 293.68 367.042 293.68M329.223 376.902C336.934 366.213 336.934 356.287 336.934 356.287M341.217 374.513C351.009 352.724 351.009 332.11 351.009 332.11" stroke="black"/>
<path d="M323.147 66.6185C319.042 71.2221 315.102 75.6185 311.459 78.5643C329.106 87.4335 348.813 104.03 359.322 123.453C368.422 111.663 373.41 97.0491 375.986 87.6621C377.408 82.4769 378.935 75.9194 379.83 69.5182C380.698 63.3058 380.933 57.4876 380.055 53.2482C372.724 44.2258 365.899 40.9355 359.595 40.8344C353.057 40.7295 346.664 44.0398 340.457 49.0716C334.442 53.9477 328.823 60.251 323.601 66.1086C323.449 66.279 323.298 66.4489 323.147 66.6185Z" fill="#C4C4C4" stroke="black" stroke-width="4"/>
<path d="M348.595 86.9692C346.362 91.6722 344.052 96.324 341.343 100.271C346.012 105.314 348.923 108.472 351.489 111.833C353.932 115.033 356.045 118.392 359.094 123.687C368.25 111.876 373.262 97.1985 375.846 87.781C377.27 82.5908 378.77 76.2182 379.638 70.004C380.402 64.5349 380.648 59.3774 380.028 55.3074C368.695 55.3116 361.898 62.1571 356.438 71.3791C354.012 75.4778 351.9 79.9611 349.777 84.4661C349.384 85.3005 348.991 86.1356 348.595 86.9692Z" fill="#FFDDDD" stroke="black" stroke-width="4"/>
<path d="M344.474 106.644C347.832 105.418 351.325 103.714 354.935 101.842C354.827 105.125 353.708 108.224 352.221 110.733C351.493 111.963 350.689 113.027 349.903 113.879C348.142 114.191 346.459 114.28 344.843 114.103L344.333 114.047L343.895 114.329C343.397 114.651 342.947 115.038 342.611 115.508C342.53 115.435 342.451 115.358 342.364 115.274C342.222 115.138 342.06 114.983 341.84 114.788C341.453 114.445 340.948 114.057 340.273 113.833C340.243 113.807 340.215 113.784 340.191 113.763C340.021 113.622 339.828 113.485 339.636 113.358C339.254 113.104 338.772 112.818 338.275 112.526C338.211 112.488 338.146 112.45 338.081 112.412C337.105 111.839 336.027 111.206 335.096 110.533C334.036 109.766 333.464 109.15 333.301 108.758C333.288 108.726 333.281 108.704 333.277 108.689C333.292 108.666 333.323 108.623 333.383 108.563C336.985 108.837 340.691 108.025 344.474 106.644ZM347.763 118.977C348.929 118.658 350.171 117.789 351.308 116.696C352.91 116.354 354.529 115.863 356.162 115.267C359.519 114.041 363.013 112.338 366.623 110.466C366.515 113.749 365.395 116.848 363.908 119.357C363.003 120.886 361.981 122.159 361.019 123.088C360.024 124.048 359.209 124.527 358.733 124.658C357.438 125.013 356.573 125.052 355.982 124.973C355.416 124.897 355.033 124.704 354.703 124.463C354.44 124.272 354.27 124.108 354.051 123.898C353.909 123.762 353.747 123.606 353.527 123.411C353.14 123.068 352.636 122.68 351.96 122.457C351.93 122.431 351.903 122.408 351.878 122.387C351.708 122.246 351.515 122.109 351.323 121.982C350.941 121.727 350.459 121.442 349.963 121.15C349.898 121.112 349.833 121.074 349.768 121.036C348.813 120.475 347.761 119.857 346.844 119.2C347.139 119.139 347.446 119.065 347.763 118.977ZM333.273 108.665C333.273 108.666 333.274 108.668 333.274 108.674C333.273 108.668 333.273 108.665 333.273 108.665Z" fill="url(#paint24_linear)" stroke="url(#paint25_linear)" stroke-width="3"/>
<path d="M149.883 65.3278C155.585 68.7644 161.048 72.0383 165.805 73.9839C148.653 86.946 131.203 108.022 124.791 129.528C111.634 120.375 102.296 107.393 97.0064 98.9136C94.0999 94.2547 90.724 88.2966 88.0821 82.3345C85.5148 76.5406 83.7477 70.9757 83.6154 66.6631C89.3491 56.0563 96.0622 51.0963 103.077 49.4107C110.299 47.6753 118.214 49.3165 126.324 52.6425C134.194 55.8701 141.999 60.575 149.25 64.9465C149.462 65.0739 149.672 65.201 149.883 65.3278Z" fill="#C4C4C4" stroke="black" stroke-width="4"/>
<path d="M127.222 91.2855C130.886 95.2699 134.622 99.1892 138.612 102.334C134.78 108.39 132.406 112.159 130.463 116.041C128.585 119.795 127.122 123.627 125.092 129.69C111.873 120.533 102.496 107.499 97.1905 98.9941C94.281 94.3304 90.9829 88.5444 88.4189 82.7567C86.1342 77.5996 84.5159 72.6227 84.1671 68.5101C96.8323 65.5688 106.16 70.5707 114.569 78.1569C118.295 81.5172 121.774 85.3263 125.274 89.1571C125.922 89.8667 126.571 90.5771 127.222 91.2855Z" fill="#FFDDDD" stroke="black" stroke-width="4"/>
<path d="M139.011 106.96C135.425 106.128 131.677 104.774 127.805 103.255C127.974 107.082 129.309 110.491 131.002 113.105C131.788 114.318 132.64 115.341 133.465 116.141C135.272 116.199 136.994 116.029 138.643 115.582L139.189 115.433L139.698 115.699C140.22 115.971 140.692 116.317 141.06 116.756C141.166 116.634 141.267 116.511 141.378 116.376C141.519 116.203 141.675 116.013 141.875 115.785C142.249 115.36 142.738 114.868 143.417 114.53C143.458 114.483 143.497 114.44 143.531 114.403C143.69 114.232 143.875 114.059 144.065 113.891C144.443 113.557 144.923 113.17 145.426 112.769C145.491 112.716 145.558 112.663 145.625 112.61C146.608 111.826 147.706 110.95 148.651 110.051C149.71 109.043 150.35 108.212 150.54 107.64C150.579 107.522 150.586 107.45 150.586 107.418C150.586 107.402 150.585 107.395 150.585 107.394C150.584 107.393 150.584 107.392 150.582 107.39C150.581 107.387 150.578 107.382 150.573 107.375C150.566 107.365 150.554 107.349 150.533 107.328C146.837 108.187 142.978 107.881 139.011 106.96ZM136.121 121.07C134.877 120.899 133.544 120.132 132.326 119.117C130.667 118.992 128.984 118.71 127.28 118.314C123.695 117.482 119.947 116.128 116.074 114.609C116.243 118.436 117.578 121.846 119.271 124.459C120.267 125.995 121.367 127.226 122.386 128.085C123.443 128.977 124.274 129.352 124.73 129.414C126.067 129.598 126.957 129.506 127.571 129.323C128.168 129.145 128.586 128.857 128.951 128.507C129.228 128.242 129.417 128.01 129.647 127.73C129.788 127.558 129.944 127.367 130.145 127.14C130.519 126.714 131.007 126.223 131.687 125.884C131.727 125.837 131.766 125.794 131.801 125.757C131.96 125.586 132.145 125.413 132.334 125.245C132.712 124.911 133.193 124.524 133.695 124.123C133.761 124.071 133.827 124.018 133.894 123.964C134.877 123.18 135.975 122.304 136.92 121.405C137.002 121.327 137.081 121.251 137.158 121.175C136.827 121.154 136.482 121.12 136.121 121.07Z" fill="url(#paint26_linear)" stroke="url(#paint27_linear)" stroke-width="3"/>
<path d="M248.242 313.586V313.886L248.33 314.173C248.468 314.622 248.431 314.991 248.247 315.365C248.04 315.784 247.584 316.322 246.69 316.896C244.893 318.049 241.762 319.064 237.189 319.574C234.658 319.567 232.503 319.294 231.028 318.556C230.319 318.201 229.821 317.765 229.491 317.239C229.161 316.714 228.915 315.968 228.915 314.859C228.915 312.542 230.191 309.167 232.004 305.427C232.88 303.619 233.832 301.82 234.732 300.12L234.743 300.099L234.746 300.094C235.333 298.985 235.903 297.908 236.404 296.913C236.977 297.184 237.706 297.648 238.576 298.378C240.07 299.63 241.67 301.399 243.147 303.372C244.62 305.34 245.925 307.447 246.852 309.34C247.818 311.312 248.242 312.79 248.242 313.586Z" stroke="url(#paint28_linear)" stroke-width="4"/>
<path d="M171.159 400.086L171.183 400.171L171.235 400.242C171.394 400.462 171.435 400.602 171.441 400.674C171.445 400.725 171.435 400.761 171.389 400.811C171.329 400.877 171.208 400.962 170.988 401.047C170.773 401.131 170.495 401.202 170.157 401.261C168.785 401.497 166.698 401.474 164.59 401.422C164.34 401.416 164.089 401.409 163.84 401.403C162.027 401.355 160.269 401.308 159.138 401.438C158.813 401.476 158.512 401.53 158.266 401.614C158.04 401.69 157.755 401.825 157.598 402.093C157.453 402.342 157.472 402.596 157.558 402.81C156.977 402.832 156.176 402.863 155.197 402.903C153.061 402.99 150.079 403.123 146.694 403.301C139.927 403.657 131.539 404.197 125.084 404.933C118.803 405.649 113.791 404.464 110.039 402.168C106.286 399.871 103.761 396.442 102.482 392.617C99.9186 384.951 102.364 375.733 109.911 370.888C122.894 362.55 136.806 364.999 148.212 371.992C159.636 378.997 168.449 390.507 171.159 400.086Z" fill="#A21AE2" stroke="url(#paint29_linear)"/>
<path d="M143.769 430.963C142.79 439.544 143.822 449.206 149.67 457.666H149.621H149.56H149.5H149.44H149.38H149.32H149.26H149.199H149.139H149.079H149.018H148.958H148.898H148.837H148.777H148.717H148.656H148.596H148.535H148.475H148.414H148.354H148.293H148.233H148.172H148.111H148.051H147.99H147.929H147.869H147.808H147.747H147.686H147.626H147.565H147.504H147.443H147.382H147.321H147.26H147.199H147.138H147.077H147.016H146.955H146.894H146.833H146.771H146.71H146.649H146.588H146.526H146.465H146.404H146.342H146.281H146.219H146.158H146.096H146.035H145.973H145.911H145.85H145.788H145.726H145.665H145.603H145.541H145.479H145.417H145.355H145.293H145.231H145.169H145.107H145.045H144.983H144.921H144.859H144.796H144.734H144.672H144.609H144.547H144.484H144.422H144.359H144.297H144.234H144.172H144.109H144.046H143.983H143.921H143.858H143.795H143.732H143.669H143.606H143.543H143.48H143.417H143.354H143.29H143.227H143.164H143.101H143.037H142.974H142.91H142.847H142.783H142.719H142.656H142.592H142.528H142.465H142.401H142.337H142.273H142.209H142.145H142.081H142.017H141.952H141.888H141.824H141.76H141.695H141.631H141.566H141.502H141.437H141.373H141.308H141.243H141.178H141.114H141.049H140.984H140.919H140.854H140.789H140.724H140.658H140.593H140.528H140.462H140.397H140.332H140.266H140.2H140.135H140.069H140.003H139.938H139.872H139.806H139.74H139.674H139.608H139.542H139.475H139.409H139.343H139.276H139.21H139.143H139.077H139.01H138.944H138.877H138.81H138.743H138.676H138.609H138.542H138.475H138.408H138.341H138.274H138.206H138.139H138.071H138.004H137.936H137.868H137.801H137.733H137.665H137.597H137.529H137.461H137.393H137.325H137.257H137.188H137.12H137.051H136.983H136.914H136.846H136.777H136.708H136.639H136.57H136.501H136.432H136.363H136.294H136.225H136.155H136.086H136.016H135.947H135.877H135.807H135.738H135.668H135.598H135.528H135.458H135.388H135.317H135.247H135.177H135.106H135.036H134.965H134.895H134.824H134.753H134.682H134.611H134.54H134.469H134.398H134.327H134.255H134.184H134.112H134.041H133.969H133.897H133.826H133.754H133.682H133.61H133.538H133.465H133.393H133.321H133.248H133.176H133.103H133.03H132.958H132.885H132.812H132.739H132.666H132.593H132.519H132.446H132.373H132.299H132.225H132.152H132.078H132.004H131.93H131.856H131.782H131.708H131.633H131.559H131.485H131.41H131.335H131.261H131.186H131.111H131.036H130.961H130.886H130.811H130.735H130.66H130.584H130.509H130.433H130.357H130.281H130.205H130.129H130.053H129.977H129.901H129.824H129.748H129.671H129.594H129.517H129.441H129.364H129.286H129.209H129.132H129.055H128.977H128.9H128.822H128.744H128.666H128.588H128.51H128.432H128.354H128.276H128.197H128.119H128.04H127.961H127.883H127.804H127.725H127.645H127.566H127.487H127.408H127.328H127.248H127.169H127.089H127.009H126.929H126.849H126.769H126.688H126.608H126.527H126.447H126.366H126.285H126.204H126.123H126.042H125.961H125.879H125.798H125.716H125.634H125.553H125.471H125.389H125.307H125.224H125.142H125.06H124.977H124.895H124.812H124.729H124.646H124.563H124.48H124.396H124.313H124.229H124.146H124.062H123.978H123.894H123.81H123.726H123.642H123.557H123.473H123.388H123.303H123.219H123.134H123.048H122.963H122.878H122.793H122.707H122.621H122.536H122.45H122.364H122.278H122.191H122.105H122.019H121.932H121.845H121.758H121.671H121.584H121.497H121.41H121.323H121.235H121.147H121.06H120.972H120.884H120.796H120.707H120.619H120.53H120.442H120.353H120.264H120.175H120.086H119.997H119.908H119.818H119.729H119.639H119.549H119.459H119.369H119.279H119.189H119.098H119.007H118.917H118.826H118.735H118.644H118.553H118.461H118.37H118.278H118.187H118.095H118.003H117.911H117.818H117.726H117.634H117.541H117.448H117.355H117.262H117.169H117.076H116.983H116.889H116.795H116.702H116.608H116.514H116.419H116.325H116.231H116.136H116.041H115.947H115.852H115.756H115.661H115.566H115.47H115.375H115.279H115.183H115.087H114.991H114.894H114.798H114.701H114.604H114.508H114.411H114.313H114.216H114.119H114.021H113.923H113.83C129.951 440.87 128.612 422.506 125.244 405.081C127.716 404.939 130.182 403.953 132.521 402.866C133.148 402.574 133.765 402.276 134.371 401.983C136.251 401.075 138.033 400.213 139.733 399.734C141.946 399.109 143.886 399.173 145.583 400.602C147.308 402.053 148.873 404.98 150.111 410.341C147.845 414.574 144.764 422.23 143.769 430.963Z" fill="#A21AE2" stroke="url(#paint30_linear)"/>
<path d="M168.889 400.463L169.18 400.632L169.446 400.427C180.163 392.147 187.846 390.532 192.779 392.362C197.683 394.181 200.14 399.519 200.14 405.845C200.14 408.985 199.281 413.6 197.808 418.782C196.338 423.954 194.268 429.655 191.872 434.955C189.474 440.258 186.759 445.14 184.003 448.687C182.625 450.461 181.25 451.885 179.913 452.862C178.574 453.84 177.309 454.344 176.14 454.344C175.366 454.344 174.3 454.064 172.994 453.51C171.699 452.96 170.211 452.16 168.608 451.163C165.402 449.169 161.768 446.41 158.348 443.363C154.927 440.315 151.734 436.992 149.4 433.873C148.233 432.314 147.289 430.815 146.637 429.435C145.984 428.051 145.64 426.816 145.64 425.777C145.64 423.081 144.95 419.386 144.222 415.487C144.066 414.657 143.91 413.817 143.757 412.977C142.88 408.133 142.148 403.212 142.636 399.432C142.88 397.548 143.421 396.001 144.351 394.893C145.269 393.801 146.606 393.087 148.554 392.936C150.519 392.783 153.1 393.205 156.457 394.405C159.809 395.603 163.905 397.566 168.889 400.463Z" fill="#A21AE2" stroke="url(#paint31_linear)"/>
<path d="M215.139 422L215.192 422.012H215.247C224.297 422.012 231.058 423.941 235.542 427.122C240.009 430.29 242.247 434.718 242.247 439.828C242.247 442.303 241.098 444.662 239.151 446.789C237.203 448.915 234.482 450.78 231.415 452.247C225.264 455.191 217.861 456.473 212.762 455.19C207.532 453.874 202.483 452.066 198.75 449.31C195.037 446.569 192.64 442.904 192.64 437.819C192.64 433.749 192.828 430.459 193.411 427.875C193.992 425.296 194.955 423.472 196.465 422.271C197.977 421.068 200.113 420.432 203.161 420.387C206.212 420.342 210.125 420.889 215.139 422Z" fill="#A21AE2" stroke="url(#paint32_linear)"/>
<path d="M213.086 395.27C211.296 405.114 212.333 414.738 216.483 421.123C215.077 422.375 214.177 423.278 213.563 423.895C213.34 424.118 213.155 424.304 212.997 424.455C212.672 424.766 212.497 424.894 212.357 424.952C212.246 424.999 212.119 425.016 211.842 424.972C211.641 424.939 211.409 424.884 211.092 424.809C210.932 424.771 210.749 424.727 210.539 424.679C209.932 424.541 209.139 424.376 208.069 424.218C205.931 423.902 202.699 423.616 197.64 423.616C187.603 423.616 180.887 421.748 176.671 417.828C172.484 413.934 170.656 407.911 170.64 399.31C171.763 396.903 174.865 393.06 179.195 388.786C183.566 384.471 189.136 379.767 195.047 375.737C200.962 371.703 207.193 368.361 212.886 366.747C218.351 365.197 223.225 365.263 226.871 367.708C219.528 375.228 214.88 385.406 213.086 395.27Z" fill="#A21AE2" stroke="url(#paint33_linear)"/>
<path d="M266.64 382.59C266.64 391.854 257.341 399.531 245.64 399.531C233.94 399.531 224.64 391.854 224.64 382.59C224.64 373.327 233.94 365.65 245.64 365.65C257.341 365.65 266.64 373.327 266.64 382.59Z" fill="#D23333"/>
<path d="M266.64 382.59C266.64 391.854 257.341 399.531 245.64 399.531C233.94 399.531 224.64 391.854 224.64 382.59C224.64 373.327 233.94 365.65 245.64 365.65C257.341 365.65 266.64 373.327 266.64 382.59Z" stroke="url(#paint34_linear)"/>
<path d="M266.64 382.59C266.64 391.854 257.341 399.531 245.64 399.531C233.94 399.531 224.64 391.854 224.64 382.59C224.64 373.327 233.94 365.65 245.64 365.65C257.341 365.65 266.64 373.327 266.64 382.59Z" stroke="url(#paint35_linear)"/>
<path d="M308.116 366.535C313.702 365.697 318.287 365.01 329.639 364.034C329.606 369.352 329.086 373.396 327.428 377.427C325.723 381.571 322.799 385.739 317.88 391.267C305.258 393.681 298.396 394.487 288.395 391.437C291.187 386.726 292.515 383.467 293.132 380.138C293.673 377.218 293.661 374.257 293.646 370.261C293.644 369.696 293.641 369.11 293.641 368.501C300.357 367.698 304.452 367.084 308.116 366.535Z" fill="#D23333" stroke="url(#paint36_linear)"/>
<path d="M297.13 394.33C297.626 394.427 298.127 394.526 298.633 394.626C298.528 397.688 297.235 399.887 295.171 401.683C292.989 403.581 289.953 405.019 286.524 406.497C285.939 406.749 285.344 407.002 284.74 407.258C278.398 409.95 271.168 413.02 266.406 419.438C264.11 419.17 261.928 417.899 259.763 415.899C257.513 413.82 255.326 410.994 253.093 407.811C251.978 406.221 250.852 404.542 249.703 402.828C246.316 397.777 242.729 392.428 238.642 388.202C238.683 384.99 239.712 382.853 241.332 381.416C243.006 379.931 245.372 379.136 248.127 378.756C250.878 378.377 253.958 378.419 257.01 378.56C257.975 378.604 258.941 378.659 259.891 378.712C261.844 378.822 263.735 378.929 265.433 378.937C271.414 384.909 276.678 388.235 282.017 390.373C286.826 392.3 291.687 393.258 297.13 394.33Z" fill="#D23333"/>
<path d="M297.13 394.33C297.626 394.427 298.127 394.526 298.633 394.626C298.528 397.688 297.235 399.887 295.171 401.683C292.989 403.581 289.953 405.019 286.524 406.497C285.939 406.749 285.344 407.002 284.74 407.258C278.398 409.95 271.168 413.02 266.406 419.438C264.11 419.17 261.928 417.899 259.763 415.899C257.513 413.82 255.326 410.994 253.093 407.811C251.978 406.221 250.852 404.542 249.703 402.828C246.316 397.777 242.729 392.428 238.642 388.202C238.683 384.99 239.712 382.853 241.332 381.416C243.006 379.931 245.372 379.136 248.127 378.756C250.878 378.377 253.958 378.419 257.01 378.56C257.975 378.604 258.941 378.659 259.891 378.712C261.844 378.822 263.735 378.929 265.433 378.937C271.414 384.909 276.678 388.235 282.017 390.373C286.826 392.3 291.687 393.258 297.13 394.33Z" stroke="url(#paint37_linear)"/>
<path d="M297.13 394.33C297.626 394.427 298.127 394.526 298.633 394.626C298.528 397.688 297.235 399.887 295.171 401.683C292.989 403.581 289.953 405.019 286.524 406.497C285.939 406.749 285.344 407.002 284.74 407.258C278.398 409.95 271.168 413.02 266.406 419.438C264.11 419.17 261.928 417.899 259.763 415.899C257.513 413.82 255.326 410.994 253.093 407.811C251.978 406.221 250.852 404.542 249.703 402.828C246.316 397.777 242.729 392.428 238.642 388.202C238.683 384.99 239.712 382.853 241.332 381.416C243.006 379.931 245.372 379.136 248.127 378.756C250.878 378.377 253.958 378.419 257.01 378.56C257.975 378.604 258.941 378.659 259.891 378.712C261.844 378.822 263.735 378.929 265.433 378.937C271.414 384.909 276.678 388.235 282.017 390.373C286.826 392.3 291.687 393.258 297.13 394.33Z" stroke="url(#paint38_linear)"/>
<path d="M300.944 444.803C301.699 447.358 302.463 449.946 303.041 452.742C290.863 453.976 286.117 454.449 281.398 455.122C276.91 455.761 272.447 456.581 261.636 458.406C261.589 455.208 261.171 451.937 260.752 448.665C260.665 447.979 260.577 447.294 260.493 446.609C259.98 442.434 259.589 438.263 260.046 434.138C260.502 430.024 261.802 425.956 264.677 421.996C267.555 418.031 272.032 414.148 278.879 410.437L278.919 410.415L278.955 410.385C281.836 408.049 284.581 405.792 287.182 403.653C295.703 396.645 302.683 390.905 307.864 387.796C309.549 386.785 311.019 386.067 312.272 385.674C313.531 385.279 314.516 385.229 315.266 385.479C315.991 385.722 316.575 386.274 316.989 387.275C317.396 388.261 317.626 389.659 317.64 391.544C303.207 408.658 298.667 419.731 298.232 428.762C298.015 433.286 298.829 437.263 299.901 441.182C300.233 442.394 300.588 443.594 300.944 444.803Z" fill="#D23333" stroke="url(#paint39_linear)"/>
<path d="M357.64 435.743C357.64 443.153 354.615 448.192 350.196 451.395C345.756 454.614 339.869 456.005 334.14 456.005C328.398 456.005 322.509 454.816 318.072 451.802C313.663 448.807 310.64 443.981 310.64 436.573C310.64 429.157 313.672 423.693 318.107 420.073C322.555 416.442 328.439 414.65 334.14 414.65C339.855 414.65 345.74 416.242 350.184 419.666C354.612 423.078 357.64 428.33 357.64 435.743Z" fill="#107927" stroke="url(#paint40_linear)"/>
<path d="M399.407 438.988C400.145 440.755 401.121 442.654 404.188 445.862C393.717 448.683 386.667 451.202 373.298 458.345C370.053 453.614 368.881 450.442 368.279 447.134C368.001 445.604 367.844 444.042 367.665 442.261C367.643 442.049 367.621 441.833 367.599 441.614C367.404 439.689 367.167 437.517 366.721 434.916C380.16 432.92 386.183 432.92 395.78 432.921L395.908 432.921C397.919 435.324 398.525 436.819 399.147 438.354C399.232 438.564 399.318 438.775 399.407 438.988Z" fill="#107927" stroke="url(#paint41_linear)"/>
<path d="M387.394 374.277C385.819 377.496 384.717 380.486 384.644 385.014C382.616 385.084 381.219 385.145 380.027 385.197C376.824 385.337 375.11 385.413 366.64 385.413C360.82 385.413 357.372 383.553 355.348 380.641C353.339 377.749 352.667 373.728 352.641 369.168C359.489 365.01 365.515 362.896 371.881 362.015C378.17 361.146 384.813 361.477 392.952 362.263C391.454 366.365 389.939 369.302 388.612 371.876C388.184 372.705 387.776 373.496 387.394 374.277Z" fill="#107927" stroke="url(#paint42_linear)"/>
<path d="M367.164 378.89C366.927 381.143 366.66 383.678 366.641 386.444C361.696 389.136 357.112 392.686 354.049 397.844C350.981 403.009 349.47 409.736 350.584 418.723C346.07 419.522 343.368 420.241 340.724 421.416C338.429 422.435 336.184 423.797 332.839 425.825C332.51 426.025 332.17 426.231 331.818 426.444C332.652 421.251 332.734 415.98 332.795 410.788C332.796 410.643 332.798 410.498 332.8 410.353C332.863 404.934 332.924 399.607 333.795 394.468C334.688 389.202 336.428 384.152 339.882 379.445C343.321 374.759 348.481 370.384 356.258 366.481C360.311 366.49 362.935 366.984 364.618 367.862C366.272 368.725 367.047 369.975 367.362 371.639C367.686 373.347 367.519 375.467 367.254 378.029C367.225 378.311 367.195 378.598 367.164 378.89Z" fill="#107927"/>
<path d="M367.164 378.89C366.927 381.143 366.66 383.678 366.641 386.444C361.696 389.136 357.112 392.686 354.049 397.844C350.981 403.009 349.47 409.736 350.584 418.723C346.07 419.522 343.368 420.241 340.724 421.416C338.429 422.435 336.184 423.797 332.839 425.825C332.51 426.025 332.17 426.231 331.818 426.444C332.652 421.251 332.734 415.98 332.795 410.788C332.796 410.643 332.798 410.498 332.8 410.353C332.863 404.934 332.924 399.607 333.795 394.468C334.688 389.202 336.428 384.152 339.882 379.445C343.321 374.759 348.481 370.384 356.258 366.481C360.311 366.49 362.935 366.984 364.618 367.862C366.272 368.725 367.047 369.975 367.362 371.639C367.686 373.347 367.519 375.467 367.254 378.029C367.225 378.311 367.195 378.598 367.164 378.89Z" stroke="url(#paint43_linear)"/>
<path d="M367.164 378.89C366.927 381.143 366.66 383.678 366.641 386.444C361.696 389.136 357.112 392.686 354.049 397.844C350.981 403.009 349.47 409.736 350.584 418.723C346.07 419.522 343.368 420.241 340.724 421.416C338.429 422.435 336.184 423.797 332.839 425.825C332.51 426.025 332.17 426.231 331.818 426.444C332.652 421.251 332.734 415.98 332.795 410.788C332.796 410.643 332.798 410.498 332.8 410.353C332.863 404.934 332.924 399.607 333.795 394.468C334.688 389.202 336.428 384.152 339.882 379.445C343.321 374.759 348.481 370.384 356.258 366.481C360.311 366.49 362.935 366.984 364.618 367.862C366.272 368.725 367.047 369.975 367.362 371.639C367.686 373.347 367.519 375.467 367.254 378.029C367.225 378.311 367.195 378.598 367.164 378.89Z" stroke="url(#paint44_linear)"/>
<path d="M366.622 386.462L366.64 386.396V386.328C366.64 384.34 367.054 383.518 367.621 383.174C367.919 382.994 368.325 382.901 368.884 382.906C369.443 382.911 370.116 383.013 370.919 383.184C371.613 383.331 372.392 383.528 373.252 383.746C376.221 384.497 380.172 385.497 385.019 385.577C384.177 389.787 384.823 395.371 386.02 400.661C387.194 405.851 388.917 410.834 390.374 414.094C386.836 414.241 383.764 414.501 381.034 414.732C379.594 414.854 378.25 414.967 376.982 415.052C373.193 415.306 370.054 415.306 366.941 414.54C364.141 410.546 363.533 405.387 363.897 400.274C364.265 395.104 365.622 390.06 366.622 386.462Z" fill="#107927"/>
<path d="M366.622 386.462L366.64 386.396V386.328C366.64 384.34 367.054 383.518 367.621 383.174C367.919 382.994 368.325 382.901 368.884 382.906C369.443 382.911 370.116 383.013 370.919 383.184C371.613 383.331 372.392 383.528 373.252 383.746C376.221 384.497 380.172 385.497 385.019 385.577C384.177 389.787 384.823 395.371 386.02 400.661C387.194 405.851 388.917 410.834 390.374 414.094C386.836 414.241 383.764 414.501 381.034 414.732C379.594 414.854 378.25 414.967 376.982 415.052C373.193 415.306 370.054 415.306 366.941 414.54C364.141 410.546 363.533 405.387 363.897 400.274C364.265 395.104 365.622 390.06 366.622 386.462Z" stroke="url(#paint45_linear)"/>
<path d="M366.622 386.462L366.64 386.396V386.328C366.64 384.34 367.054 383.518 367.621 383.174C367.919 382.994 368.325 382.901 368.884 382.906C369.443 382.911 370.116 383.013 370.919 383.184C371.613 383.331 372.392 383.528 373.252 383.746C376.221 384.497 380.172 385.497 385.019 385.577C384.177 389.787 384.823 395.371 386.02 400.661C387.194 405.851 388.917 410.834 390.374 414.094C386.836 414.241 383.764 414.501 381.034 414.732C379.594 414.854 378.25 414.967 376.982 415.052C373.193 415.306 370.054 415.306 366.941 414.54C364.141 410.546 363.533 405.387 363.897 400.274C364.265 395.104 365.622 390.06 366.622 386.462Z" stroke="url(#paint46_linear)"/>
<path d="M392.884 424.242C393.468 426.809 394.065 429.166 395.35 431.93C374.931 432.192 362.486 433.627 348.743 438.497C345.48 435.723 344.238 433.632 343.773 431.47C343.532 430.348 343.495 429.182 343.522 427.846C343.532 427.363 343.551 426.852 343.57 426.313C343.602 425.424 343.637 424.46 343.64 423.424C344.586 421.907 346.758 420.514 349.905 419.305C353.1 418.078 357.194 417.08 361.742 416.319C370.722 414.817 381.405 414.25 390.281 414.634C391.517 418.171 392.13 420.896 392.686 423.368C392.753 423.662 392.818 423.953 392.884 424.242Z" fill="#107927"/>
<path d="M392.884 424.242C393.468 426.809 394.065 429.166 395.35 431.93C374.931 432.192 362.486 433.627 348.743 438.497C345.48 435.723 344.238 433.632 343.773 431.47C343.532 430.348 343.495 429.182 343.522 427.846C343.532 427.363 343.551 426.852 343.57 426.313C343.602 425.424 343.637 424.46 343.64 423.424C344.586 421.907 346.758 420.514 349.905 419.305C353.1 418.078 357.194 417.08 361.742 416.319C370.722 414.817 381.405 414.25 390.281 414.634C391.517 418.171 392.13 420.896 392.686 423.368C392.753 423.662 392.818 423.953 392.884 424.242Z" stroke="url(#paint47_linear)"/>
<path d="M392.884 424.242C393.468 426.809 394.065 429.166 395.35 431.93C374.931 432.192 362.486 433.627 348.743 438.497C345.48 435.723 344.238 433.632 343.773 431.47C343.532 430.348 343.495 429.182 343.522 427.846C343.532 427.363 343.551 426.852 343.57 426.313C343.602 425.424 343.637 424.46 343.64 423.424C344.586 421.907 346.758 420.514 349.905 419.305C353.1 418.078 357.194 417.08 361.742 416.319C370.722 414.817 381.405 414.25 390.281 414.634C391.517 418.171 392.13 420.896 392.686 423.368C392.753 423.662 392.818 423.953 392.884 424.242Z" stroke="url(#paint48_linear)"/>
<path d="M392.884 424.242C393.468 426.809 394.065 429.166 395.35 431.93C374.931 432.192 362.486 433.627 348.743 438.497C345.48 435.723 344.238 433.632 343.773 431.47C343.532 430.348 343.495 429.182 343.522 427.846C343.532 427.363 343.551 426.852 343.57 426.313C343.602 425.424 343.637 424.46 343.64 423.424C344.586 421.907 346.758 420.514 349.905 419.305C353.1 418.078 357.194 417.08 361.742 416.319C370.722 414.817 381.405 414.25 390.281 414.634C391.517 418.171 392.13 420.896 392.686 423.368C392.753 423.662 392.818 423.953 392.884 424.242Z" stroke="url(#paint49_linear)"/>
<defs>
<linearGradient id="paint0_linear" x1="238.272" y1="90.9421" x2="250.311" y2="387.352" gradientUnits="userSpaceOnUse">
<stop offset="0.354167" stop-color="#63A9FB" stop-opacity="0.953771"/>
<stop offset="0.552083" stop-color="#7AACE6"/>
<stop offset="0.723958" stop-color="#1A71D7" stop-opacity="0.81"/>
</linearGradient>
<linearGradient id="paint1_linear" x1="240.723" y1="89.1883" x2="240.723" y2="392.045" gradientUnits="userSpaceOnUse">
<stop offset="0.572575"/>
<stop offset="0.706208" stop-opacity="0"/>
</linearGradient>
<linearGradient id="paint2_linear" x1="370.967" y1="264.057" x2="388.717" y2="264.999" gradientUnits="userSpaceOnUse">
<stop stop-color="#EAE1E1"/>
<stop stop-color="#E4ADAD"/>
<stop offset="1"/>
</linearGradient>
<linearGradient id="paint3_linear" x1="136.242" y1="296.094" x2="125.805" y2="296.472" gradientUnits="userSpaceOnUse">
<stop stop-color="#EAE1E1"/>
<stop stop-color="#E4ADAD"/>
<stop offset="1"/>
</linearGradient>
<linearGradient id="paint4_linear" x1="246.742" y1="39.8419" x2="246.742" y2="231.99" gradientUnits="userSpaceOnUse">
<stop stop-color="#155BAD"/>
<stop offset="0.255208" stop-color="#5F9EE8"/>
</linearGradient>
<linearGradient id="paint5_linear" x1="246.742" y1="39.842" x2="263.104" y2="125.382" gradientUnits="userSpaceOnUse">
<stop/>
<stop offset="0.737398" stop-opacity="0"/>
</linearGradient>
<linearGradient id="paint6_linear" x1="370.71" y1="89.626" x2="370.71" y2="244.34" gradientUnits="userSpaceOnUse">
<stop stop-color="#5E9DE6" stop-opacity="0"/>
<stop offset="0.541667" stop-color="#5C9BE3"/>
</linearGradient>
<linearGradient id="paint7_linear" x1="370.71" y1="89.626" x2="370.71" y2="244.34" gradientUnits="userSpaceOnUse">
<stop offset="0.364583" stop-opacity="0"/>
<stop offset="0.682292"/>
</linearGradient>
<linearGradient id="paint8_linear" x1="300.197" y1="140.941" x2="300.197" y2="263.629" gradientUnits="userSpaceOnUse">
<stop offset="0.541667" stop-color="#5C9BE3"/>
<stop offset="1" stop-color="#5E9DE6" stop-opacity="0"/>
</linearGradient>
<linearGradient id="paint9_linear" x1="300.197" y1="140.941" x2="300.197" y2="263.629" gradientUnits="userSpaceOnUse">
<stop offset="0.364583" stop-opacity="0"/>
<stop offset="0.682292"/>
</linearGradient>
<linearGradient id="paint10_linear" x1="303.522" y1="137.779" x2="303.522" y2="260.194" gradientUnits="userSpaceOnUse">
<stop offset="0.484375" stop-color="#5C9BE3"/>
<stop offset="1" stop-color="#5E9DE6" stop-opacity="0"/>
</linearGradient>
<linearGradient id="paint11_linear" x1="359.539" y1="91.5957" x2="380.183" y2="193.452" gradientUnits="userSpaceOnUse">
<stop offset="0.601832" stop-opacity="0"/>
<stop offset="0.682292"/>
</linearGradient>
<linearGradient id="paint12_linear" x1="289.461" y1="156.465" x2="302.173" y2="238.581" gradientUnits="userSpaceOnUse">
<stop offset="0.541667" stop-color="#5C9BE3"/>
<stop offset="1" stop-color="#5E9DE6" stop-opacity="0"/>
</linearGradient>
<linearGradient id="paint13_linear" x1="286.765" y1="155.625" x2="298.254" y2="229.84" gradientUnits="userSpaceOnUse">
<stop offset="0.364583" stop-opacity="0"/>
<stop offset="0.682292"/>
</linearGradient>
<linearGradient id="paint14_linear" x1="248.063" y1="127.618" x2="248.063" y2="225.855" gradientUnits="userSpaceOnUse">
<stop offset="0.541667" stop-color="#5C9BE3"/>
<stop offset="1" stop-color="#5E9DE6" stop-opacity="0"/>
</linearGradient>
<linearGradient id="paint15_linear" x1="248.063" y1="127.618" x2="248.063" y2="225.855" gradientUnits="userSpaceOnUse">
<stop offset="0.364583" stop-opacity="0"/>
<stop offset="0.682292"/>
</linearGradient>
<linearGradient id="paint16_linear" x1="137.317" y1="123.8" x2="129.141" y2="162.105" gradientUnits="userSpaceOnUse">
<stop offset="0.0250813" stop-color="#5E9DE6" stop-opacity="0"/>
<stop offset="0.713542" stop-color="#5C9BE3"/>
</linearGradient>
<linearGradient id="paint17_linear" x1="118.233" y1="100.576" x2="118.233" y2="255.388" gradientUnits="userSpaceOnUse">
<stop offset="0.364583" stop-opacity="0"/>
<stop offset="0.682292"/>
</linearGradient>
<linearGradient id="paint18_linear" x1="147.419" y1="177.631" x2="158.444" y2="253.096" gradientUnits="userSpaceOnUse">
<stop offset="0.541667" stop-color="#5C9BE3"/>
<stop offset="1" stop-color="#5E9DE6" stop-opacity="0"/>
</linearGradient>
<linearGradient id="paint19_linear" x1="151.878" y1="180.662" x2="143.307" y2="209.418" gradientUnits="userSpaceOnUse">
<stop offset="0.322917" stop-opacity="0"/>
<stop offset="0.786458"/>
</linearGradient>
<linearGradient id="paint20_linear" x1="161.003" y1="178.56" x2="172.03" y2="249.788" gradientUnits="userSpaceOnUse">
<stop offset="0.541667" stop-color="#5C9BE3"/>
<stop offset="1" stop-color="#5E9DE6" stop-opacity="0"/>
</linearGradient>
<linearGradient id="paint21_linear" x1="163.397" y1="177.099" x2="173.362" y2="241.473" gradientUnits="userSpaceOnUse">
<stop offset="0.364583" stop-opacity="0"/>
<stop offset="0.682292"/>
</linearGradient>
<linearGradient id="paint22_linear" x1="210.107" y1="121.001" x2="210.107" y2="221.286" gradientUnits="userSpaceOnUse">
<stop offset="0.541667" stop-color="#5C9BE3"/>
<stop offset="1" stop-color="#5E9DE6" stop-opacity="0"/>
</linearGradient>
<linearGradient id="paint23_linear" x1="210.107" y1="121.001" x2="210.107" y2="221.286" gradientUnits="userSpaceOnUse">
<stop offset="0.364583" stop-opacity="0"/>
<stop offset="0.682292"/>
</linearGradient>
<linearGradient id="paint24_linear" x1="338.983" y1="121.221" x2="366.178" y2="104.988" gradientUnits="userSpaceOnUse">
<stop offset="0.541667" stop-color="#5C9BE3"/>
<stop offset="1" stop-color="#5E9DE6" stop-opacity="0"/>
</linearGradient>
<linearGradient id="paint25_linear" x1="348.929" y1="129.198" x2="364.921" y2="115.868" gradientUnits="userSpaceOnUse">
<stop offset="0.364583" stop-opacity="0"/>
<stop offset="0.682292"/>
</linearGradient>
<linearGradient id="paint26_linear" x1="145.145" y1="122.321" x2="116.5" y2="108.516" gradientUnits="userSpaceOnUse">
<stop offset="0.541667" stop-color="#5C9BE3"/>
<stop offset="1" stop-color="#5E9DE6" stop-opacity="0"/>
</linearGradient>
<linearGradient id="paint27_linear" x1="135.187" y1="132.686" x2="117.759" y2="121.088" gradientUnits="userSpaceOnUse">
<stop offset="0.364583" stop-opacity="0"/>
<stop offset="0.682292"/>
</linearGradient>
<linearGradient id="paint28_linear" x1="230.755" y1="318.68" x2="243.031" y2="309.6" gradientUnits="userSpaceOnUse">
<stop offset="0.213542"/>
<stop offset="0.911458" stop-opacity="0"/>
</linearGradient>
<linearGradient id="paint29_linear" x1="134.241" y1="365.519" x2="149.294" y2="411.098" gradientUnits="userSpaceOnUse">
<stop/>
<stop offset="1" stop-opacity="0"/>
</linearGradient>
<linearGradient id="paint30_linear" x1="134.14" y1="458.166" x2="123.589" y2="409.042" gradientUnits="userSpaceOnUse">
<stop/>
<stop offset="1" stop-opacity="0"/>
</linearGradient>
<linearGradient id="paint31_linear" x1="177.14" y1="454.844" x2="174.375" y2="417.381" gradientUnits="userSpaceOnUse">
<stop/>
<stop offset="1" stop-opacity="0"/>
</linearGradient>
<linearGradient id="paint32_linear" x1="232.14" y1="451.107" x2="203.491" y2="417.104" gradientUnits="userSpaceOnUse">
<stop/>
<stop offset="1" stop-opacity="0"/>
</linearGradient>
<linearGradient id="paint33_linear" x1="214.14" y1="366.811" x2="191.26" y2="413.33" gradientUnits="userSpaceOnUse">
<stop/>
<stop offset="1" stop-opacity="0"/>
</linearGradient>
<linearGradient id="paint34_linear" x1="230.64" y1="391.726" x2="252.105" y2="402.963" gradientUnits="userSpaceOnUse">
<stop/>
<stop offset="1" stop-opacity="0"/>
</linearGradient>
<linearGradient id="paint35_linear" x1="251.64" y1="366.811" x2="245.059" y2="383.542" gradientUnits="userSpaceOnUse">
<stop/>
<stop offset="1" stop-color="white" stop-opacity="0"/>
</linearGradient>
<linearGradient id="paint36_linear" x1="303.64" y1="389.65" x2="303.64" y2="394.218" gradientUnits="userSpaceOnUse">
<stop/>
<stop offset="0.453125" stop-opacity="0"/>
</linearGradient>
<linearGradient id="paint37_linear" x1="250.14" y1="401.692" x2="259.121" y2="390.879" gradientUnits="userSpaceOnUse">
<stop offset="0.0833333"/>
<stop offset="0.25" stop-opacity="0"/>
</linearGradient>
<linearGradient id="paint38_linear" x1="271.14" y1="388.404" x2="261.966" y2="393.928" gradientUnits="userSpaceOnUse">
<stop/>
<stop offset="0.0001" stop-color="white" stop-opacity="0"/>
</linearGradient>
<linearGradient id="paint39_linear" x1="289.14" y1="455.675" x2="266.887" y2="406.104" gradientUnits="userSpaceOnUse">
<stop offset="0.5"/>
<stop offset="0.875" stop-opacity="0"/>
</linearGradient>
<linearGradient id="paint40_linear" x1="323.64" y1="452.353" x2="352.817" y2="423.331" gradientUnits="userSpaceOnUse">
<stop/>
<stop offset="1" stop-opacity="0"/>
</linearGradient>
<linearGradient id="paint41_linear" x1="388.64" y1="451.107" x2="384.779" y2="432.088" gradientUnits="userSpaceOnUse">
<stop/>
<stop offset="1" stop-opacity="0"/>
</linearGradient>
<linearGradient id="paint42_linear" x1="394.14" y1="360.997" x2="364.598" y2="393.062" gradientUnits="userSpaceOnUse">
<stop offset="0.0510956"/>
<stop offset="1" stop-opacity="0"/>
</linearGradient>
<linearGradient id="paint43_linear" x1="333.64" y1="399.201" x2="342.138" y2="403.18" gradientUnits="userSpaceOnUse">
<stop/>
<stop offset="1" stop-opacity="0"/>
</linearGradient>
<linearGradient id="paint44_linear" x1="352.14" y1="402.938" x2="346.515" y2="400.115" gradientUnits="userSpaceOnUse">
<stop/>
<stop offset="1" stop-color="white" stop-opacity="0"/>
</linearGradient>
<linearGradient id="paint45_linear" x1="385.14" y1="399.201" x2="384.14" y2="399.201" gradientUnits="userSpaceOnUse">
<stop/>
<stop offset="1" stop-opacity="0"/>
</linearGradient>
<linearGradient id="paint46_linear" x1="363.14" y1="401.692" x2="370.14" y2="401.692" gradientUnits="userSpaceOnUse">
<stop/>
<stop offset="1" stop-color="white" stop-opacity="0"/>
</linearGradient>
<linearGradient id="paint47_linear" x1="359.64" y1="416.226" x2="360.716" y2="419.68" gradientUnits="userSpaceOnUse">
<stop/>
<stop offset="1" stop-opacity="0"/>
</linearGradient>
<linearGradient id="paint48_linear" x1="392.64" y1="423.285" x2="390.286" y2="424.419" gradientUnits="userSpaceOnUse">
<stop/>
<stop offset="1" stop-color="white" stop-opacity="0"/>
</linearGradient>
<linearGradient id="paint49_linear" x1="363.14" y1="435.327" x2="363.14" y2="432.421" gradientUnits="userSpaceOnUse">
<stop/>
<stop offset="1" stop-color="white" stop-opacity="0"/>
</linearGradient>
</defs>
</svg>

