<svg width="442" height="460" viewBox="0 0 442 460" fill="none" xmlns="http://www.w3.org/2000/svg">
<rect y="15" width="442" height="445" rx="30" fill="#C4C4C4" fill-opacity="0.1"/>
<rect x="26" y="45" width="392" height="392" rx="50" fill="#E5EAAE" stroke="#A8A2A2" stroke-width="8"/>
<path d="M96.4965 98.237L96.5941 97.9797V97.7046C96.5941 94.0735 99.2404 90.6673 104.887 87.527C110.48 84.4162 118.605 81.8134 128.593 79.6625C148.541 75.3665 175.479 72.9617 203.324 71.6723C247.771 69.614 294.282 70.4049 317.978 70.8078C323.59 70.9032 327.922 70.9769 330.644 70.9858C360.585 95.0509 375.566 124.006 380.299 162.614C385.049 201.368 379.472 249.827 368.199 312.802C338.115 330.701 287.323 344.28 235.328 350.123C183.327 355.967 130.489 354.03 96.2983 341.18C75.858 278.117 63.5342 185.065 96.4965 98.237Z" fill="url(#paint0_linear)" stroke="url(#paint1_linear)" stroke-width="3"/>
<mask id="path-4-inside-1" fill="white">
<path d="M378.184 210.03C378.184 225.286 364.959 243.925 349.55 248.871C340.504 248.871 345.425 225.286 345.425 210.03C345.425 197.606 349.55 184.096 361.805 182.407C373.452 186.147 379.64 195.917 378.184 210.03Z"/>
</mask>
<path d="M378.184 210.03C378.184 225.286 364.959 243.925 349.55 248.871C340.504 248.871 345.425 225.286 345.425 210.03C345.425 197.606 349.55 184.096 361.805 182.407C373.452 186.147 379.64 195.917 378.184 210.03Z" fill="#FFDDDD"/>
<path d="M378.184 210.03L375.2 209.722C375.19 209.824 375.184 209.927 375.184 210.03H378.184ZM349.55 248.871V251.871C349.861 251.871 350.171 251.822 350.467 251.727L349.55 248.871ZM361.805 182.407L362.722 179.551C362.294 179.414 361.84 179.374 361.395 179.435L361.805 182.407ZM375.184 210.03C375.184 216.857 372.191 224.726 367.22 231.55C362.255 238.369 355.579 243.785 348.633 246.014L350.467 251.727C358.93 249.011 366.571 242.634 372.071 235.083C377.565 227.537 381.184 218.459 381.184 210.03H375.184ZM349.55 245.871C349.143 245.871 348.965 245.766 348.81 245.623C348.584 245.414 348.25 244.95 347.937 244.004C347.294 242.063 347.046 239.069 347.095 235.209C347.143 231.418 347.467 227.142 347.789 222.755C348.108 218.419 348.425 213.973 348.425 210.03H342.425C342.425 213.715 342.127 217.937 341.805 222.315C341.488 226.641 341.147 231.121 341.095 235.133C341.045 239.077 341.262 242.932 342.241 245.89C342.739 247.393 343.505 248.891 344.741 250.032C346.048 251.238 347.695 251.871 349.55 251.871V245.871ZM348.425 210.03C348.425 204.088 349.42 198.113 351.704 193.531C353.942 189.042 357.302 186.056 362.214 185.379L361.395 179.435C354.053 180.447 349.223 185.06 346.334 190.854C343.492 196.556 342.425 203.547 342.425 210.03H348.425ZM360.888 185.264C366.109 186.94 369.939 189.9 372.34 193.879C374.754 197.879 375.877 203.164 375.2 209.722L381.168 210.338C381.948 202.783 380.705 196.127 377.477 190.778C374.236 185.409 369.147 181.614 362.722 179.551L360.888 185.264Z" fill="url(#paint2_linear)" mask="url(#path-4-inside-1)"/>
<path d="M350.312 213.419C350.312 215.401 350.823 217.51 350.519 219.478C350.209 221.483 349.779 223.515 349.779 225.538C349.779 227.6 349.513 229.642 349.513 231.686C349.513 233.341 350.045 234.82 350.045 236.451" stroke="black" stroke-linecap="round" stroke-linejoin="round"/>
<path d="M350.312 240.158C353.694 239.677 356.163 235.967 356.91 232.863C357.663 229.732 358.567 226.442 358.567 223.214" stroke="black" stroke-linecap="round" stroke-linejoin="round"/>
<path d="M368.686 223.214C371.492 220.648 371.499 216.41 372.148 212.86C372.399 211.489 372.974 209.092 372.148 207.859" stroke="black" stroke-linecap="round" stroke-linejoin="round"/>
<path d="M358.034 195.152C360.11 196.399 361.951 197.487 363.508 199.27C364.451 200.349 364.378 201.677 364.958 202.829" stroke="black" stroke-linecap="round" stroke-linejoin="round"/>
<mask id="path-10-inside-2" fill="white">
<path d="M96.0504 234.427C93.2856 250.15 108.79 282.797 118.202 276.524C123.513 276.524 120.624 256.235 120.624 243.112C120.624 232.424 118.202 220.802 111.008 219.349C102.966 217.725 99.0837 217.178 96.0504 234.427Z"/>
</mask>
<path d="M96.0504 234.427C93.2856 250.15 108.79 282.797 118.202 276.524C123.513 276.524 120.624 256.235 120.624 243.112C120.624 232.424 118.202 220.802 111.008 219.349C102.966 217.725 99.0837 217.178 96.0504 234.427Z" fill="#FFDDDD"/>
<path d="M96.0504 234.427L93.0958 233.907L96.0504 234.427ZM118.202 276.524L116.539 274.028C117.031 273.7 117.61 273.524 118.202 273.524V276.524ZM111.008 219.349L111.601 216.409L111.601 216.409L111.008 219.349ZM99.0051 234.947C98.4132 238.313 98.7752 242.852 99.9426 247.836C101.099 252.771 102.989 257.907 105.239 262.374C107.514 266.888 110.043 270.494 112.372 272.559C113.535 273.591 114.475 274.083 115.148 274.247C115.712 274.385 116.111 274.313 116.539 274.028L119.866 279.021C117.941 280.304 115.796 280.583 113.721 280.075C111.756 279.594 109.962 278.441 108.391 277.048C105.252 274.265 102.314 269.902 99.8808 265.074C97.4241 260.197 95.3682 254.615 94.1007 249.204C92.8445 243.841 92.3052 238.403 93.0958 233.907L99.0051 234.947ZM118.202 273.524C118.033 273.524 117.826 273.571 117.637 273.677C117.465 273.773 117.402 273.866 117.419 273.843C117.488 273.75 117.695 273.374 117.895 272.488C118.289 270.745 118.434 268.098 118.405 264.766C118.376 261.485 118.185 257.788 117.996 254.019C117.809 250.286 117.624 246.481 117.624 243.112H123.624C123.624 246.304 123.8 249.957 123.989 253.719C124.176 257.445 124.375 261.281 124.405 264.713C124.434 268.093 124.306 271.339 123.748 273.81C123.472 275.032 123.033 276.344 122.243 277.411C121.371 278.59 120.007 279.524 118.202 279.524V273.524ZM117.624 243.112C117.624 237.94 117.032 232.726 115.674 228.733C114.268 224.603 112.389 222.689 110.414 222.29L111.601 216.409C116.821 217.462 119.75 222.085 121.354 226.801C123.005 231.655 123.624 237.595 123.624 243.112H117.624ZM110.414 222.29C108.339 221.871 106.884 221.602 105.685 221.594C104.597 221.587 103.982 221.802 103.483 222.186C102.909 222.629 102.147 223.565 101.331 225.656C100.52 227.737 99.7493 230.714 99.0051 234.947L93.0958 233.907C93.8682 229.515 94.7206 226.093 95.7414 223.476C96.7582 220.869 98.0376 218.809 99.8189 217.435C101.675 216.003 103.728 215.581 105.724 215.595C107.61 215.607 109.655 216.016 111.601 216.409L110.414 222.29Z" fill="url(#paint3_linear)" mask="url(#path-10-inside-2)"/>
<path d="M117.755 246.027C117.755 247.732 117.455 249.547 117.634 251.24C117.816 252.964 118.068 254.712 118.068 256.453C118.068 258.226 118.224 259.983 118.224 261.741C118.224 263.165 117.911 264.437 117.911 265.841" stroke="black" stroke-linecap="round" stroke-linejoin="round"/>
<path d="M117.755 269.029C115.769 268.616 114.32 265.424 113.881 262.754C113.439 260.061 112.908 257.23 112.908 254.453" stroke="black" stroke-linecap="round" stroke-linejoin="round"/>
<path d="M106.967 254.453C105.32 252.246 105.316 248.6 104.935 245.546C104.788 244.367 104.45 242.304 104.935 241.244" stroke="black" stroke-linecap="round" stroke-linejoin="round"/>
<path d="M113.221 230.313C112.002 231.385 110.922 232.322 110.007 233.855C109.454 234.784 109.496 235.926 109.156 236.917" stroke="black" stroke-linecap="round" stroke-linejoin="round"/>
<path d="M353.661 208.516L353.604 208.697L353.581 208.886C346.344 270.249 328.091 307.08 303.615 329.272C279.159 351.445 248.179 359.289 214.795 361.997C167.553 360.409 121.993 314.824 103.955 212.632C91.3499 141.22 104.686 94.2522 130.971 66.3667C157.275 38.461 196.986 29.1945 238.142 34.1521L238.261 34.1664H238.381C291.122 34.1664 327.745 52.7325 347.307 83.4942C366.91 114.32 369.702 157.888 353.661 208.516Z" fill="#FFDDDD" stroke="black" stroke-width="4"/>
<path d="M244.269 249.107C245.38 252.071 246.438 254.89 247.252 257.409C255.286 253.113 262.704 250.331 270.426 249.532C278.131 248.734 285.953 249.928 294.799 253.287C295.092 249.485 295.643 245.306 296.207 241.038L296.231 240.855C296.99 235.109 297.773 229.148 298.065 223.386C298.661 211.638 297.133 201.835 290.486 196.497C280.849 188.758 272.086 185.641 264.2 186.345C256.327 187.049 248.763 191.613 241.641 200.439C235.023 208.639 235.396 219.672 238.265 231.019C239.686 236.638 241.674 242.155 243.56 247.212C243.798 247.849 244.035 248.482 244.269 249.107Z" fill="white" stroke="black" stroke-width="5"/>
<path d="M295.356 255.179C283.403 248.858 269.333 248.614 256.826 253.989C248.989 241.274 244.472 213.996 255.375 200.83C267.71 185.935 288.696 186.759 297.106 203.621C302.762 214.962 296.775 236.733 295.356 255.179Z" fill="#00ADB5"/>
<path d="M296.033 255.589C287.998 251.277 280.898 249.841 267.361 250.951C264.698 246.199 264.464 224.675 265.404 216.939C266.719 206.113 286.562 194.39 297.274 203.607C303.696 213.954 294.918 252.419 296.033 255.589Z" fill="black"/>
<path d="M135.092 268.747C136.415 271.603 137.674 274.319 138.677 276.757C146.032 271.961 152.945 268.696 160.329 267.371C167.7 266.049 175.349 266.693 184.147 269.401C184.1 265.61 184.267 261.431 184.438 257.16L184.445 256.979C184.676 251.201 184.912 245.203 184.69 239.437C184.239 227.675 181.897 217.982 174.998 213.114C165.003 206.061 156.292 203.581 148.787 204.814C141.296 206.046 134.404 211.079 128.289 220.366C122.603 229 123.93 239.996 127.702 251.123C129.569 256.63 131.974 261.996 134.24 266.907C134.526 267.526 134.81 268.14 135.092 268.747Z" fill="white" stroke="black" stroke-width="5"/>
<path d="M184.95 271.281C172.864 265.809 159.267 266.529 147.669 272.734C138.995 260.615 132.253 233.775 141.623 219.926C152.223 204.257 172.544 203.64 182.133 219.847C188.582 230.748 184.708 252.826 184.95 271.281Z" fill="#00ADB5"/>
<path d="M185.459 271.515C177.347 267.778 170.385 266.835 157.449 268.862C154.471 264.32 152.365 242.945 152.594 235.193C152.915 224.344 170.996 211.339 182.114 219.769C189.201 229.614 184.109 268.44 185.459 271.515Z" fill="black"/>
<path d="M245.523 295.496C245.885 296.222 246.173 297.09 246.411 298.141C246.795 299.841 246.998 301.747 247.24 304.023C247.318 304.761 247.401 305.539 247.495 306.361C247.673 312.394 245.937 316.747 242.106 318.958C238.154 319.395 235.428 317.497 234.041 314.71C232.609 311.832 232.591 307.924 234.554 304.524C235.467 303.937 236.244 303.445 236.919 303.018C238.895 301.767 239.988 301.076 240.987 300.213C241.717 299.584 242.401 298.868 243.333 297.864C243.583 297.595 243.854 297.301 244.152 296.978C244.553 296.544 245.004 296.055 245.523 295.496Z" fill="#D23333" stroke="black" stroke-width="5"/>
<path d="M245.627 295.712C245.941 296.393 246.196 297.193 246.411 298.141C246.795 299.842 246.998 301.748 247.241 304.023C247.319 304.762 247.402 305.539 247.497 306.361C247.677 312.427 245.765 316.932 242.084 318.985C239.023 319.481 235.777 317.844 232.833 314.725C230.509 312.263 228.712 309.21 227.721 306.582C231.21 305.515 234.275 304.509 237.151 302.906C240.079 301.274 242.745 299.073 245.627 295.712Z" fill="#E4ADAD" stroke="black" stroke-width="5"/>
<path d="M237.606 179.428L240.937 173.586L244.723 169.51L248.269 166.194L252.753 162.871L257.69 161.565L262.856 161.016L268.723 160.967L274.112 161.933L277.626 162.662L281.372 163.641L284.884 164.623L290.963 167.352L294.93 170.099L299.364 173.095L304.02 177.859L310.509 188.168" stroke="black" stroke-width="5"/>
<path d="M115.765 216.852L116.669 210.837L118.633 203.816C119.349 201.256 120.269 198.757 121.385 196.344L121.945 195.133L126.99 189.403L132.15 184.461L139.946 181.775L148.716 178.572L159.097 177.793L170.209 182.048L182.602 191.465" stroke="black" stroke-width="4"/>
<path d="M154.739 123.05C133.493 130.786 113.33 142.925 88.031 160.743C103.233 107.866 115.031 72.5755 133.421 50.3245C152.119 27.7 177.79 18.4127 221.728 18.4127C252.959 18.4127 287.646 25.1861 315.276 45.5048C342.837 65.7729 363.569 99.6609 366.711 154.319C366.704 159.328 365.573 161.956 363.991 163.22C362.414 164.48 359.893 164.781 356.09 163.858C352.333 162.947 347.705 160.933 342.315 158.135C336.942 155.346 330.905 151.83 324.34 147.968C323.602 147.534 322.857 147.095 322.107 146.653C309.528 139.246 295.188 130.801 280.258 124.08C264.444 116.961 247.841 111.713 231.826 111.713C200.303 111.713 176.975 114.954 154.739 123.05Z" fill="url(#paint4_linear)" stroke="url(#paint5_linear)" stroke-width="3"/>
<path d="M260.513 84.956C265.963 90.6344 272.863 96.1279 280.452 102.17C282.552 103.842 284.704 105.556 286.894 107.327C297.144 115.621 308.073 125.087 317.664 137.158C336.247 160.542 349.673 193.527 344.032 246.433C366.605 214.351 372.556 186.68 372.101 164.772C371.694 145.197 366.187 130.168 362.621 120.438C361.994 118.726 361.427 117.178 360.958 115.798C354.318 96.2536 349.055 86.4368 344.312 80.381C341.947 77.3623 339.688 75.2479 337.391 73.3066C336.661 72.69 335.912 72.0787 335.148 71.4552C333.674 70.2531 332.146 69.0059 330.597 67.5899C329.391 67.5487 327.611 67.4005 325.464 67.2162C325.211 67.1944 324.952 67.1721 324.687 67.1493C322.261 66.9403 319.359 66.6903 316.138 66.4696C308.988 65.9796 300.314 65.6375 291.935 66.2094C283.523 66.7836 275.567 68.2704 269.759 71.3349C264.207 74.2643 260.715 78.5616 260.513 84.956Z" fill="url(#paint6_linear)" stroke="url(#paint7_linear)" stroke-width="3"/>
<path d="M300.993 141.597L301.11 141.692L301.207 141.808C320.474 164.993 321.205 193.107 321.232 230.676C329.483 216.631 336.551 204.224 340.825 192.934C345.564 180.418 346.77 169.523 342.514 159.473C335.427 142.735 329.469 134.831 324.536 130.216C322.062 127.902 319.813 126.382 317.69 124.95L317.617 124.901C315.599 123.541 313.631 122.214 311.843 120.362C303.373 115.714 294.254 111.542 286.367 108.718C282.391 107.295 278.755 106.224 275.691 105.603C272.583 104.974 270.225 104.843 268.72 105.162C267.983 105.318 267.585 105.554 267.381 105.762C267.211 105.934 267.077 106.183 267.08 106.655C267.086 107.767 267.853 109.739 270.15 112.82C274.658 118.868 284.252 128.15 300.993 141.597Z" fill="url(#paint8_linear)" stroke="url(#paint9_linear)" stroke-width="3"/>
<path d="M276.005 123.425C271.659 127.46 267.844 134.125 267.58 144.769C278.843 147.692 286.5 157.712 291.36 171.502C295.936 184.488 298.152 201.12 298.524 219.242C306.131 205.395 310.905 193.156 313.38 182.744C316.143 171.116 316.015 161.862 313.861 155.203C307.739 136.285 298.953 128.225 292.102 121.939C290.538 120.505 289.075 119.162 287.768 117.804C285.018 118.005 280.231 119.501 276.005 123.425Z" fill="url(#paint10_linear)" stroke="url(#paint11_linear)" stroke-width="3"/>
<path d="M227.182 113.918C234.28 121.038 247.11 134.519 257.349 149.281C262.652 156.925 267.3 164.969 270.087 172.695C272.004 178.01 273.071 183.262 272.803 188.166C279.989 177.382 282.023 164.535 281.726 152.946C281.382 139.534 277.92 128.049 275.992 123.885C272.575 116.505 269.45 112.64 266.674 110.122C265.274 108.852 263.936 107.9 262.614 106.983C262.496 106.901 262.377 106.819 262.259 106.737C261.156 105.974 260.036 105.199 258.969 104.288C243.931 99.8554 231.652 104.941 227.182 113.918Z" fill="url(#paint12_linear)" stroke="url(#paint13_linear)" stroke-width="3"/>
<path d="M204.465 107.424C219.353 126.712 239.46 154.901 241.6 187.566C253.938 163.515 254.146 150.239 250.852 139.44C247.668 129.003 246.077 124.198 244.62 121.207C243.446 118.797 242.392 117.615 240.446 115.434C240.162 115.115 239.86 114.776 239.535 114.408C239.202 114.34 238.872 114.237 238.564 114.127C237.989 113.922 237.338 113.635 236.64 113.3C235.245 112.629 233.542 111.702 231.685 110.681C231.437 110.545 231.186 110.406 230.932 110.266C227.349 108.294 223.207 106.014 219.207 104.278C217.068 103.35 215.007 102.595 213.129 102.128C211.236 101.658 209.619 101.505 208.332 101.699C207.085 101.886 206.193 102.387 205.577 103.238C204.98 104.063 204.528 105.374 204.465 107.424Z" fill="url(#paint14_linear)" stroke="url(#paint15_linear)" stroke-width="3"/>
<path d="M200.29 72.3505C207.046 75.3326 211.137 79.64 211.408 85.8597C204.881 91.5458 196.618 97.0492 187.547 103.091C185.036 104.763 182.464 106.476 179.85 108.246C167.596 116.54 154.537 126.002 143.073 138.071C120.753 161.568 104.611 194.81 111.603 248.249C84.0159 215.787 76.799 187.845 77.3465 165.808C77.832 146.27 84.4003 131.273 88.6661 121.533C89.4176 119.817 90.0977 118.264 90.6604 116.879C98.5968 97.3365 104.886 87.5201 110.563 81.4573C113.398 78.43 116.11 76.3067 118.868 74.3571C119.747 73.7355 120.647 73.1213 121.562 72.4963C123.355 71.273 125.208 70.0078 127.091 68.5624C128.508 68.5297 130.689 68.3783 133.38 68.1851C133.683 68.1633 133.993 68.141 134.31 68.1182C137.211 67.9091 140.687 67.6586 144.545 67.4374C153.107 66.9466 163.51 66.6027 173.569 67.1771C183.66 67.7533 193.259 69.2474 200.29 72.3505Z" fill="url(#paint16_linear)" stroke="url(#paint17_linear)" stroke-width="3"/>
<path d="M156.226 133.162C160.818 135.395 162.984 140.859 162.275 147.295C147.721 160.27 139.465 169.807 136.72 181.534C134.236 192.143 136.323 204.314 141.672 222.058C136.548 216.576 130.005 209.104 124.75 200.718C117.772 189.581 113.307 177.208 116.973 165.902C117.471 164.365 117.923 162.771 118.383 161.151C120.551 153.507 122.882 145.287 130.99 139.821C143.202 131.589 151.438 130.834 156.226 133.162Z" fill="url(#paint18_linear)" stroke="url(#paint19_linear)" stroke-width="3"/>
<path d="M179.573 125.684C174.623 133.555 165.99 148.067 160.168 162.934C157.125 170.704 154.818 178.651 154.237 185.844C153.845 190.702 154.233 195.314 155.792 199.308C145.844 192.368 140.359 182.332 137.473 172.721C134.133 161.595 134.334 151.221 135.048 147.311C136.323 140.325 138.276 136.314 140.26 133.498C141.264 132.074 142.296 130.927 143.326 129.809C143.419 129.709 143.511 129.608 143.604 129.508C144.461 128.58 145.336 127.633 146.123 126.588C159.455 118.848 172.732 119.662 179.573 125.684Z" fill="url(#paint20_linear)" stroke="url(#paint21_linear)" stroke-width="3"/>
<path d="M218.146 101.277C201.36 121.062 178.631 150.058 176.442 183.671C162.268 158.744 162.016 145.092 165.73 134.017C169.302 123.362 171.086 118.461 172.719 115.411C174.037 112.95 175.223 111.74 177.408 109.511C177.738 109.174 178.091 108.814 178.471 108.423C178.847 108.358 179.232 108.251 179.601 108.131C180.234 107.926 180.955 107.638 181.735 107.296C183.293 106.615 185.198 105.671 187.282 104.629C187.561 104.489 187.844 104.347 188.13 104.204C192.147 102.192 196.804 99.859 201.304 98.0826C206.195 96.1522 210.594 95.0097 213.672 95.4313C215.148 95.6333 216.198 96.178 216.905 97.0662C217.573 97.9054 218.072 99.2225 218.146 101.277Z" fill="url(#paint22_linear)" stroke="url(#paint23_linear)" stroke-width="3"/>
<path d="M226.011 54.0562C226.011 54.0562 194.828 46.6166 183.909 46.9154C172.989 47.2143 149.102 49.8104 149.102 49.8104" stroke="black" stroke-width="2"/>
<path d="M226.011 54.0562C226.011 54.0562 194.828 46.6166 183.909 46.9154C172.989 47.2143 149.102 49.8104 149.102 49.8104" stroke="black" stroke-width="2"/>
<path d="M339.714 95.0509C339.714 95.0509 316.661 64.4367 288.148 54.3043C259.635 44.172 225.783 54.3043 225.783 54.3043" stroke="black" stroke-width="2"/>
<path d="M310.958 129.549C310.958 129.549 291.64 111.603 268.176 105.344C244.712 99.0849 217.198 104.389 217.198 104.389" stroke="black" stroke-width="2"/>
<path d="M344.024 130.775C344.024 130.775 318.527 100.007 287.162 89.6956C255.798 79.3841 218.698 89.3123 218.698 89.3123" stroke="black" stroke-width="2"/>
<path d="M324.062 95.0509C324.062 95.0509 303.588 76.6903 278.756 70.2472C253.925 63.8042 224.838 69.1533 224.838 69.1533" stroke="black" stroke-width="2"/>
<path d="M107.243 133.53C107.243 133.53 86.4937 152.469 92.3192 177.316C98.1446 202.163 111.247 248.121 111.247 248.121" stroke="black" stroke-width="2"/>
<path d="M203.245 105.252C203.245 105.252 165.893 96.0791 153.349 96.4984C140.805 96.9177 112.581 113.386 112.581 113.386" stroke="black" stroke-width="2"/>
<path d="M203.459 87.0898C203.459 87.0898 168.53 76.9898 157.353 79.008C146.175 81.0262 128.84 87.0898 128.84 87.0898" stroke="black" stroke-width="2"/>
<path d="M212.632 69.496C212.632 69.496 181.6 62.0563 170.733 62.3552C159.866 62.654 136.094 65.2501 136.094 65.2501" stroke="black" stroke-width="2"/>
<path d="M348.571 107.234C348.571 107.234 366.467 163.649 359.889 188.359C353.311 213.069 342.383 248.121 342.383 248.121" stroke="black" stroke-width="2"/>
<path d="M173.004 113.386C173.004 113.386 141.094 130.152 141.094 155.121C141.094 180.09 156.018 199.993 156.018 199.993" stroke="black" stroke-width="2"/>
<path d="M221.78 114.712C221.78 114.712 236.059 119.013 241.336 143.662C246.614 168.311 241.336 189.706 241.336 189.706" stroke="black" stroke-width="2"/>
<path d="M321.139 141.611C321.139 141.611 324.905 152.26 332.191 176.713C339.477 201.165 321.139 232.151 321.139 232.151" stroke="black" stroke-width="2"/>
<path d="M190.597 114.712C190.597 114.712 176.642 117.54 173.004 143.059C169.366 168.578 178.727 187.877 178.727 187.877" stroke="black" stroke-width="2"/>
<path d="M234.641 112.059C234.641 112.059 275.287 115.436 292.273 137.631C309.259 159.825 299.418 216.044 299.418 216.044" stroke="black" stroke-width="2"/>
<path d="M84.7153 211.947C84.7153 211.947 80.7917 293.958 106.755 345.444M94.3812 229.304C94.3812 229.304 93.4121 297.717 119.375 349.203M110.64 273.693C110.64 273.693 106.757 299.99 132.72 351.476M126.17 290.58C126.17 290.58 119.863 301.094 145.826 352.58M145.826 326.285C145.826 326.285 149.951 340.398 155.774 352.924" stroke="black"/>
<path d="M352.818 323.495C373.445 271.763 373.445 165.962 373.445 165.962" stroke="black"/>
<path d="M341.533 328.094C357.307 295.285 357.307 245.468 357.307 245.468" stroke="black"/>
<path d="M330.614 331.741C346.387 298.931 346.508 257.53 346.508 257.53M309.017 336.417C316.661 326.285 316.661 316.876 316.661 316.876M320.907 334.153C330.614 313.499 330.614 293.958 330.614 293.958" stroke="black"/>
<path d="M302.987 42.3665C298.98 46.6641 295.122 50.7807 291.547 53.5783C309.002 61.9954 328.476 77.6952 338.876 96.0776C347.867 84.9261 352.8 71.1108 355.349 62.2282C356.758 57.3176 358.269 51.1094 359.154 45.0515C360.013 39.1805 360.243 33.6999 359.385 29.711C352.122 21.1687 345.35 18.0426 339.089 17.9466C332.608 17.8471 326.279 20.9831 320.137 25.7442C314.18 30.3616 308.614 36.3313 303.436 41.8852C303.286 42.046 303.137 42.2064 302.987 42.3665Z" fill="#C4C4C4" stroke="black" stroke-width="4"/>
<path d="M328.237 61.6261C326.042 66.045 323.769 70.4252 321.107 74.1552C325.7 78.8986 328.572 81.8799 331.105 85.0531C333.528 88.0887 335.625 91.2756 338.65 96.2989C347.697 85.1286 352.653 71.2524 355.21 62.341C356.621 57.4251 358.105 51.3923 358.964 45.512C359.719 40.3494 359.96 35.4943 359.357 31.6657C348.118 31.6651 341.4 38.1475 336.006 46.8597C333.604 50.7386 331.514 54.981 329.41 59.2516C329.02 60.0428 328.63 60.835 328.237 61.6261Z" fill="#FFDDDD" stroke="black" stroke-width="4"/>
<path d="M324.167 80.287C327.473 79.1331 330.91 77.5328 334.462 75.773C334.332 78.829 333.236 81.7158 331.781 84.0633C331.06 85.2269 330.265 86.2346 329.485 87.0421C327.742 87.337 326.077 87.4207 324.478 87.2533L323.967 87.1997L323.53 87.4691C323.042 87.7702 322.6 88.1325 322.267 88.5731C322.2 88.5138 322.133 88.4521 322.06 88.3852C321.919 88.2562 321.758 88.1075 321.534 87.918C321.147 87.5908 320.643 87.2193 319.969 87.0038C319.943 86.9822 319.919 86.9627 319.897 86.9455C319.725 86.8091 319.531 86.6777 319.341 86.5565C318.96 86.3143 318.48 86.0424 317.988 85.766C317.925 85.7303 317.861 85.6943 317.796 85.6581C316.828 85.1144 315.762 84.5161 314.843 83.8801C314.355 83.5432 313.944 83.2189 313.629 82.9142C313.305 82.5994 313.152 82.3695 313.093 82.234C313.088 82.2232 313.084 82.214 313.082 82.2063C313.098 82.184 313.126 82.1505 313.171 82.1073C316.745 82.3659 320.42 81.5952 324.167 80.287ZM327.427 91.9786C328.584 91.675 329.815 90.8515 330.942 89.8158C332.531 89.491 334.135 89.0263 335.754 88.4614C339.059 87.3076 342.497 85.7072 346.048 83.9474C345.918 87.0034 344.822 89.8903 343.367 92.2377C342.47 93.6855 341.458 94.8918 340.505 95.7716C339.518 96.6819 338.711 97.1355 338.241 97.2588C336.957 97.5957 336.102 97.6318 335.522 97.5574C334.968 97.4865 334.598 97.3072 334.279 97.085C334.023 96.9061 333.859 96.7556 333.646 96.5596C333.506 96.4306 333.344 96.2819 333.12 96.0924C332.734 95.7652 332.229 95.3937 331.555 95.1782C331.529 95.1566 331.505 95.1372 331.483 95.1199C331.312 94.9835 331.118 94.8521 330.927 94.7309C330.546 94.4887 330.066 94.2168 329.575 93.9404C329.511 93.9047 329.447 93.8687 329.382 93.8325C328.474 93.3225 327.48 92.7645 326.602 92.1724C326.868 92.1177 327.143 92.0532 327.427 91.9786Z" fill="url(#paint24_linear)" stroke="url(#paint25_linear)" stroke-width="3"/>
<path d="M131.229 41.1313C136.817 44.3509 142.181 47.4254 146.868 49.2802C129.907 61.566 112.666 81.4941 106.311 101.842C93.3083 93.1791 84.0767 80.9065 78.842 72.8833C75.9626 68.4701 72.6191 62.8274 70.0032 57.1827C67.464 51.7034 65.7214 46.4531 65.5859 42.3886C71.2656 32.348 77.9164 27.6496 84.8664 26.0528C92.0196 24.4093 99.8554 25.9633 107.886 29.1123C115.682 32.1695 123.414 36.6263 130.604 40.7709C130.813 40.8913 131.021 41.0115 131.229 41.1313Z" fill="#C4C4C4" stroke="black" stroke-width="4"/>
<path d="M119.968 76.1445C116.192 81.8495 113.848 85.4116 111.928 89.0795C110.068 92.6348 108.618 96.2635 106.611 101.996C93.5463 93.3293 84.2749 81.0069 79.0245 72.9596C76.1419 68.5416 72.8756 63.0621 70.337 57.5829C68.0816 52.715 66.4869 48.0267 66.1353 44.154C78.6721 41.3756 87.8926 46.1108 96.2055 53.2809C99.894 56.4623 103.339 60.0685 106.809 63.6999C107.452 64.3727 108.095 65.0465 108.741 65.7186C112.349 69.4707 116.034 73.1676 119.968 76.1445Z" fill="#FFDDDD" stroke="black" stroke-width="4"/>
<path d="M120.417 80.5929C116.885 79.8088 113.193 78.5363 109.38 77.1077C109.57 80.6708 110.878 83.8511 112.537 86.3003C113.317 87.451 114.162 88.4215 114.981 89.1802C116.772 89.2357 118.478 89.0744 120.109 88.6508L120.656 88.509L121.16 88.7601C121.671 89.0149 122.137 89.3398 122.501 89.7537C122.594 89.6514 122.683 89.5466 122.781 89.4327C122.921 89.2694 123.077 89.0871 123.28 88.8658C123.653 88.4604 124.142 87.9896 124.82 87.664C124.857 87.6227 124.892 87.5858 124.924 87.5535C125.084 87.3886 125.27 87.2221 125.459 87.0624C125.836 86.7437 126.314 86.3758 126.812 85.9958C126.877 85.9462 126.942 85.8962 127.008 85.8458C127.983 85.102 129.069 84.2738 130.003 83.4241C131.054 82.4682 131.67 81.695 131.849 81.1807C131.885 81.0771 131.89 81.021 131.889 80.997C131.883 80.9871 131.869 80.968 131.842 80.9412C128.173 81.7564 124.347 81.4654 120.417 80.5929ZM117.552 93.9679C116.319 93.806 114.999 93.0791 113.792 92.1168C112.146 91.9982 110.476 91.7307 108.788 91.3558C105.256 90.5716 101.564 89.2991 97.751 87.8705C97.9407 91.4336 99.2484 94.614 100.908 97.0632C101.894 98.5182 102.984 99.6851 103.995 100.5C105.044 101.346 105.87 101.703 106.324 101.762C107.65 101.936 108.53 101.849 109.132 101.677C109.716 101.511 110.12 101.243 110.474 100.919C110.744 100.671 110.927 100.458 111.152 100.196C111.291 100.032 111.448 99.85 111.651 99.6287C112.024 99.2233 112.513 98.7525 113.191 98.4268C113.228 98.3856 113.263 98.3487 113.295 98.3163C113.455 98.1514 113.641 97.985 113.83 97.8253C114.206 97.5065 114.685 97.1387 115.183 96.7587C115.247 96.7091 115.313 96.6591 115.379 96.6087C116.354 95.8649 117.44 95.0367 118.374 94.187C118.42 94.1453 118.465 94.1039 118.509 94.0629C118.202 94.043 117.884 94.0115 117.552 93.9679ZM131.887 80.9826C131.887 80.9829 131.887 80.9867 131.889 80.9932C131.889 80.9856 131.888 80.9824 131.887 80.9826Z" fill="url(#paint26_linear)" stroke="url(#paint27_linear)" stroke-width="3"/>
<path d="M228.718 276.399V276.712L228.814 277.011C228.936 277.39 228.905 277.69 228.741 278.007C228.549 278.378 228.111 278.882 227.222 279.427C225.437 280.523 222.324 281.487 217.782 281.972C215.267 281.965 213.118 281.706 211.646 281.002C210.938 280.663 210.454 280.252 210.139 279.772C209.828 279.299 209.593 278.624 209.593 277.606C209.593 276.592 209.88 275.276 210.44 273.701C210.992 272.148 211.765 270.463 212.637 268.743C213.505 267.031 214.448 265.327 215.34 263.715L215.351 263.697L215.355 263.689C215.933 262.645 216.495 261.629 216.991 260.689C217.569 260.946 218.302 261.391 219.176 262.091C220.654 263.276 222.236 264.948 223.697 266.814C225.155 268.675 226.444 270.667 227.358 272.452C228.315 274.321 228.718 275.691 228.718 276.399Z" stroke="url(#paint28_linear)" stroke-width="4"/>
<path d="M143.159 366.086L143.183 366.171L143.235 366.242C143.394 366.462 143.435 366.602 143.441 366.674C143.445 366.725 143.435 366.761 143.389 366.811C143.329 366.877 143.208 366.962 142.988 367.047C142.773 367.131 142.495 367.202 142.157 367.261C140.785 367.497 138.698 367.474 136.59 367.422C136.34 367.416 136.089 367.409 135.84 367.403C134.027 367.355 132.269 367.308 131.138 367.438C130.813 367.476 130.512 367.53 130.266 367.614C130.04 367.69 129.755 367.825 129.598 368.093C129.453 368.342 129.472 368.596 129.558 368.81C128.977 368.832 128.176 368.863 127.197 368.903C125.061 368.99 122.079 369.123 118.694 369.301C111.927 369.657 103.539 370.197 97.0838 370.933C90.8026 371.649 85.7914 370.464 82.0391 368.168C78.2855 365.871 75.761 362.442 74.4818 358.617C71.9186 350.951 74.3637 341.733 81.9106 336.888C94.8944 328.55 108.806 330.999 120.212 337.992C131.636 344.997 140.449 356.507 143.159 366.086Z" fill="#A21AE2" stroke="url(#paint29_linear)"/>
<path d="M115.769 396.963C114.79 405.544 115.822 415.206 121.67 423.666H121.621H121.56H121.5H121.44H121.38H121.32H121.26H121.199H121.139H121.079H121.018H120.958H120.898H120.837H120.777H120.717H120.656H120.596H120.535H120.475H120.414H120.354H120.293H120.233H120.172H120.111H120.051H119.99H119.929H119.869H119.808H119.747H119.686H119.626H119.565H119.504H119.443H119.382H119.321H119.26H119.199H119.138H119.077H119.016H118.955H118.894H118.833H118.771H118.71H118.649H118.588H118.526H118.465H118.404H118.342H118.281H118.219H118.158H118.096H118.035H117.973H117.911H117.85H117.788H117.726H117.665H117.603H117.541H117.479H117.417H117.355H117.293H117.231H117.169H117.107H117.045H116.983H116.921H116.859H116.796H116.734H116.672H116.609H116.547H116.484H116.422H116.359H116.297H116.234H116.172H116.109H116.046H115.984H115.921H115.858H115.795H115.732H115.669H115.606H115.543H115.48H115.417H115.354H115.29H115.227H115.164H115.101H115.037H114.974H114.91H114.847H114.783H114.72H114.656H114.592H114.528H114.465H114.401H114.337H114.273H114.209H114.145H114.081H114.017H113.952H113.888H113.824H113.76H113.695H113.631H113.566H113.502H113.437H113.373H113.308H113.243H113.178H113.114H113.049H112.984H112.919H112.854H112.789H112.724H112.658H112.593H112.528H112.462H112.397H112.332H112.266H112.2H112.135H112.069H112.003H111.938H111.872H111.806H111.74H111.674H111.608H111.542H111.475H111.409H111.343H111.276H111.21H111.144H111.077H111.01H110.944H110.877H110.81H110.743H110.676H110.609H110.542H110.475H110.408H110.341H110.274H110.206H110.139H110.071H110.004H109.936H109.869H109.801H109.733H109.665H109.597H109.529H109.461H109.393H109.325H109.257H109.188H109.12H109.051H108.983H108.914H108.846H108.777H108.708H108.639H108.57H108.501H108.432H108.363H108.294H108.225H108.155H108.086H108.016H107.947H107.877H107.807H107.738H107.668H107.598H107.528H107.458H107.388H107.318H107.247H107.177H107.106H107.036H106.965H106.895H106.824H106.753H106.682H106.611H106.54H106.469H106.398H106.327H106.255H106.184H106.112H106.041H105.969H105.897H105.826H105.754H105.682H105.61H105.538H105.465H105.393H105.321H105.248H105.176H105.103H105.03H104.958H104.885H104.812H104.739H104.666H104.593H104.519H104.446H104.373H104.299H104.225H104.152H104.078H104.004H103.93H103.856H103.782H103.708H103.634H103.559H103.485H103.41H103.336H103.261H103.186H103.111H103.036H102.961H102.886H102.811H102.735H102.66H102.584H102.509H102.433H102.357H102.281H102.205H102.129H102.053H101.977H101.901H101.824H101.748H101.671H101.594H101.517H101.441H101.364H101.286H101.209H101.132H101.055H100.977H100.9H100.822H100.744H100.666H100.588H100.51H100.432H100.354H100.276H100.197H100.119H100.04H99.9614H99.8826H99.8036H99.7246H99.6455H99.5663H99.487H99.4076H99.328H99.2484H99.1687H99.0889H99.0089H98.9289H98.8488H98.7686H98.6882H98.6078H98.5273H98.4466H98.3659H98.285H98.2041H98.123H98.0419H97.9606H97.8792H97.7978H97.7162H97.6345H97.5527H97.4708H97.3888H97.3067H97.2245H97.1422H97.0597H96.9772H96.8946H96.8118H96.7289H96.646H96.5629H96.4797H96.3964H96.313H96.2295H96.1458H96.0621H95.9782H95.8943H95.8102H95.726H95.6417H95.5573H95.4728H95.3882H95.3034H95.2186H95.1336H95.0485H94.9633H94.878H94.7926H94.707H94.6214H94.5356H94.4497H94.3637H94.2776H94.1913H94.105H94.0185H93.9319H93.8452H93.7584H93.6715H93.5844H93.4973H93.41H93.3226H93.235H93.1474H93.0596H92.9717H92.8837H92.7956H92.7074H92.619H92.5305H92.4419H92.3532H92.2643H92.1754H92.0863H91.997H91.9077H91.8182H91.7287H91.6389H91.5491H91.4592H91.3691H91.2789H91.1885H91.0981H91.0075H90.9168H90.826H90.735H90.6439H90.5527H90.4614H90.3699H90.2783H90.1866H90.0948H90.0028H89.9107H89.8185H89.7261H89.6336H89.541H89.4483H89.3554H89.2624H89.1693H89.076H88.9826H88.8891H88.7954H88.7016H88.6077H88.5136H88.4195H88.3251H88.2307H88.1361H88.0414H87.9465H87.8516H87.7564H87.6612H87.5658H87.4703H87.3746H87.2788H87.1829H87.0868H86.9906H86.8943H86.7978H86.7012H86.6045H86.5076H86.4106H86.3134H86.2161H86.1187H86.0211H85.9234H85.8297C101.951 406.87 100.612 388.506 97.2437 371.081C99.7161 370.939 102.182 369.953 104.521 368.866C105.148 368.574 105.765 368.276 106.371 367.983C108.251 367.075 110.033 366.213 111.733 365.734C113.946 365.109 115.886 365.173 117.583 366.602C119.308 368.053 120.873 370.98 122.111 376.341C119.845 380.574 116.764 388.23 115.769 396.963Z" fill="#A21AE2" stroke="url(#paint30_linear)"/>
<path d="M140.889 366.463L141.18 366.632L141.446 366.427C152.163 358.147 159.846 356.532 164.779 358.362C169.683 360.181 172.14 365.519 172.14 371.845C172.14 374.985 171.281 379.6 169.808 384.782C168.338 389.954 166.268 395.655 163.872 400.955C161.474 406.258 158.759 411.14 156.003 414.687C154.625 416.461 153.25 417.885 151.913 418.862C150.574 419.84 149.309 420.344 148.14 420.344C147.366 420.344 146.3 420.064 144.994 419.51C143.699 418.96 142.211 418.16 140.608 417.163C137.402 415.169 133.768 412.41 130.348 409.363C126.927 406.315 123.734 402.992 121.4 399.873C120.233 398.314 119.289 396.815 118.637 395.435C117.984 394.051 117.64 392.816 117.64 391.777C117.64 389.081 116.95 385.386 116.222 381.487C116.066 380.657 115.91 379.817 115.757 378.977C114.88 374.133 114.148 369.212 114.636 365.432C114.88 363.548 115.421 362.001 116.351 360.893C117.269 359.801 118.606 359.087 120.554 358.936C122.519 358.783 125.1 359.205 128.457 360.405C131.809 361.603 135.905 363.566 140.889 366.463Z" fill="#A21AE2" stroke="url(#paint31_linear)"/>
<path d="M187.139 388L187.192 388.012H187.247C196.297 388.012 203.058 389.941 207.542 393.122C212.009 396.29 214.247 400.718 214.247 405.828C214.247 408.303 213.098 410.662 211.151 412.789C209.203 414.915 206.482 416.78 203.415 418.247C197.264 421.191 189.861 422.473 184.762 421.19C179.532 419.874 174.483 418.066 170.75 415.31C167.037 412.569 164.64 408.904 164.64 403.819C164.64 399.749 164.829 396.459 165.411 393.875C165.992 391.296 166.955 389.472 168.465 388.271C169.978 387.068 172.113 386.432 175.162 386.387C178.212 386.342 182.125 386.889 187.139 388Z" fill="#A21AE2" stroke="url(#paint32_linear)"/>
<path d="M185.086 361.27C183.296 371.114 184.333 380.738 188.483 387.123C187.077 388.375 186.177 389.278 185.563 389.895C185.34 390.118 185.155 390.304 184.997 390.455C184.672 390.766 184.497 390.894 184.357 390.952C184.246 390.999 184.119 391.016 183.842 390.972C183.641 390.939 183.409 390.884 183.092 390.809C182.932 390.771 182.75 390.727 182.539 390.679C181.932 390.541 181.139 390.376 180.069 390.218C177.931 389.902 174.699 389.616 169.64 389.616C159.603 389.616 152.887 387.748 148.672 383.828C144.484 379.934 142.656 373.911 142.641 365.31C143.763 362.903 146.865 359.06 151.195 354.786C155.566 350.471 161.136 345.767 167.047 341.737C172.962 337.703 179.193 334.361 184.886 332.747C190.351 331.197 195.225 331.263 198.871 333.708C191.528 341.228 186.88 351.406 185.086 361.27Z" fill="#A21AE2" stroke="url(#paint33_linear)"/>
<path d="M238.64 348.59C238.64 357.854 229.341 365.531 217.64 365.531C205.94 365.531 196.64 357.854 196.64 348.59C196.64 339.327 205.94 331.65 217.64 331.65C229.341 331.65 238.64 339.327 238.64 348.59Z" fill="#D23333"/>
<path d="M238.64 348.59C238.64 357.854 229.341 365.531 217.64 365.531C205.94 365.531 196.64 357.854 196.64 348.59C196.64 339.327 205.94 331.65 217.64 331.65C229.341 331.65 238.64 339.327 238.64 348.59Z" stroke="url(#paint34_linear)"/>
<path d="M238.64 348.59C238.64 357.854 229.341 365.531 217.64 365.531C205.94 365.531 196.64 357.854 196.64 348.59C196.64 339.327 205.94 331.65 217.64 331.65C229.341 331.65 238.64 339.327 238.64 348.59Z" stroke="url(#paint35_linear)"/>
<path d="M280.116 332.535C285.702 331.697 290.287 331.01 301.639 330.034C301.606 335.352 301.086 339.396 299.428 343.427C297.723 347.571 294.799 351.739 289.88 357.267C277.258 359.681 270.396 360.487 260.395 357.437C263.187 352.726 264.515 349.467 265.132 346.138C265.673 343.218 265.661 340.257 265.646 336.261C265.644 335.696 265.642 335.11 265.641 334.501C272.358 333.698 276.452 333.084 280.116 332.535Z" fill="#D23333" stroke="url(#paint36_linear)"/>
<path d="M269.13 360.33C269.626 360.427 270.127 360.526 270.633 360.626C270.528 363.688 269.235 365.887 267.171 367.683C264.989 369.581 261.954 371.019 258.524 372.497C257.939 372.749 257.344 373.002 256.74 373.258C250.398 375.95 243.168 379.02 238.406 385.438C236.11 385.17 233.928 383.899 231.763 381.899C229.513 379.82 227.326 376.994 225.093 373.811C223.978 372.221 222.852 370.542 221.703 368.828C218.316 363.777 214.729 358.428 210.642 354.202C210.683 350.99 211.712 348.853 213.332 347.416C215.006 345.931 217.372 345.136 220.127 344.756C222.878 344.377 225.958 344.419 229.01 344.56C229.975 344.604 230.941 344.659 231.891 344.712C233.844 344.822 235.735 344.929 237.433 344.937C243.414 350.909 248.678 354.235 254.017 356.373C258.826 358.3 263.687 359.258 269.13 360.33Z" fill="#D23333"/>
<path d="M269.13 360.33C269.626 360.427 270.127 360.526 270.633 360.626C270.528 363.688 269.235 365.887 267.171 367.683C264.989 369.581 261.954 371.019 258.524 372.497C257.939 372.749 257.344 373.002 256.74 373.258C250.398 375.95 243.168 379.02 238.406 385.438C236.11 385.17 233.928 383.899 231.763 381.899C229.513 379.82 227.326 376.994 225.093 373.811C223.978 372.221 222.852 370.542 221.703 368.828C218.316 363.777 214.729 358.428 210.642 354.202C210.683 350.99 211.712 348.853 213.332 347.416C215.006 345.931 217.372 345.136 220.127 344.756C222.878 344.377 225.958 344.419 229.01 344.56C229.975 344.604 230.941 344.659 231.891 344.712C233.844 344.822 235.735 344.929 237.433 344.937C243.414 350.909 248.678 354.235 254.017 356.373C258.826 358.3 263.687 359.258 269.13 360.33Z" stroke="url(#paint37_linear)"/>
<path d="M269.13 360.33C269.626 360.427 270.127 360.526 270.633 360.626C270.528 363.688 269.235 365.887 267.171 367.683C264.989 369.581 261.954 371.019 258.524 372.497C257.939 372.749 257.344 373.002 256.74 373.258C250.398 375.95 243.168 379.02 238.406 385.438C236.11 385.17 233.928 383.899 231.763 381.899C229.513 379.82 227.326 376.994 225.093 373.811C223.978 372.221 222.852 370.542 221.703 368.828C218.316 363.777 214.729 358.428 210.642 354.202C210.683 350.99 211.712 348.853 213.332 347.416C215.006 345.931 217.372 345.136 220.127 344.756C222.878 344.377 225.958 344.419 229.01 344.56C229.975 344.604 230.941 344.659 231.891 344.712C233.844 344.822 235.735 344.929 237.433 344.937C243.414 350.909 248.678 354.235 254.017 356.373C258.826 358.3 263.687 359.258 269.13 360.33Z" stroke="url(#paint38_linear)"/>
<path d="M272.944 410.803C273.699 413.358 274.463 415.946 275.041 418.742C262.863 419.976 258.117 420.449 253.399 421.122C248.91 421.761 244.447 422.581 233.636 424.406C233.589 421.208 233.171 417.937 232.752 414.665C232.665 413.979 232.577 413.294 232.493 412.609C231.98 408.434 231.589 404.263 232.046 400.138C232.502 396.024 233.802 391.956 236.677 387.996C239.555 384.031 244.032 380.148 250.879 376.437L250.919 376.415L250.955 376.385C253.836 374.049 256.581 371.792 259.182 369.653C267.703 362.645 274.683 356.905 279.864 353.796C281.549 352.785 283.019 352.067 284.272 351.674C285.531 351.279 286.516 351.229 287.266 351.479C287.991 351.722 288.576 352.274 288.989 353.275C289.396 354.261 289.626 355.659 289.64 357.544C275.207 374.658 270.667 385.731 270.232 394.762C270.015 399.286 270.829 403.263 271.901 407.182C272.233 408.394 272.588 409.594 272.944 410.803Z" fill="#D23333" stroke="url(#paint39_linear)"/>
<path d="M329.64 401.743C329.64 409.153 326.615 414.192 322.196 417.395C317.756 420.614 311.869 422.005 306.14 422.005C300.398 422.005 294.509 420.816 290.072 417.802C285.663 414.807 282.64 409.981 282.64 402.573C282.64 395.157 285.672 389.693 290.107 386.073C294.555 382.442 300.439 380.65 306.14 380.65C311.855 380.65 317.74 382.242 322.184 385.666C326.612 389.078 329.64 394.33 329.64 401.743Z" fill="#107927" stroke="url(#paint40_linear)"/>
<path d="M371.407 404.988C372.145 406.755 373.121 408.654 376.188 411.862C365.717 414.683 358.667 417.202 345.298 424.345C342.053 419.614 340.881 416.442 340.279 413.134C340.001 411.604 339.844 410.042 339.665 408.261C339.643 408.049 339.622 407.833 339.599 407.614C339.404 405.689 339.167 403.517 338.721 400.916C352.16 398.92 358.183 398.92 367.78 398.921L367.908 398.921C369.919 401.324 370.525 402.819 371.147 404.354C371.232 404.564 371.318 404.775 371.407 404.988Z" fill="#107927" stroke="url(#paint41_linear)"/>
<path d="M359.394 340.277C357.819 343.496 356.717 346.486 356.644 351.014C354.616 351.084 353.219 351.145 352.027 351.197C348.824 351.337 347.11 351.413 338.64 351.413C332.82 351.413 329.372 349.553 327.348 346.641C325.339 343.749 324.667 339.728 324.641 335.168C331.489 331.01 337.515 328.896 343.881 328.015C350.17 327.146 356.813 327.477 364.952 328.263C363.454 332.365 361.939 335.302 360.612 337.876C360.184 338.705 359.776 339.496 359.394 340.277Z" fill="#107927" stroke="url(#paint42_linear)"/>
<path d="M339.164 344.89C338.927 347.143 338.66 349.678 338.641 352.444C333.696 355.136 329.112 358.686 326.049 363.844C322.981 369.009 321.47 375.736 322.584 384.723C318.07 385.522 315.368 386.241 312.724 387.416C310.429 388.435 308.184 389.797 304.839 391.825C304.51 392.025 304.17 392.231 303.818 392.444C304.652 387.251 304.734 381.98 304.795 376.788C304.796 376.643 304.798 376.498 304.8 376.353C304.863 370.934 304.924 365.607 305.795 360.468C306.688 355.202 308.428 350.152 311.882 345.445C315.321 340.759 320.481 336.384 328.258 332.481C332.311 332.49 334.935 332.984 336.618 333.862C338.272 334.725 339.047 335.975 339.362 337.639C339.686 339.347 339.519 341.467 339.254 344.029C339.225 344.311 339.195 344.598 339.164 344.89Z" fill="#107927"/>
<path d="M339.164 344.89C338.927 347.143 338.66 349.678 338.641 352.444C333.696 355.136 329.112 358.686 326.049 363.844C322.981 369.009 321.47 375.736 322.584 384.723C318.07 385.522 315.368 386.241 312.724 387.416C310.429 388.435 308.184 389.797 304.839 391.825C304.51 392.025 304.17 392.231 303.818 392.444C304.652 387.251 304.734 381.98 304.795 376.788C304.796 376.643 304.798 376.498 304.8 376.353C304.863 370.934 304.924 365.607 305.795 360.468C306.688 355.202 308.428 350.152 311.882 345.445C315.321 340.759 320.481 336.384 328.258 332.481C332.311 332.49 334.935 332.984 336.618 333.862C338.272 334.725 339.047 335.975 339.362 337.639C339.686 339.347 339.519 341.467 339.254 344.029C339.225 344.311 339.195 344.598 339.164 344.89Z" stroke="url(#paint43_linear)"/>
<path d="M339.164 344.89C338.927 347.143 338.66 349.678 338.641 352.444C333.696 355.136 329.112 358.686 326.049 363.844C322.981 369.009 321.47 375.736 322.584 384.723C318.07 385.522 315.368 386.241 312.724 387.416C310.429 388.435 308.184 389.797 304.839 391.825C304.51 392.025 304.17 392.231 303.818 392.444C304.652 387.251 304.734 381.98 304.795 376.788C304.796 376.643 304.798 376.498 304.8 376.353C304.863 370.934 304.924 365.607 305.795 360.468C306.688 355.202 308.428 350.152 311.882 345.445C315.321 340.759 320.481 336.384 328.258 332.481C332.311 332.49 334.935 332.984 336.618 333.862C338.272 334.725 339.047 335.975 339.362 337.639C339.686 339.347 339.519 341.467 339.254 344.029C339.225 344.311 339.195 344.598 339.164 344.89Z" stroke="url(#paint44_linear)"/>
<path d="M338.622 352.462L338.64 352.396V352.328C338.64 350.34 339.054 349.518 339.621 349.174C339.919 348.994 340.325 348.901 340.884 348.906C341.443 348.911 342.116 349.013 342.919 349.184C343.613 349.331 344.392 349.528 345.253 349.746C348.222 350.497 352.172 351.497 357.019 351.577C356.177 355.787 356.823 361.371 358.02 366.661C359.194 371.851 360.917 376.834 362.374 380.094C358.836 380.241 355.764 380.501 353.034 380.732C351.595 380.854 350.25 380.967 348.982 381.052C345.193 381.306 342.054 381.306 338.941 380.54C336.141 376.546 335.533 371.387 335.897 366.274C336.266 361.104 337.622 356.06 338.622 352.462Z" fill="#107927"/>
<path d="M338.622 352.462L338.64 352.396V352.328C338.64 350.34 339.054 349.518 339.621 349.174C339.919 348.994 340.325 348.901 340.884 348.906C341.443 348.911 342.116 349.013 342.919 349.184C343.613 349.331 344.392 349.528 345.253 349.746C348.222 350.497 352.172 351.497 357.019 351.577C356.177 355.787 356.823 361.371 358.02 366.661C359.194 371.851 360.917 376.834 362.374 380.094C358.836 380.241 355.764 380.501 353.034 380.732C351.595 380.854 350.25 380.967 348.982 381.052C345.193 381.306 342.054 381.306 338.941 380.54C336.141 376.546 335.533 371.387 335.897 366.274C336.266 361.104 337.622 356.06 338.622 352.462Z" stroke="url(#paint45_linear)"/>
<path d="M338.622 352.462L338.64 352.396V352.328C338.64 350.34 339.054 349.518 339.621 349.174C339.919 348.994 340.325 348.901 340.884 348.906C341.443 348.911 342.116 349.013 342.919 349.184C343.613 349.331 344.392 349.528 345.253 349.746C348.222 350.497 352.172 351.497 357.019 351.577C356.177 355.787 356.823 361.371 358.02 366.661C359.194 371.851 360.917 376.834 362.374 380.094C358.836 380.241 355.764 380.501 353.034 380.732C351.595 380.854 350.25 380.967 348.982 381.052C345.193 381.306 342.054 381.306 338.941 380.54C336.141 376.546 335.533 371.387 335.897 366.274C336.266 361.104 337.622 356.06 338.622 352.462Z" stroke="url(#paint46_linear)"/>
<path d="M364.884 390.242C365.468 392.809 366.065 395.166 367.35 397.93C346.931 398.192 334.486 399.627 320.743 404.497C317.48 401.723 316.238 399.632 315.773 397.47C315.532 396.348 315.495 395.182 315.522 393.846C315.532 393.363 315.551 392.852 315.57 392.313C315.602 391.424 315.637 390.46 315.64 389.424C316.586 387.907 318.758 386.514 321.905 385.305C325.1 384.078 329.194 383.08 333.742 382.319C342.722 380.817 353.405 380.25 362.281 380.634C363.517 384.171 364.13 386.896 364.686 389.368C364.753 389.662 364.818 389.953 364.884 390.242Z" fill="#107927"/>
<path d="M364.884 390.242C365.468 392.809 366.065 395.166 367.35 397.93C346.931 398.192 334.486 399.627 320.743 404.497C317.48 401.723 316.238 399.632 315.773 397.47C315.532 396.348 315.495 395.182 315.522 393.846C315.532 393.363 315.551 392.852 315.57 392.313C315.602 391.424 315.637 390.46 315.64 389.424C316.586 387.907 318.758 386.514 321.905 385.305C325.1 384.078 329.194 383.08 333.742 382.319C342.722 380.817 353.405 380.25 362.281 380.634C363.517 384.171 364.13 386.896 364.686 389.368C364.753 389.662 364.818 389.953 364.884 390.242Z" stroke="url(#paint47_linear)"/>
<path d="M364.884 390.242C365.468 392.809 366.065 395.166 367.35 397.93C346.931 398.192 334.486 399.627 320.743 404.497C317.48 401.723 316.238 399.632 315.773 397.47C315.532 396.348 315.495 395.182 315.522 393.846C315.532 393.363 315.551 392.852 315.57 392.313C315.602 391.424 315.637 390.46 315.64 389.424C316.586 387.907 318.758 386.514 321.905 385.305C325.1 384.078 329.194 383.08 333.742 382.319C342.722 380.817 353.405 380.25 362.281 380.634C363.517 384.171 364.13 386.896 364.686 389.368C364.753 389.662 364.818 389.953 364.884 390.242Z" stroke="url(#paint48_linear)"/>
<path d="M364.884 390.242C365.468 392.809 366.065 395.166 367.35 397.93C346.931 398.192 334.486 399.627 320.743 404.497C317.48 401.723 316.238 399.632 315.773 397.47C315.532 396.348 315.495 395.182 315.522 393.846C315.532 393.363 315.551 392.852 315.57 392.313C315.602 391.424 315.637 390.46 315.64 389.424C316.586 387.907 318.758 386.514 321.905 385.305C325.1 384.078 329.194 383.08 333.742 382.319C342.722 380.817 353.405 380.25 362.281 380.634C363.517 384.171 364.13 386.896 364.686 389.368C364.753 389.662 364.818 389.953 364.884 390.242Z" stroke="url(#paint49_linear)"/>
<defs>
<linearGradient id="paint0_linear" x1="218.852" y1="65.3513" x2="229.765" y2="346.363" gradientUnits="userSpaceOnUse">
<stop offset="0.354167" stop-color="#63A9FB" stop-opacity="0.953771"/>
<stop offset="0.552083" stop-color="#7AACE6"/>
<stop offset="0.723958" stop-color="#1A71D7" stop-opacity="0.81"/>
</linearGradient>
<linearGradient id="paint1_linear" x1="221.282" y1="63.6889" x2="221.282" y2="350.771" gradientUnits="userSpaceOnUse">
<stop offset="0.572575"/>
<stop offset="0.706208" stop-opacity="0"/>
</linearGradient>
<linearGradient id="paint2_linear" x1="350.399" y1="229.45" x2="367.992" y2="230.427" gradientUnits="userSpaceOnUse">
<stop stop-color="#EAE1E1"/>
<stop stop-color="#E4ADAD"/>
<stop offset="1"/>
</linearGradient>
<linearGradient id="paint3_linear" x1="117.704" y1="259.818" x2="107.358" y2="260.21" gradientUnits="userSpaceOnUse">
<stop stop-color="#EAE1E1"/>
<stop stop-color="#E4ADAD"/>
<stop offset="1"/>
</linearGradient>
<linearGradient id="paint4_linear" x1="227.248" y1="16.9127" x2="227.248" y2="199.053" gradientUnits="userSpaceOnUse">
<stop stop-color="#155BAD"/>
<stop offset="0.255208" stop-color="#5F9EE8"/>
</linearGradient>
<linearGradient id="paint5_linear" x1="227.248" y1="16.9127" x2="242.124" y2="98.2435" gradientUnits="userSpaceOnUse">
<stop/>
<stop offset="0.737398" stop-opacity="0"/>
</linearGradient>
<linearGradient id="paint6_linear" x1="350.144" y1="64.1038" x2="350.144" y2="210.76" gradientUnits="userSpaceOnUse">
<stop stop-color="#5E9DE6" stop-opacity="0"/>
<stop offset="0.541667" stop-color="#5C9BE3"/>
</linearGradient>
<linearGradient id="paint7_linear" x1="350.144" y1="64.1038" x2="350.144" y2="210.76" gradientUnits="userSpaceOnUse">
<stop offset="0.364583" stop-opacity="0"/>
<stop offset="0.682292"/>
</linearGradient>
<linearGradient id="paint8_linear" x1="280.242" y1="112.746" x2="280.242" y2="229.044" gradientUnits="userSpaceOnUse">
<stop offset="0.541667" stop-color="#5C9BE3"/>
<stop offset="1" stop-color="#5E9DE6" stop-opacity="0"/>
</linearGradient>
<linearGradient id="paint9_linear" x1="280.242" y1="112.746" x2="280.242" y2="229.044" gradientUnits="userSpaceOnUse">
<stop offset="0.364583" stop-opacity="0"/>
<stop offset="0.682292"/>
</linearGradient>
<linearGradient id="paint10_linear" x1="283.537" y1="109.749" x2="283.537" y2="225.788" gradientUnits="userSpaceOnUse">
<stop offset="0.484375" stop-color="#5C9BE3"/>
<stop offset="1" stop-color="#5E9DE6" stop-opacity="0"/>
</linearGradient>
<linearGradient id="paint11_linear" x1="339.07" y1="65.971" x2="357.845" y2="162.85" gradientUnits="userSpaceOnUse">
<stop offset="0.601832" stop-opacity="0"/>
<stop offset="0.682292"/>
</linearGradient>
<linearGradient id="paint12_linear" x1="269.598" y1="127.462" x2="281.143" y2="205.457" gradientUnits="userSpaceOnUse">
<stop offset="0.541667" stop-color="#5C9BE3"/>
<stop offset="1" stop-color="#5E9DE6" stop-opacity="0"/>
</linearGradient>
<linearGradient id="paint13_linear" x1="266.926" y1="126.666" x2="277.36" y2="197.156" gradientUnits="userSpaceOnUse">
<stop offset="0.364583" stop-opacity="0"/>
<stop offset="0.682292"/>
</linearGradient>
<linearGradient id="paint14_linear" x1="228.558" y1="100.117" x2="228.558" y2="193.238" gradientUnits="userSpaceOnUse">
<stop offset="0.541667" stop-color="#5C9BE3"/>
<stop offset="1" stop-color="#5E9DE6" stop-opacity="0"/>
</linearGradient>
<linearGradient id="paint15_linear" x1="228.558" y1="100.117" x2="228.558" y2="193.238" gradientUnits="userSpaceOnUse">
<stop offset="0.364583" stop-opacity="0"/>
<stop offset="0.682292"/>
</linearGradient>
<linearGradient id="paint16_linear" x1="118.769" y1="96.4983" x2="111.331" y2="132.944" gradientUnits="userSpaceOnUse">
<stop offset="0.0250813" stop-color="#5E9DE6" stop-opacity="0"/>
<stop offset="0.713542" stop-color="#5C9BE3"/>
</linearGradient>
<linearGradient id="paint17_linear" x1="99.8507" y1="74.4832" x2="99.8507" y2="221.232" gradientUnits="userSpaceOnUse">
<stop offset="0.364583" stop-opacity="0"/>
<stop offset="0.682292"/>
</linearGradient>
<linearGradient id="paint18_linear" x1="128.785" y1="147.526" x2="138.795" y2="219.188" gradientUnits="userSpaceOnUse">
<stop offset="0.541667" stop-color="#5C9BE3"/>
<stop offset="1" stop-color="#5E9DE6" stop-opacity="0"/>
</linearGradient>
<linearGradient id="paint19_linear" x1="133.205" y1="150.399" x2="125.381" y2="177.849" gradientUnits="userSpaceOnUse">
<stop offset="0.322917" stop-opacity="0"/>
<stop offset="0.786458"/>
</linearGradient>
<linearGradient id="paint20_linear" x1="142.251" y1="148.406" x2="152.266" y2="216.06" gradientUnits="userSpaceOnUse">
<stop offset="0.541667" stop-color="#5C9BE3"/>
<stop offset="1" stop-color="#5E9DE6" stop-opacity="0"/>
</linearGradient>
<linearGradient id="paint21_linear" x1="144.624" y1="147.021" x2="153.675" y2="208.165" gradientUnits="userSpaceOnUse">
<stop offset="0.364583" stop-opacity="0"/>
<stop offset="0.682292"/>
</linearGradient>
<linearGradient id="paint22_linear" x1="190.931" y1="93.8447" x2="190.931" y2="188.906" gradientUnits="userSpaceOnUse">
<stop offset="0.541667" stop-color="#5C9BE3"/>
<stop offset="1" stop-color="#5E9DE6" stop-opacity="0"/>
</linearGradient>
<linearGradient id="paint23_linear" x1="190.931" y1="93.8447" x2="190.931" y2="188.906" gradientUnits="userSpaceOnUse">
<stop offset="0.364583" stop-opacity="0"/>
<stop offset="0.682292"/>
</linearGradient>
<linearGradient id="paint24_linear" x1="318.692" y1="94.0537" x2="345.004" y2="77.628" gradientUnits="userSpaceOnUse">
<stop offset="0.541667" stop-color="#5C9BE3"/>
<stop offset="1" stop-color="#5E9DE6" stop-opacity="0"/>
</linearGradient>
<linearGradient id="paint25_linear" x1="328.552" y1="101.615" x2="343.819" y2="88.3059" gradientUnits="userSpaceOnUse">
<stop offset="0.364583" stop-opacity="0"/>
<stop offset="0.682292"/>
</linearGradient>
<linearGradient id="paint26_linear" x1="126.53" y1="95.0959" x2="98.6257" y2="81.0315" gradientUnits="userSpaceOnUse">
<stop offset="0.541667" stop-color="#5C9BE3"/>
<stop offset="1" stop-color="#5E9DE6" stop-opacity="0"/>
</linearGradient>
<linearGradient id="paint27_linear" x1="116.658" y1="104.921" x2="99.8638" y2="93.2324" gradientUnits="userSpaceOnUse">
<stop offset="0.364583" stop-opacity="0"/>
<stop offset="0.682292"/>
</linearGradient>
<linearGradient id="paint28_linear" x1="211.4" y1="281.228" x2="223.18" y2="272.116" gradientUnits="userSpaceOnUse">
<stop offset="0.213542"/>
<stop offset="0.911458" stop-opacity="0"/>
</linearGradient>
<linearGradient id="paint29_linear" x1="106.241" y1="331.519" x2="121.294" y2="377.098" gradientUnits="userSpaceOnUse">
<stop/>
<stop offset="1" stop-opacity="0"/>
</linearGradient>
<linearGradient id="paint30_linear" x1="106.14" y1="424.166" x2="95.5891" y2="375.042" gradientUnits="userSpaceOnUse">
<stop/>
<stop offset="1" stop-opacity="0"/>
</linearGradient>
<linearGradient id="paint31_linear" x1="149.14" y1="420.844" x2="146.375" y2="383.381" gradientUnits="userSpaceOnUse">
<stop/>
<stop offset="1" stop-opacity="0"/>
</linearGradient>
<linearGradient id="paint32_linear" x1="204.14" y1="417.107" x2="175.491" y2="383.104" gradientUnits="userSpaceOnUse">
<stop/>
<stop offset="1" stop-opacity="0"/>
</linearGradient>
<linearGradient id="paint33_linear" x1="186.14" y1="332.811" x2="163.26" y2="379.33" gradientUnits="userSpaceOnUse">
<stop/>
<stop offset="1" stop-opacity="0"/>
</linearGradient>
<linearGradient id="paint34_linear" x1="202.64" y1="357.726" x2="224.105" y2="368.963" gradientUnits="userSpaceOnUse">
<stop/>
<stop offset="1" stop-opacity="0"/>
</linearGradient>
<linearGradient id="paint35_linear" x1="223.64" y1="332.811" x2="217.059" y2="349.542" gradientUnits="userSpaceOnUse">
<stop/>
<stop offset="1" stop-color="white" stop-opacity="0"/>
</linearGradient>
<linearGradient id="paint36_linear" x1="275.64" y1="355.65" x2="275.64" y2="360.218" gradientUnits="userSpaceOnUse">
<stop/>
<stop offset="0.453125" stop-opacity="0"/>
</linearGradient>
<linearGradient id="paint37_linear" x1="222.14" y1="367.692" x2="231.121" y2="356.879" gradientUnits="userSpaceOnUse">
<stop offset="0.0833333"/>
<stop offset="0.25" stop-opacity="0"/>
</linearGradient>
<linearGradient id="paint38_linear" x1="243.14" y1="354.404" x2="233.966" y2="359.928" gradientUnits="userSpaceOnUse">
<stop/>
<stop offset="0.0001" stop-color="white" stop-opacity="0"/>
</linearGradient>
<linearGradient id="paint39_linear" x1="261.14" y1="421.675" x2="238.887" y2="372.104" gradientUnits="userSpaceOnUse">
<stop offset="0.5"/>
<stop offset="0.875" stop-opacity="0"/>
</linearGradient>
<linearGradient id="paint40_linear" x1="295.64" y1="418.353" x2="324.817" y2="389.331" gradientUnits="userSpaceOnUse">
<stop/>
<stop offset="1" stop-opacity="0"/>
</linearGradient>
<linearGradient id="paint41_linear" x1="360.64" y1="417.107" x2="356.779" y2="398.088" gradientUnits="userSpaceOnUse">
<stop/>
<stop offset="1" stop-opacity="0"/>
</linearGradient>
<linearGradient id="paint42_linear" x1="366.14" y1="326.997" x2="336.598" y2="359.062" gradientUnits="userSpaceOnUse">
<stop offset="0.0510956"/>
<stop offset="1" stop-opacity="0"/>
</linearGradient>
<linearGradient id="paint43_linear" x1="305.64" y1="365.201" x2="314.138" y2="369.18" gradientUnits="userSpaceOnUse">
<stop/>
<stop offset="1" stop-opacity="0"/>
</linearGradient>
<linearGradient id="paint44_linear" x1="324.14" y1="368.938" x2="318.515" y2="366.115" gradientUnits="userSpaceOnUse">
<stop/>
<stop offset="1" stop-color="white" stop-opacity="0"/>
</linearGradient>
<linearGradient id="paint45_linear" x1="357.14" y1="365.201" x2="356.14" y2="365.201" gradientUnits="userSpaceOnUse">
<stop/>
<stop offset="1" stop-opacity="0"/>
</linearGradient>
<linearGradient id="paint46_linear" x1="335.14" y1="367.692" x2="342.14" y2="367.692" gradientUnits="userSpaceOnUse">
<stop/>
<stop offset="1" stop-color="white" stop-opacity="0"/>
</linearGradient>
<linearGradient id="paint47_linear" x1="331.64" y1="382.226" x2="332.716" y2="385.68" gradientUnits="userSpaceOnUse">
<stop/>
<stop offset="1" stop-opacity="0"/>
</linearGradient>
<linearGradient id="paint48_linear" x1="364.64" y1="389.285" x2="362.286" y2="390.419" gradientUnits="userSpaceOnUse">
<stop/>
<stop offset="1" stop-color="white" stop-opacity="0"/>
</linearGradient>
<linearGradient id="paint49_linear" x1="335.14" y1="401.327" x2="335.14" y2="398.421" gradientUnits="userSpaceOnUse">
<stop/>
<stop offset="1" stop-color="white" stop-opacity="0"/>
</linearGradient>
</defs>
</svg>

