<svg width="168" height="158" viewBox="0 0 168 158" fill="none" xmlns="http://www.w3.org/2000/svg">
<ellipse cx="84" cy="79" rx="84" ry="79" fill="#C4C4C4" fill-opacity="0.1"/>
<rect x="14.0247" y="17.374" width="138.568" height="123.563" rx="61.7815" fill="#EEEEEE" stroke="#A8A2A2" stroke-width="8"/>
<path d="M33.9521 42.8948L34.0894 42.5964V42.2679C34.0894 42.0683 34.1647 41.7879 34.5444 41.3998C34.9427 40.9927 35.608 40.5441 36.6031 40.0874C38.591 39.1751 41.5425 38.3871 45.256 37.7272C52.6546 36.4124 62.6783 35.6721 73.0786 35.2747C89.6657 34.6409 107.008 34.884 115.876 35.0084C117.817 35.0356 119.352 35.0571 120.384 35.0625C131.217 42.3147 136.568 50.956 138.276 62.454C140.004 74.0848 138.015 88.6989 133.875 107.877C122.72 113.225 104.09 117.319 84.9353 119.095C65.7505 120.874 46.356 120.299 33.7225 116.504C26.2546 97.2255 21.8962 69.0997 33.9521 42.8948Z" fill="url(#paint0_linear)" stroke="url(#paint1_linear)" stroke-width="3"/>
<mask id="path-4-inside-1" fill="white">
<path d="M138.413 76.9158C138.413 81.6215 133.469 87.3711 127.709 88.8966C124.327 88.8966 126.167 81.6215 126.167 76.9158C126.167 73.0835 127.709 68.9162 132.29 68.3953C136.644 69.5488 138.957 72.5625 138.413 76.9158Z"/>
</mask>
<path d="M138.413 76.9158C138.413 81.6215 133.469 87.3711 127.709 88.8966C124.327 88.8966 126.167 81.6215 126.167 76.9158C126.167 73.0835 127.709 68.9162 132.29 68.3953C136.644 69.5488 138.957 72.5625 138.413 76.9158Z" fill="#FFDDDD"/>
<path d="M138.413 76.9158L135.436 76.5436C135.421 76.6671 135.413 76.7914 135.413 76.9158H138.413ZM127.709 88.8966V91.8966C127.968 91.8966 128.226 91.863 128.477 91.7966L127.709 88.8966ZM132.29 68.3953L133.058 65.4954C132.697 65.3998 132.322 65.3724 131.951 65.4145L132.29 68.3953ZM135.413 76.9158C135.413 78.291 134.637 80.227 132.972 82.1137C131.343 83.959 129.159 85.409 126.941 85.9966L128.477 91.7966C132.019 90.8586 135.187 88.6711 137.47 86.0839C139.717 83.538 141.413 80.2464 141.413 76.9158H135.413ZM127.709 85.8966C127.859 85.8966 128.177 85.9502 128.489 86.1879C128.766 86.3986 128.84 86.6041 128.826 86.5694C128.76 86.4043 128.652 85.8622 128.67 84.7172C128.686 83.6478 128.798 82.4202 128.921 81.039C129.038 79.7211 129.167 78.2489 129.167 76.9158H123.167C123.167 77.9356 123.066 79.1374 122.944 80.507C122.828 81.8134 122.691 83.287 122.67 84.6245C122.651 85.8865 122.717 87.4572 123.257 88.8032C123.546 89.5241 124.031 90.3347 124.854 90.9617C125.713 91.6156 126.714 91.8966 127.709 91.8966V85.8966ZM129.167 76.9158C129.167 75.3437 129.492 73.9355 130.078 72.9651C130.593 72.1136 131.332 71.5236 132.629 71.3761L131.951 65.4145C128.667 65.788 126.345 67.542 124.943 69.8625C123.613 72.064 123.167 74.6556 123.167 76.9158H129.167ZM131.522 71.2953C133.211 71.7428 134.214 72.4706 134.767 73.2267C135.298 73.9535 135.629 74.9972 135.436 76.5436L141.39 77.288C141.741 74.4812 141.187 71.8413 139.61 69.6846C138.054 67.5571 135.723 66.2013 133.058 65.4954L131.522 71.2953Z" fill="url(#paint2_linear)" mask="url(#path-4-inside-1)"/>
<path d="M127.994 77.9612C127.994 78.5724 128.185 79.2232 128.071 79.8303C127.955 80.4486 127.795 81.0755 127.795 81.6995C127.795 82.3354 127.695 82.9652 127.695 83.5959C127.695 84.1062 127.894 84.5624 127.894 85.0658" stroke="black" stroke-linecap="round" stroke-linejoin="round"/>
<path d="M127.994 86.209C129.258 86.0608 130.181 84.9165 130.46 83.9588C130.742 82.9932 131.08 81.9782 131.08 80.9827" stroke="black" stroke-linecap="round" stroke-linejoin="round"/>
<path d="M134.862 80.9827C135.911 80.1909 135.914 78.8839 136.156 77.7888C136.25 77.3659 136.465 76.6264 136.156 76.2462" stroke="black" stroke-linecap="round" stroke-linejoin="round"/>
<path d="M130.88 72.3264C131.657 72.7111 132.345 73.0468 132.927 73.5967C133.279 73.9296 133.252 74.3392 133.469 74.6946" stroke="black" stroke-linecap="round" stroke-linejoin="round"/>
<mask id="path-10-inside-2" fill="white">
<path d="M32.9468 84.4413C31.9133 89.2912 37.7092 99.3615 41.2275 97.4267C43.2129 97.4267 42.1329 91.1683 42.1329 87.1202C42.1329 83.8234 41.2275 80.2385 38.5381 79.7904C35.5321 79.2896 34.0807 79.1207 32.9468 84.4413Z"/>
</mask>
<path d="M32.9468 84.4413C31.9133 89.2912 37.7092 99.3615 41.2275 97.4267C43.2129 97.4267 42.1329 91.1683 42.1329 87.1202C42.1329 83.8234 41.2275 80.2385 38.5381 79.7904C35.5321 79.2896 34.0807 79.1207 32.9468 84.4413Z" fill="#FFDDDD"/>
<path d="M32.9468 84.4413L30.0127 83.8161L30.0127 83.8161L32.9468 84.4413ZM41.2275 97.4267L39.782 94.798C40.2249 94.5544 40.7221 94.4267 41.2275 94.4267V97.4267ZM38.5381 79.7904L39.0311 76.8312L39.0311 76.8312L38.5381 79.7904ZM35.881 85.0666C35.7676 85.5984 35.8053 86.5931 36.1959 87.9692C36.5699 89.2867 37.1933 90.6907 37.9407 91.915C38.7087 93.1728 39.4874 94.0445 40.0756 94.4749C40.7262 94.951 40.4238 94.445 39.782 94.798L42.6731 100.055C40.2721 101.376 37.9258 100.337 36.5325 99.3171C35.0767 98.2519 33.8113 96.6657 32.8197 95.0416C31.8076 93.3838 30.9559 91.4819 30.4239 89.6076C29.9085 87.792 29.6093 85.7092 30.0127 83.8161L35.881 85.0666ZM41.2275 94.4267C40.5647 94.4267 39.9709 94.7366 39.6025 95.1475C39.3247 95.4575 39.2841 95.6994 39.3131 95.5934C39.3727 95.3757 39.4355 94.8271 39.4249 93.8231C39.415 92.8794 39.3479 91.8018 39.2762 90.6203C39.207 89.4818 39.1329 88.2392 39.1329 87.1202H45.1329C45.1329 88.0253 45.1938 89.083 45.2651 90.2565C45.3338 91.387 45.4127 92.633 45.4246 93.7599C45.4358 94.8265 45.3964 96.0956 45.1001 97.1777C44.9512 97.7218 44.6692 98.4843 44.0704 99.1523C43.3811 99.9213 42.3868 100.427 41.2275 100.427V94.4267ZM39.1329 87.1202C39.1329 85.687 38.9283 84.3982 38.5705 83.5306C38.3978 83.1116 38.234 82.9006 38.1422 82.8112C38.0779 82.7486 38.0623 82.7525 38.045 82.7496L39.0311 76.8312C41.8063 77.2936 43.3482 79.3776 44.1175 81.2435C44.8849 83.1046 45.1329 85.2566 45.1329 87.1202H39.1329ZM38.045 82.7496C37.2415 82.6158 36.832 82.5592 36.5395 82.5576C36.314 82.5564 36.445 82.595 36.6512 82.4638C36.8406 82.3432 36.7795 82.2772 36.5884 82.6816C36.3885 83.1045 36.1433 83.8355 35.881 85.0666L30.0127 83.8161C30.3173 82.3869 30.6788 81.1437 31.1639 80.1175C31.6577 79.0728 32.3599 78.0827 33.4297 77.4019C34.5162 76.7104 35.6445 76.5526 36.572 76.5577C37.4325 76.5623 38.3316 76.7147 39.0311 76.8312L38.045 82.7496Z" fill="url(#paint3_linear)" mask="url(#path-10-inside-2)"/>
<path d="M41.0604 88.0195C41.0604 88.5453 40.9481 89.1051 41.0149 89.6274C41.083 90.1593 41.1773 90.6985 41.1773 91.2354C41.1773 91.7824 41.2357 92.3242 41.2357 92.8667C41.2357 93.3058 41.1188 93.6982 41.1188 94.1312" stroke="black" stroke-linecap="round" stroke-linejoin="round"/>
<path d="M41.0604 95.1147C40.318 94.9872 39.7762 94.0028 39.6123 93.1789C39.4471 92.3483 39.2487 91.4752 39.2487 90.6187" stroke="black" stroke-linecap="round" stroke-linejoin="round"/>
<path d="M37.0277 90.6187C36.4118 89.9376 36.4104 88.8132 36.2679 87.8711C36.2129 87.5074 36.0866 86.8712 36.2679 86.5442" stroke="black" stroke-linecap="round" stroke-linejoin="round"/>
<path d="M39.3655 83.1722C38.9098 83.5031 38.5059 83.7919 38.1641 84.265C37.9572 84.5513 37.9731 84.9037 37.8459 85.2094" stroke="black" stroke-linecap="round" stroke-linejoin="round"/>
<path d="M128.091 75.9183L128.01 76.1289L127.979 76.3522C125.314 94.9944 118.637 105.973 109.842 112.553C101 119.168 89.7146 121.573 77.314 122.408C60.371 121.911 43.7612 108.449 37.1211 77.4075C32.4877 55.7468 37.4315 41.8617 46.774 33.6831C56.2441 25.3928 70.7141 22.5273 85.9542 24.0422L86.0529 24.052H86.1521C105.714 24.052 118.956 29.7416 125.917 38.7743C132.841 47.7591 133.97 60.6067 128.091 75.9183Z" fill="#FFDDDD" stroke="black" stroke-width="4"/>
<path d="M89.7552 88.2929C89.9115 88.6366 90.0697 88.9844 90.2243 89.3309C92.8004 88.299 95.2953 87.61 97.9045 87.3871C100.49 87.1661 103.091 87.4106 105.899 88.1315C105.994 87.47 106.1 86.8041 106.205 86.1527L106.224 86.0297C106.51 84.2418 106.788 82.4892 106.891 80.8139C107.108 77.2844 106.475 75.2453 104.886 74.1922C101.514 71.9575 98.5722 71.1362 96.0142 71.3247C93.4664 71.5126 90.9441 72.7284 88.4828 75.2453C86.6479 77.1216 86.6003 79.685 87.602 82.953C88.0945 84.5599 88.7923 86.1652 89.4955 87.7209C89.5808 87.9096 89.6677 88.1006 89.7552 88.2929Z" fill="white" stroke="black" stroke-width="5"/>
<path d="M107.45 90.8424C102.982 88.8929 97.7227 88.8175 93.0474 90.4755C90.1176 86.5533 88.4292 78.1391 92.5047 74.0781C97.1158 69.4836 104.961 69.7375 108.104 74.9389C110.219 78.4373 107.981 85.1527 107.45 90.8424Z" fill="#12577D"/>
<path d="M107.703 90.969C104.7 89.639 102.046 89.1958 96.9853 89.5382C95.99 88.0724 95.9024 81.4331 96.2538 79.0469C96.7454 75.7076 104.163 72.0913 108.167 74.9347C110.568 78.1261 107.287 89.991 107.703 90.969Z" fill="black"/>
<path d="M48.8913 94.294C49.07 94.6119 49.2505 94.933 49.4277 95.2529C51.7771 94.1052 54.0964 93.2919 56.5761 92.9249C59.0349 92.5609 61.5524 92.6496 64.3026 93.1869C64.324 92.5388 64.3557 91.8854 64.3867 91.2448L64.3925 91.1247C64.4795 89.3276 64.5624 87.5602 64.4841 85.8787C64.3187 82.3246 63.4762 80.2895 61.8237 79.3274C58.3327 77.2949 55.4391 76.6628 53.0431 76.9878C50.6578 77.3114 48.3736 78.6368 46.2643 81.2801C44.6864 83.2574 44.9106 85.8513 46.2373 89.0807C46.8867 90.6615 47.7345 92.2272 48.5792 93.7378C48.6819 93.9215 48.7863 94.1072 48.8913 94.294Z" fill="white" stroke="black" stroke-width="5"/>
<path d="M66.1786 95.8095C61.6607 94.1215 56.5781 94.3435 52.2425 96.2577C49.0002 92.5194 46.4799 84.2402 49.9823 79.9683C53.945 75.135 61.5413 74.9448 65.1257 79.9441C67.5365 83.3065 66.0881 90.1167 66.1786 95.8095Z" fill="#12577D"/>
<path d="M66.3692 95.8816C63.3367 94.7289 60.7343 94.4378 55.8985 95.0631C54.7851 93.6623 53.9981 87.0689 54.0838 84.6776C54.2038 81.3312 60.9625 77.3196 65.1188 79.92C67.768 82.9566 65.8644 94.9331 66.3692 95.8816Z" fill="black"/>
<path d="M86.4617 107.125C86.9655 106.894 87.4477 106.63 87.9204 106.325C87.9321 106.414 87.9441 106.504 87.9567 106.596C87.981 107.783 87.5843 108.49 86.9565 108.863C86.4179 108.867 85.7615 108.614 85.0249 107.97C84.9466 107.902 84.871 107.832 84.7981 107.761C85.3664 107.58 85.9218 107.374 86.4617 107.125Z" fill="#E4ADAD" stroke="black" stroke-width="5"/>
<path d="M86.3415 107.18C87.0201 106.826 87.5051 106.573 87.9171 106.303C87.9295 106.399 87.9425 106.497 87.9561 106.596C87.9819 107.77 87.6364 108.447 86.972 108.848C86.5966 108.852 86.3504 108.78 86.2081 108.717C86.0281 108.637 85.9276 108.534 85.8647 108.429C85.7684 108.27 85.661 107.896 85.8959 107.413C86.0534 107.331 86.2016 107.253 86.3415 107.18Z" fill="#D23333" stroke="black" stroke-width="5"/>
<path d="M85.8626 67.4762L87.1077 65.6743L88.523 64.417L89.8483 63.3942L91.5246 62.369L93.3703 61.9664L95.3015 61.7971L97.4945 61.7819L99.5089 62.0798L100.822 62.3046L102.223 62.6067L103.536 62.9095L105.808 63.7514L107.291 64.5988L108.949 65.523L110.689 66.9923L113.115 70.1722" stroke="black" stroke-width="5"/>
<path d="M40.3163 79.0201L40.6543 77.1649L41.2417 75.432C41.607 74.3541 42.0702 73.3136 42.6266 72.3206V72.3206L44.5125 70.5531L46.4412 69.0288L49.3554 68.2002L52.6339 67.2124L56.5146 66.972L60.6685 68.2846L65.3012 71.1892" stroke="black" stroke-width="4"/>
<path d="M31.7218 59.5257C36.9907 44.6107 41.2185 34.7354 47.5441 28.4197C54.2659 21.7084 63.5682 18.8468 79.9271 18.8468C91.5294 18.8468 104.319 20.9279 114.451 27.076C124.486 33.1657 132.027 43.3061 133.184 59.7682C133.176 61.0971 132.817 61.4636 132.631 61.586C132.347 61.7734 131.689 61.9274 130.316 61.6525C127.604 61.11 123.636 59.2392 118.656 56.8216C118.343 56.6699 118.027 56.5163 117.708 56.361C108.107 51.6938 95.4711 45.5517 83.7017 45.5517C71.871 45.5517 63.0635 46.555 54.6458 49.0842C47.2397 51.3094 40.1988 54.6973 31.7218 59.5257Z" fill="url(#paint4_linear)" stroke="url(#paint5_linear)" stroke-width="3"/>
<path d="M98.2187 35.1C96.5288 35.8358 95.6528 36.7414 95.4234 37.8761C97.3351 39.4557 99.6891 41.0025 102.319 42.7304C103.111 43.2513 103.929 43.7887 104.767 44.3483C108.611 46.9145 112.768 49.8814 116.431 53.685C123.113 60.6231 128.035 70.234 126.911 85.035C133.593 76.3416 135.349 68.8911 135.2 62.9837C135.054 57.1867 133.095 52.7671 131.762 49.7586C131.522 49.217 131.302 48.7212 131.117 48.2712C128.659 42.3014 126.753 39.4083 125.104 37.6716C124.284 36.8071 123.497 36.1974 122.667 35.6191C122.42 35.4464 122.153 35.267 121.875 35.0796C121.384 34.7488 120.856 34.3929 120.327 34.0047C119.809 33.9807 119.091 33.9301 118.246 33.8704C117.339 33.8064 116.285 33.7321 115.172 33.6691C112.512 33.5187 109.305 33.415 106.218 33.5889C103.098 33.7646 100.246 34.2175 98.2187 35.1Z" fill="url(#paint6_linear)" stroke="url(#paint7_linear)" stroke-width="3"/>
<path d="M110.035 54.9174L110.158 54.9991L110.263 55.1033C117.146 61.9376 117.956 70.1443 118.05 80.2899C120.398 76.9288 122.345 73.9344 123.608 71.1808C125.316 67.4598 125.63 64.4933 124.261 61.8255C121.662 56.7623 119.524 54.4575 117.825 53.1458C116.962 52.4802 116.177 52.0409 115.383 51.5992C115.363 51.5881 115.343 51.577 115.323 51.5658C114.626 51.1783 113.862 50.7534 113.149 50.1658C110.049 48.7676 106.724 47.5161 103.854 46.6681C102.389 46.2352 101.065 45.9143 99.9633 45.7302C99.1955 45.6019 98.5956 45.5509 98.1574 45.5538C98.2907 45.7363 98.4656 45.9516 98.6912 46.2014C100.284 47.9643 103.777 50.7696 110.035 54.9174Z" fill="url(#paint8_linear)" stroke="url(#paint9_linear)" stroke-width="3"/>
<path d="M100.747 51.0532C99.4841 52.0211 98.3461 53.547 98.0665 55.9736C102.187 57.1638 105.013 60.3948 106.807 64.5963C108.269 68.019 109.098 72.1834 109.427 76.6957C111.333 73.5009 112.582 70.6547 113.292 68.191C114.285 64.7439 114.191 62.1593 113.505 60.409C111.335 54.8769 108.317 52.5859 105.773 50.6544C105.273 50.2749 104.792 49.9092 104.338 49.5356C103.428 49.6569 102.009 50.0862 100.747 51.0532Z" fill="url(#paint10_linear)" stroke="url(#paint11_linear)" stroke-width="3"/>
<path d="M83.3175 47.1585C86.0832 49.4882 90.4001 53.3367 93.9264 57.5316C95.9406 59.9276 97.7567 62.5061 98.8616 65.0337C99.1972 65.8015 99.4752 66.5837 99.6709 67.3682C101.064 64.7641 101.486 61.9157 101.404 59.2596C101.28 55.2927 100.032 51.929 99.4052 50.8115C98.1979 48.6597 97.1311 47.594 96.2314 46.9205C95.7649 46.5713 95.3132 46.3047 94.8241 46.0247C94.7797 45.9993 94.7344 45.9735 94.6884 45.9473C94.335 45.7456 93.9378 45.5191 93.5461 45.256C88.7654 44.1415 85.0426 45.2919 83.3175 47.1585Z" fill="url(#paint12_linear)" stroke="url(#paint13_linear)" stroke-width="3"/>
<path d="M74.4694 44.8926C77.3345 47.9708 80.6891 51.7844 83.3766 56.1339C85.4344 59.4643 87.1335 63.1598 87.9099 67.13C89.1786 64.7971 89.9064 62.8837 90.265 61.2693C90.7897 58.9072 90.5368 57.1322 89.9433 55.5267C88.741 52.2747 88.1813 50.8981 87.6967 50.0774C87.34 49.4732 87.0614 49.2148 86.3472 48.5522C86.2907 48.4998 86.2316 48.445 86.1695 48.3872C86.103 48.3704 86.0413 48.3531 85.9856 48.3367C85.7349 48.2629 85.4641 48.164 85.1912 48.0557C84.6463 47.8395 83.9902 47.5445 83.2995 47.2311C83.2086 47.1899 83.1168 47.1482 83.0242 47.1061C81.6785 46.4948 80.1618 45.8058 78.702 45.2832C77.0799 44.7025 75.8031 44.4338 75.0206 44.531C74.6762 44.5737 74.5836 44.669 74.5628 44.6927C74.5507 44.7065 74.5069 44.7603 74.4694 44.8926Z" fill="url(#paint14_linear)" stroke="url(#paint15_linear)" stroke-width="3"/>
<path d="M71.6262 35.4333C73.7187 36.1954 74.7311 37.1069 75.0343 38.1168C72.7362 39.7025 69.9093 41.2563 66.7716 42.981C65.8257 43.501 64.8516 44.0365 63.8552 44.593C59.2657 47.1564 54.3121 50.1141 49.9473 53.9056C45.5712 57.7069 41.753 62.3746 39.4633 68.3722C37.5702 73.3311 36.7498 79.1266 37.4555 85.9852C28.8959 76.965 26.7135 69.2953 26.8938 63.3088C27.0667 57.565 29.3842 53.1873 30.98 50.1728C31.2687 49.6275 31.5338 49.1268 31.7583 48.6706C34.6909 42.7121 36.9684 39.8155 38.9544 38.0654C39.9484 37.1894 40.9041 36.5698 41.9083 35.984C42.213 35.8063 42.5362 35.6242 42.8717 35.4352C43.488 35.088 44.1453 34.7176 44.8033 34.3092C45.4147 34.289 46.3087 34.2362 47.3896 34.1722C48.475 34.108 49.7487 34.0327 51.1136 33.9681C54.3038 33.8172 58.1632 33.7124 61.8858 33.8878C65.6379 34.0646 69.1232 34.5217 71.6262 35.4333Z" fill="url(#paint16_linear)" stroke="url(#paint17_linear)" stroke-width="3"/>
<path d="M55.1281 54.1811C56.2439 54.6288 56.8606 55.6275 56.8109 56.9792C51.6213 60.8268 48.3648 63.9014 47.2525 67.8218C46.4671 70.5899 46.8013 73.6053 47.8937 77.3143C46.691 76.1238 45.4672 74.7944 44.3948 73.382C41.8145 69.9839 40.4907 66.6108 41.6306 63.71C41.8429 63.1698 42.0283 62.635 42.2102 62.1107C43.0149 59.7906 43.7491 57.674 46.4234 56.1864C50.8968 53.6981 53.6902 53.6043 55.1281 54.1811Z" fill="url(#paint18_linear)" stroke="url(#paint19_linear)" stroke-width="3"/>
<path d="M59.1347 50.472C60.5572 50.4939 61.7599 50.7558 62.6952 51.1687C60.7897 53.7353 58.0151 57.7486 56.0597 61.8689C54.9023 64.3078 53.9847 66.88 53.7508 69.2701C53.6814 69.9793 53.671 70.693 53.7391 71.3943C51.4688 69.5558 50.1108 67.2944 49.3155 65.1089C48.1365 61.8686 48.2304 58.8797 48.452 57.8776C48.8951 55.8745 49.5566 54.782 50.1951 54.0345C50.5287 53.644 50.8765 53.3233 51.2585 52.9812C51.2931 52.9502 51.3285 52.9187 51.3644 52.8866C51.6407 52.6399 51.9524 52.3617 52.2469 52.0535C54.6583 50.924 57.0645 50.4402 59.1347 50.472Z" fill="url(#paint20_linear)" stroke="url(#paint21_linear)" stroke-width="3"/>
<path d="M77.4833 42.8243C77.4997 42.8412 77.538 42.8842 77.574 42.9795C74.3642 46.1177 70.6093 50.003 67.5996 54.4348C65.2086 57.9554 63.2416 61.8876 62.4151 66.1273C60.8152 63.5323 59.9202 61.4365 59.4941 59.6913C58.9109 57.3028 59.191 55.513 59.8519 53.8865C61.2008 50.5667 61.8276 49.1646 62.3705 48.3279C62.7746 47.7052 63.0959 47.4341 63.9001 46.7552C63.9746 46.6924 64.0532 46.626 64.1364 46.5556C64.2289 46.5357 64.3157 46.5139 64.3942 46.4929C64.6636 46.4208 64.9586 46.3229 65.2614 46.2136C65.8658 45.9954 66.5962 45.6967 67.3722 45.3763C67.4748 45.334 67.5785 45.2911 67.6832 45.2478C69.191 44.6247 70.902 43.9174 72.551 43.3803C74.3695 42.788 75.864 42.4903 76.8233 42.5988C77.2708 42.6493 77.4314 42.7705 77.4833 42.8243Z" fill="url(#paint22_linear)" stroke="url(#paint23_linear)" stroke-width="3"/>
<path d="M81.528 28.8041C81.528 28.8041 69.8716 26.5093 65.7896 26.6014C61.7076 26.6936 52.7784 27.4944 52.7784 27.4944" stroke="black" stroke-width="2"/>
<path d="M81.528 28.8041C81.528 28.8041 69.8716 26.5093 65.7896 26.6014C61.7076 26.6936 52.7784 27.4944 52.7784 27.4944" stroke="black" stroke-width="2"/>
<path d="M124.032 41.4493C124.032 41.4493 115.414 32.0061 104.756 28.8806C94.0972 25.7552 81.443 28.8806 81.443 28.8806" stroke="black" stroke-width="2"/>
<path d="M113.283 52.0906C113.283 52.0906 106.061 46.5551 97.2899 44.6244C88.5188 42.6937 78.2337 44.3298 78.2337 44.3298" stroke="black" stroke-width="2"/>
<path d="M125.643 52.4688C125.643 52.4688 116.112 42.9781 104.387 39.7974C92.6628 36.6167 78.7946 39.6792 78.7946 39.6792" stroke="black" stroke-width="2"/>
<path d="M118.181 41.4493C118.181 41.4493 110.527 35.7858 101.245 33.7984C91.9628 31.811 81.0896 33.4609 81.0896 33.4609" stroke="black" stroke-width="2"/>
<path d="M37.1307 53.3185C37.1307 53.3185 29.3744 59.1604 31.552 66.8248C33.7296 74.4891 38.6274 88.6655 38.6274 88.6655" stroke="black" stroke-width="2"/>
<path d="M73.0177 44.5959C73.0177 44.5959 59.055 41.7665 54.3657 41.8958C49.6765 42.0252 39.1263 47.1048 39.1263 47.1048" stroke="black" stroke-width="2"/>
<path d="M73.0976 38.9936C73.0976 38.9936 60.0407 35.8782 55.8625 36.5007C51.6842 37.1233 45.2039 38.9936 45.2039 38.9936" stroke="black" stroke-width="2"/>
<path d="M76.5266 33.5666C76.5266 33.5666 64.9265 31.2718 60.8642 31.364C56.8019 31.4562 47.9158 32.257 47.9158 32.257" stroke="black" stroke-width="2"/>
<path d="M127.343 45.2073C127.343 45.2073 134.033 62.609 131.574 70.2311C129.115 77.8532 125.03 88.6655 125.03 88.6655" stroke="black" stroke-width="2"/>
<path d="M61.7133 47.1048C61.7133 47.1048 49.7848 52.2767 49.7848 59.9786C49.7848 67.6805 55.3636 73.8197 55.3636 73.8197" stroke="black" stroke-width="2"/>
<path d="M79.9462 47.5141C79.9462 47.5141 85.284 48.8408 87.2569 56.4439C89.2298 64.047 87.2569 70.6465 87.2569 70.6465" stroke="black" stroke-width="2"/>
<path d="M117.088 55.8114C117.088 55.8114 118.496 59.0961 121.22 66.6387C123.943 74.1814 117.088 83.7391 117.088 83.7391" stroke="black" stroke-width="2"/>
<path d="M68.2899 47.5141C68.2899 47.5141 63.0733 48.3862 61.7134 56.2579C60.3535 64.1295 63.8525 70.0826 63.8525 70.0826" stroke="black" stroke-width="2"/>
<path d="M84.754 46.6956C84.754 46.6956 99.948 47.7374 106.298 54.5835C112.648 61.4297 108.969 78.771 108.969 78.771" stroke="black" stroke-width="2"/>
<path d="M28.7094 77.5071C28.7094 77.5071 27.2428 102.804 36.9482 118.686M32.3227 82.861C32.3227 82.861 31.9604 103.964 41.6659 119.845M38.4004 96.5534C38.4004 96.5534 36.949 104.665 46.6545 120.546M44.206 101.762C44.206 101.762 41.8481 105.005 51.5536 120.887M51.5536 112.776C51.5536 112.776 53.0958 117.129 55.2723 120.993" stroke="black"/>
<path d="M128.931 111.915C136.641 95.9581 136.641 63.3225 136.641 63.3225" stroke="black"/>
<path d="M124.712 113.334C130.608 103.214 130.608 87.8469 130.608 87.8469" stroke="black"/>
<path d="M120.63 114.459C126.526 104.338 126.572 91.5677 126.572 91.5677M112.557 115.901C115.414 112.776 115.414 109.874 115.414 109.874M117.002 115.203C120.63 108.832 120.63 102.804 120.63 102.804" stroke="black"/>
<path d="M111.045 26.2684C110.273 26.952 109.479 27.6545 108.683 28.3043C114.271 30.8794 120.128 34.9245 123.86 39.7C126.382 36.7056 127.859 33.2657 128.68 30.9056C129.191 29.4365 129.731 27.6003 130.044 25.8325C130.319 24.2779 130.381 22.9769 130.227 22.0603C127.802 19.804 125.633 19.0526 123.717 19.0283C121.627 19.0019 119.511 19.8346 117.333 21.2279C115.198 22.5933 113.189 24.3718 111.229 26.1061C111.184 26.146 111.139 26.1858 111.094 26.2256L111.045 26.2684Z" fill="#A21AE2" stroke="black" stroke-width="4"/>
<path d="M118.895 34.7717C120.068 35.7786 120.935 36.5497 121.72 37.3619C122.419 38.0837 123.044 38.8277 123.771 39.7789C126.316 36.7742 127.803 33.3121 128.628 30.9404C129.141 29.4653 129.67 27.6845 129.973 25.9747C130.151 24.9677 130.235 24.069 130.223 23.3118C128.906 23.4419 127.842 23.8089 126.944 24.3142C125.676 25.0271 124.621 26.0815 123.632 27.3995C122.784 28.5296 122.048 29.7623 121.26 31.0802C121.113 31.3278 120.963 31.5784 120.81 31.8319C120.227 32.8017 119.6 33.8144 118.895 34.7717Z" fill="#FFDDDD" stroke="black" stroke-width="4"/>
<path d="M120.166 37.4988C119.992 37.7303 119.807 37.9364 119.624 38.1123C119.158 38.1615 118.725 38.1692 118.317 38.134L117.801 38.0894L117.391 38.2983C117.291 38.2491 117.18 38.2015 117.058 38.1592C117.056 38.158 117.054 38.1567 117.052 38.1554C117.592 38.0522 118.127 37.9194 118.655 37.7673C119.219 37.6046 119.792 37.4151 120.369 37.2073C120.305 37.3065 120.237 37.4037 120.166 37.4988ZM122.167 41.085C121.994 40.9638 121.735 40.8009 121.389 40.6807C121.387 40.6794 121.385 40.6782 121.383 40.6769C121.923 40.5737 122.458 40.4409 122.986 40.2888C123.55 40.1261 124.123 39.9366 124.7 39.7288C124.636 39.8279 124.568 39.9252 124.497 40.0202C124.203 40.4113 123.877 40.7298 123.584 40.9528C123.324 41.1511 123.16 41.2211 123.121 41.2376C123.112 41.2417 123.11 41.2424 123.116 41.2411C122.74 41.3226 122.549 41.3209 122.483 41.3159C122.47 41.3075 122.453 41.2952 122.429 41.2772C122.424 41.2736 122.414 41.2663 122.401 41.2564C122.349 41.2175 122.244 41.1384 122.167 41.085ZM114.928 37.0539C114.923 37.0497 114.921 37.0475 114.921 37.0475C114.922 37.0475 114.924 37.0496 114.928 37.0539Z" fill="url(#paint24_linear)" stroke="url(#paint25_linear)" stroke-width="3"/>
<path d="M45.5921 25.8971C46.7601 26.4525 47.9569 27.0215 49.128 27.5226C43.7477 31.1279 38.5396 36.271 36.0127 41.6985C32.1609 39.2643 29.3442 36.1589 27.64 34.0035C26.5919 32.6779 25.3886 30.9996 24.4567 29.3404C23.6268 27.8626 23.1155 26.5782 22.9887 25.6287C24.9251 22.9357 27.0855 21.7646 29.2171 21.3604C31.5316 20.9216 34.156 21.3204 37.0229 22.2481C39.8279 23.1557 42.6295 24.4881 45.3479 25.7809C45.412 25.8114 45.4761 25.8419 45.5402 25.8724L45.5921 25.8971Z" fill="#A21AE2" stroke="black" stroke-width="4"/>
<path d="M36.7664 33.2186C37.7669 34.0771 38.828 34.9666 39.9603 35.7749C38.963 37.0267 38.2455 37.9627 37.6361 38.9235C37.092 39.7814 36.6406 40.6473 36.1377 41.7578C32.2567 39.3183 29.4208 36.193 27.7081 34.027C26.6561 32.6965 25.483 31.0695 24.5816 29.464C24.0219 28.4672 23.6135 27.5592 23.3769 26.7806C24.9303 26.6294 26.2755 26.7768 27.4803 27.1043C29.1353 27.5542 30.6627 28.3812 32.1952 29.4719C33.5067 30.4053 34.7292 31.4609 36.0271 32.5816C36.2705 32.7917 36.5166 33.0042 36.7664 33.2186Z" fill="#FFDDDD" stroke="black" stroke-width="4"/>
<path d="M43.3875 38.2711C43.443 38.2324 43.5022 38.1925 43.5631 38.1523C42.943 38.1087 42.3263 38.0238 41.7165 37.9121C40.9787 37.777 40.227 37.5976 39.4673 37.3918C39.6111 37.6506 39.7794 37.8949 39.9647 38.1206C40.1473 38.3429 40.3387 38.5375 40.5263 38.7015C40.9957 38.6958 41.4333 38.6499 41.8442 38.5619L42.3856 38.4459L42.8264 38.6271C42.9346 38.5532 43.0583 38.4787 43.1983 38.41C43.2657 38.3576 43.331 38.3106 43.3875 38.2711ZM39.1723 41.5011C39.1514 41.4889 39.1307 41.4767 39.1101 41.4644C38.5257 41.4189 37.9444 41.3374 37.3693 41.2321C36.6315 41.0969 35.8798 40.9175 35.1201 40.7118C35.2639 40.9706 35.4322 41.2148 35.6175 41.4405C35.9396 41.8327 36.2894 42.1386 36.5964 42.3428C36.8502 42.5116 37.0075 42.5671 37.0502 42.5821C37.0653 42.5875 37.066 42.5877 37.0516 42.5862C37.4665 42.6311 37.6594 42.5988 37.717 42.5852C37.74 42.5798 37.7402 42.5797 37.7435 42.5766C37.7444 42.5757 37.7456 42.5746 37.7477 42.573C37.7653 42.5597 37.7941 42.5357 37.8536 42.4796C37.8612 42.4725 37.8739 42.4604 37.89 42.445C37.9441 42.3933 38.0371 42.3043 38.1081 42.2406C38.2675 42.0977 38.5114 41.8965 38.8511 41.7299C38.9185 41.6775 38.9838 41.6305 39.0403 41.591C39.0825 41.5616 39.1268 41.5315 39.1723 41.5011ZM45.4219 36.8527C45.4234 36.8508 45.4241 36.8498 45.4241 36.8498L45.4219 36.8527Z" fill="url(#paint26_linear)" stroke="url(#paint27_linear)" stroke-width="3"/>
<path d="M81.1475 97.2011C80.6091 97.3999 79.7174 97.6051 78.4055 97.7237C77.9982 97.7215 77.6289 97.7037 77.3062 97.6648C77.0373 97.6324 76.8351 97.5893 76.6897 97.5452C76.7215 97.437 76.7699 97.3025 76.8397 97.1406C77.0068 96.7528 77.2558 96.2994 77.5662 95.7943C77.8711 95.2978 78.2053 94.7991 78.5392 94.3013C78.9399 94.5921 79.3782 94.9822 79.8012 95.4279C80.2948 95.9479 80.7153 96.4886 80.9979 96.944C81.0568 97.039 81.1064 97.1248 81.1475 97.2011ZM76.4704 97.4565C76.4704 97.4565 76.4709 97.4568 76.4718 97.4574L76.4704 97.4565Z" stroke="url(#paint28_linear)" stroke-width="4"/>
<path d="M54.2082 124.867C54.1911 124.893 54.1763 124.921 54.1637 124.949C54.0109 124.954 53.8343 124.961 53.6369 124.968C52.8977 124.995 51.8658 125.036 50.6944 125.092C48.3543 125.203 45.4478 125.371 43.2074 125.601C38.9806 126.034 36.5445 124.178 35.7306 121.988C34.9057 119.769 35.6828 117.083 38.1505 115.657C42.5155 113.135 47.2052 113.865 51.0826 116.004C54.9367 118.13 57.8886 121.597 58.8259 124.452C58.809 124.455 58.7912 124.458 58.7724 124.461C58.3308 124.529 57.6389 124.524 56.9023 124.507C56.8166 124.505 56.7301 124.503 56.6434 124.501C56.022 124.486 55.3914 124.471 54.979 124.514C54.8583 124.526 54.732 124.546 54.6188 124.58C54.5325 124.607 54.3324 124.675 54.2082 124.867ZM58.9583 124.729C58.9583 124.729 58.9577 124.728 58.9568 124.726C58.958 124.728 58.9584 124.729 58.9583 124.729Z" fill="#A21AE2" stroke="url(#paint29_linear)"/>
<path d="M49.3736 133.994C49.0507 136.543 49.3445 139.416 51.0804 142.001H51.0732H51.0522H51.0312H51.0101H50.9891H50.968H50.947H50.9259H50.9048H50.8837H50.8626H50.8415H50.8204H50.7993H50.7782H50.757H50.7359H50.7147H50.6935H50.6723H50.6511H50.6299H50.6087H50.5875H50.5663H50.545H50.5237H50.5025H50.4812H50.4599H50.4386H50.4173H50.396H50.3746H50.3533H50.3319H50.3105H50.2891H50.2678H50.2463H50.2249H50.2035H50.182H50.1606H50.1391H50.1176H50.0961H50.0746H50.0531H50.0316H50.01H49.9885H49.9669H49.9453H49.9237H49.9021H49.8805H49.8588H49.8372H49.8155H49.7938H49.7721H49.7504H49.7287H49.707H49.6852H49.6635H49.6417H49.6199H49.5981H49.5763H49.5544H49.5326H49.5107H49.4888H49.4669H49.445H49.4231H49.4011H49.3792H49.3572H49.3352H49.3132H49.2912H49.2691H49.2471H49.225H49.2029H49.1808H49.1587H49.1366H49.1144H49.0923H49.0701H49.0479H49.0256H49.0034H48.9812H48.9589H48.9366H48.9143H48.892H48.8696H48.8473H48.8249H48.8025H48.7801H48.7577H48.7352H48.7128H48.6903H48.6678H48.6453H48.6227H48.6002H48.5776H48.555H48.5324H48.5098H48.4871H48.4644H48.4417H48.419H48.3963H48.3736H48.3508H48.328H48.3052H48.2824H48.2595H48.2367H48.2138H48.1909H48.168H48.145H48.122H48.0991H48.0761H48.053H48.03H48.0069H47.9838H47.9607H47.9376H47.9144H47.8913H47.8681H47.8448H47.8216H47.7983H47.7751H47.7518H47.7284H47.7051H47.6817H47.6583H47.6349H47.6115H47.588H47.5645H47.541H47.5175H47.494H47.4704H47.4468H47.4232H47.3995H47.3759H47.3522H47.3285H47.3047H47.281H47.2572H47.2334H47.2096H47.1857H47.1618H47.1379H47.114H47.0901H47.0661H47.0421H47.0181H46.994H46.97H46.9459H46.9217H46.8976H46.8734H46.8492H46.825H46.8008H46.7765H46.7522H46.7279H46.7035H46.6792H46.6548H46.6303H46.6059H46.5814H46.5569H46.5324H46.5078H46.4832H46.4586H46.434H46.4093H46.3846H46.3599H46.3352H46.3104H46.2856H46.2608H46.2359H46.2111H46.1862H46.1612H46.1363H46.1113H46.0863H46.0612H46.0361H46.011H45.9859H45.9608H45.9356H45.9104H45.8851H45.8599H45.8346H45.8092H45.7839H45.7585H45.7331H45.7076H45.6822H45.6566H45.6311H45.6056H45.58H45.5543H45.5287H45.503H45.4773H45.4516H45.4258H45.4H45.3742H45.3483H45.3224H45.2965H45.2705H45.2446H45.2185H45.1925H45.1664H45.1403H45.1142H45.088H45.0618H45.0356H45.0093H44.983H44.9567H44.9303H44.904H44.8775H44.8511H44.8246H44.7981H44.7715H44.745H44.7183H44.6917H44.665H44.6383H44.6116H44.5848H44.558H44.5311H44.5042H44.4773H44.4504H44.4234H44.3964H44.3694H44.3423H44.3152H44.288H44.2609H44.2336H44.2064H44.1791H44.1518H44.1244H44.0971H44.0696H44.0422H44.0147H43.9872H43.9596H43.932H43.9044H43.8767H43.849H43.8213H43.7935H43.7657H43.7379H43.71H43.6821H43.6542H43.6262H43.5982H43.5701H43.542H43.5139H43.4857H43.4575H43.4293H43.401H43.3727H43.3444H43.316H43.2876H43.2591H43.2306H43.2021H43.1735H43.1449H43.1162H43.0876H43.0588H43.0301H43.0013H42.9725H42.9436H42.9147H42.8857H42.8567H42.8277H42.7987H42.7696H42.7404H42.7112H42.682H42.6528H42.6235H42.5941H42.5648H42.5354H42.5059H42.4764H42.4469H42.4173H42.3877H42.3581H42.3284H42.2986H42.2689H42.2391H42.2092H42.1793H42.1494H42.1194H42.0894H42.0594H42.0293H41.9991H41.969H41.9387H41.9085H41.8782H41.8478H41.8175H41.787H41.7566H41.7261H41.6955H41.6649H41.6343H41.6036H41.5729H41.5422H41.5114H41.4805H41.4496H41.4187H41.3878H41.3567H41.3257H41.2946H41.2635H41.2323H41.2011H41.1698H41.1385H41.1071H41.0757H41.0443H41.0128H40.9813H40.9497H40.9181H40.8864H40.8547H40.823H40.7912H40.7593H40.7274H40.6955H40.6635H40.6315H40.5995H40.5674H40.5352H40.503H40.4708H40.4385H40.4062H40.3738H40.3414H40.3089H40.2764H40.2438H40.2112H40.1796C42.5786 139.539 43.7403 136.962 44.1626 134.347C44.6004 131.636 44.2383 128.916 43.6945 126.298C44.4736 126.195 45.2324 125.913 45.9299 125.621C46.1583 125.525 46.3786 125.43 46.5924 125.337C47.2353 125.057 47.8183 124.804 48.3788 124.662C49.0992 124.479 49.6576 124.515 50.1347 124.876C50.624 125.247 51.1233 126.027 51.5371 127.573C50.7438 128.943 49.7142 131.306 49.3736 133.994Z" fill="#A21AE2" stroke="url(#paint30_linear)"/>
<path d="M58.2365 124.862L58.5049 125.003L58.7537 124.83C62.4308 122.274 64.9784 121.841 66.5415 122.362C68.0585 122.869 68.8572 124.358 68.8572 126.227C68.8572 127.148 68.5734 128.541 68.0675 130.143C67.5652 131.733 66.8569 133.489 66.0369 135.121C65.2152 136.756 64.2914 138.247 63.3641 139.321C62.9006 139.858 62.4479 140.277 62.0194 140.558C61.5896 140.841 61.2121 140.967 60.888 140.967C60.6764 140.967 60.3497 140.896 59.9112 140.728C59.4822 140.564 58.9823 140.323 58.437 140.018C57.3468 139.408 56.1058 138.561 54.9353 137.622C53.7637 136.683 52.678 135.665 51.8905 134.718C51.4967 134.245 51.186 133.799 50.976 133.399C50.7629 132.992 50.672 132.668 50.672 132.427C50.672 131.879 50.5782 131.229 50.4531 130.549C50.3717 130.106 50.2733 129.632 50.1735 129.151C50.1199 128.893 50.0659 128.633 50.014 128.375C49.709 126.859 49.4712 125.389 49.6299 124.284C49.7078 123.741 49.8753 123.338 50.1323 123.062C50.3805 122.797 50.7602 122.599 51.3735 122.556C52.6481 122.467 54.7854 123.057 58.2365 124.862Z" fill="#A21AE2" stroke="url(#paint31_linear)"/>
<path d="M74.3086 131.591L74.357 131.6H74.4064C77.5022 131.6 79.7731 132.195 81.2531 133.14C82.714 134.072 83.4126 135.345 83.4126 136.797C83.4126 137.436 83.083 138.085 82.4464 138.71C81.8115 139.334 80.9093 139.894 79.8724 140.341C77.7845 141.239 75.2942 141.618 73.6158 141.238C71.8173 140.831 70.118 140.279 68.8777 139.455C67.6554 138.643 66.9189 137.599 66.9189 136.172C66.9189 134.912 66.9845 133.925 67.1746 133.167C67.3621 132.418 67.6598 131.934 68.0972 131.621C68.5447 131.301 69.2093 131.108 70.2328 131.095C71.2552 131.081 72.5829 131.247 74.3086 131.591Z" fill="#A21AE2" stroke="url(#paint32_linear)"/>
<path d="M73.3393 122.867C72.7362 125.851 73.0322 128.825 74.3836 130.91C74.0262 131.205 73.7775 131.43 73.6041 131.586C73.5308 131.653 73.4709 131.707 73.422 131.749C73.3587 131.803 73.3242 131.828 73.308 131.839C73.3 131.838 73.2887 131.837 73.2733 131.835C73.2143 131.826 73.1491 131.812 73.0494 131.791C72.9928 131.779 72.9251 131.764 72.841 131.747C72.6257 131.703 72.3443 131.65 71.9658 131.6C71.2102 131.5 70.0789 131.41 68.3201 131.41C64.8686 131.41 62.6417 130.829 61.2748 129.685C59.9529 128.579 59.3335 126.857 59.3144 124.284C59.4932 123.966 59.8121 123.541 60.2669 123.035C60.7653 122.48 61.4061 121.849 62.1545 121.185C63.6515 119.855 65.5617 118.404 67.5878 117.161C69.6177 115.915 71.7409 114.893 73.6667 114.402C75.3111 113.982 76.7413 113.966 77.8483 114.451C75.4609 116.804 73.943 119.88 73.3393 122.867Z" fill="#A21AE2" stroke="url(#paint33_linear)"/>
<path d="M91.8448 118.995C91.8448 120.294 91.1242 121.513 89.8732 122.426C88.6226 123.339 86.8704 123.919 84.9127 123.919C82.955 123.919 81.2028 123.339 79.9522 122.426C78.7012 121.513 77.9806 120.294 77.9806 118.995C77.9806 117.695 78.7012 116.476 79.9522 115.563C81.2028 114.65 82.955 114.07 84.9127 114.07C86.8704 114.07 88.6226 114.65 89.8732 115.563C91.1242 116.476 91.8448 117.695 91.8448 118.995Z" fill="#A8A2A2"/>
<path d="M91.8448 118.995C91.8448 120.294 91.1242 121.513 89.8732 122.426C88.6226 123.339 86.8704 123.919 84.9127 123.919C82.955 123.919 81.2028 123.339 79.9522 122.426C78.7012 121.513 77.9806 120.294 77.9806 118.995C77.9806 117.695 78.7012 116.476 79.9522 115.563C81.2028 114.65 82.955 114.07 84.9127 114.07C86.8704 114.07 88.6226 114.65 89.8732 115.563C91.1242 116.476 91.8448 117.695 91.8448 118.995Z" stroke="url(#paint34_linear)"/>
<path d="M91.8448 118.995C91.8448 120.294 91.1242 121.513 89.8732 122.426C88.6226 123.339 86.8704 123.919 84.9127 123.919C82.955 123.919 81.2028 123.339 79.9522 122.426C78.7012 121.513 77.9806 120.294 77.9806 118.995C77.9806 117.695 78.7012 116.476 79.9522 115.563C81.2028 114.65 82.955 114.07 84.9127 114.07C86.8704 114.07 88.6226 114.65 89.8732 115.563C91.1242 116.476 91.8448 117.695 91.8448 118.995Z" stroke="url(#paint35_linear)"/>
<path d="M106.561 114.341C108.424 114.09 109.956 113.883 113.616 113.594C113.581 115.036 113.392 116.143 112.89 117.24C112.335 118.454 111.378 119.697 109.731 121.371C105.639 122.073 103.35 122.314 100.226 121.531C101.028 120.258 101.445 119.298 101.649 118.304C101.844 117.357 101.84 116.392 101.834 115.152C101.834 115.077 101.834 115.001 101.833 114.923C103.999 114.687 105.35 114.505 106.561 114.341Z" fill="#A8A2A2" stroke="url(#paint36_linear)"/>
<path d="M102.656 122.985C102.729 122.998 102.803 123.011 102.876 123.024C102.773 123.698 102.411 124.209 101.84 124.656C101.129 125.213 100.123 125.645 98.9329 126.107C98.7299 126.185 98.5219 126.265 98.3102 126.346C96.1813 127.158 93.6672 128.116 91.9614 130.09C91.3063 129.982 90.6613 129.637 89.9969 129.084C89.2478 128.461 88.51 127.606 87.7418 126.621C87.3664 126.139 86.9836 125.625 86.5904 125.098C85.447 123.563 84.2161 121.912 82.8257 120.591C82.8704 119.778 83.1756 119.259 83.6207 118.904C84.1301 118.497 84.879 118.26 85.8102 118.144C86.7345 118.03 87.7778 118.042 88.8302 118.085C89.1567 118.099 89.4863 118.115 89.8128 118.132C90.4473 118.164 91.0698 118.196 91.6337 118.202C93.6936 120.035 95.5224 121.071 97.382 121.741C99.0713 122.35 100.779 122.653 102.656 122.985Z" fill="#A8A2A2"/>
<path d="M102.656 122.985C102.729 122.998 102.803 123.011 102.876 123.024C102.773 123.698 102.411 124.209 101.84 124.656C101.129 125.213 100.123 125.645 98.9329 126.107C98.7299 126.185 98.5219 126.265 98.3102 126.346C96.1813 127.158 93.6672 128.116 91.9614 130.09C91.3063 129.982 90.6613 129.637 89.9969 129.084C89.2478 128.461 88.51 127.606 87.7418 126.621C87.3664 126.139 86.9836 125.625 86.5904 125.098C85.447 123.563 84.2161 121.912 82.8257 120.591C82.8704 119.778 83.1756 119.259 83.6207 118.904C84.1301 118.497 84.879 118.26 85.8102 118.144C86.7345 118.03 87.7778 118.042 88.8302 118.085C89.1567 118.099 89.4863 118.115 89.8128 118.132C90.4473 118.164 91.0698 118.196 91.6337 118.202C93.6936 120.035 95.5224 121.071 97.382 121.741C99.0713 122.35 100.779 122.653 102.656 122.985Z" stroke="url(#paint37_linear)"/>
<path d="M102.656 122.985C102.729 122.998 102.803 123.011 102.876 123.024C102.773 123.698 102.411 124.209 101.84 124.656C101.129 125.213 100.123 125.645 98.9329 126.107C98.7299 126.185 98.5219 126.265 98.3102 126.346C96.1813 127.158 93.6672 128.116 91.9614 130.09C91.3063 129.982 90.6613 129.637 89.9969 129.084C89.2478 128.461 88.51 127.606 87.7418 126.621C87.3664 126.139 86.9836 125.625 86.5904 125.098C85.447 123.563 84.2161 121.912 82.8257 120.591C82.8704 119.778 83.1756 119.259 83.6207 118.904C84.1301 118.497 84.879 118.26 85.8102 118.144C86.7345 118.03 87.7778 118.042 88.8302 118.085C89.1567 118.099 89.4863 118.115 89.8128 118.132C90.4473 118.164 91.0698 118.196 91.6337 118.202C93.6936 120.035 95.5224 121.071 97.382 121.741C99.0713 122.35 100.779 122.653 102.656 122.985Z" stroke="url(#paint38_linear)"/>
<path d="M103.727 138.476C103.946 139.142 104.162 139.802 104.342 140.505C100.407 140.864 98.815 141.009 97.2301 141.212C95.7281 141.405 94.2327 141.65 90.7566 142.179C90.7146 141.284 90.5855 140.376 90.4592 139.488C90.4292 139.276 90.3993 139.066 90.3708 138.857C90.1937 137.561 90.065 136.304 90.2169 135.071C90.3671 133.851 90.7932 132.65 91.7424 131.473C92.6971 130.29 94.2 129.109 96.5393 127.968L96.579 127.949L96.6148 127.923C97.6202 127.189 98.5751 126.483 99.4777 125.815C102.417 123.64 104.802 121.875 106.571 120.92C107.143 120.611 107.628 120.4 108.03 120.287C108.437 120.172 108.712 120.171 108.891 120.225C109.045 120.271 109.176 120.371 109.282 120.601C109.384 120.823 109.456 121.157 109.471 121.642C104.542 126.923 102.922 130.418 102.766 133.336C102.687 134.804 102.982 136.088 103.358 137.322C103.477 137.715 103.602 138.096 103.727 138.476Z" fill="#A8A2A2" stroke="url(#paint39_linear)"/>
<path d="M123.302 135.526C123.302 137.699 122.325 139.161 120.884 140.102C119.418 141.058 117.449 141.484 115.505 141.484C113.549 141.484 111.579 141.118 110.114 140.223C108.681 139.347 107.709 137.954 107.709 135.785C107.709 133.604 108.693 132.005 110.15 130.935C111.621 129.854 113.586 129.31 115.505 129.31C117.436 129.31 119.403 129.796 120.872 130.814C122.321 131.819 123.302 133.349 123.302 135.526Z" fill="#12577D" stroke="url(#paint40_linear)"/>
<path d="M137.773 136.686C138.006 137.189 138.303 137.714 139.048 138.485C135.785 139.298 133.377 140.106 129.139 142.131C128.163 140.809 127.812 139.916 127.626 138.998C127.534 138.539 127.481 138.069 127.419 137.513C127.411 137.447 127.404 137.38 127.396 137.312C127.339 136.801 127.27 136.23 127.155 135.565C131.497 134.998 133.545 134.993 136.719 134.993C137.299 135.638 137.482 136.043 137.681 136.486C137.711 136.552 137.741 136.618 137.773 136.686Z" fill="#12577D" stroke="url(#paint41_linear)"/>
<path d="M133.63 116.238C133.111 117.192 132.725 118.108 132.649 119.414C132.105 119.432 131.704 119.447 131.355 119.461C130.249 119.505 129.662 119.528 126.74 119.528C124.785 119.528 123.705 118.968 123.09 118.171C122.498 117.405 122.261 116.326 122.231 115.028C126.625 112.674 130.051 112.538 135.35 112.977C134.904 114.002 134.463 114.772 134.061 115.473C133.911 115.735 133.767 115.987 133.63 116.238Z" fill="#12577D" stroke="url(#paint42_linear)"/>
<path d="M126.596 117.802C126.521 118.443 126.435 119.176 126.416 119.974C124.751 120.813 123.185 121.928 122.118 123.543C121.048 125.164 120.514 127.241 120.823 129.944C119.439 130.174 118.546 130.396 117.666 130.748C116.908 131.051 116.165 131.449 115.132 132.012C115.326 130.588 115.349 129.158 115.367 127.769C115.368 127.729 115.368 127.688 115.369 127.648C115.391 125.952 115.412 124.323 115.707 122.755C116.007 121.163 116.588 119.651 117.738 118.24C118.877 116.844 120.596 115.521 123.217 114.329C124.567 114.337 125.399 114.489 125.908 114.728C126.385 114.952 126.584 115.252 126.67 115.662C126.768 116.127 126.72 116.727 126.627 117.535C126.617 117.622 126.607 117.711 126.596 117.802Z" fill="#12577D"/>
<path d="M126.596 117.802C126.521 118.443 126.435 119.176 126.416 119.974C124.751 120.813 123.185 121.928 122.118 123.543C121.048 125.164 120.514 127.241 120.823 129.944C119.439 130.174 118.546 130.396 117.666 130.748C116.908 131.051 116.165 131.449 115.132 132.012C115.326 130.588 115.349 129.158 115.367 127.769C115.368 127.729 115.368 127.688 115.369 127.648C115.391 125.952 115.412 124.323 115.707 122.755C116.007 121.163 116.588 119.651 117.738 118.24C118.877 116.844 120.596 115.521 123.217 114.329C124.567 114.337 125.399 114.489 125.908 114.728C126.385 114.952 126.584 115.252 126.67 115.662C126.768 116.127 126.72 116.727 126.627 117.535C126.617 117.622 126.607 117.711 126.596 117.802Z" stroke="url(#paint43_linear)"/>
<path d="M126.596 117.802C126.521 118.443 126.435 119.176 126.416 119.974C124.751 120.813 123.185 121.928 122.118 123.543C121.048 125.164 120.514 127.241 120.823 129.944C119.439 130.174 118.546 130.396 117.666 130.748C116.908 131.051 116.165 131.449 115.132 132.012C115.326 130.588 115.349 129.158 115.367 127.769C115.368 127.729 115.368 127.688 115.369 127.648C115.391 125.952 115.412 124.323 115.707 122.755C116.007 121.163 116.588 119.651 117.738 118.24C118.877 116.844 120.596 115.521 123.217 114.329C124.567 114.337 125.399 114.489 125.908 114.728C126.385 114.952 126.584 115.252 126.67 115.662C126.768 116.127 126.72 116.727 126.627 117.535C126.617 117.622 126.607 117.711 126.596 117.802Z" stroke="url(#paint44_linear)"/>
<path d="M127.045 120.305L127.067 120.233V120.157C127.067 119.57 127.204 119.496 127.229 119.482C127.266 119.462 127.346 119.436 127.513 119.437C127.678 119.439 127.889 119.466 128.161 119.518C128.389 119.562 128.649 119.621 128.94 119.688C129.888 119.904 131.161 120.194 132.7 120.257C132.512 121.586 132.746 123.206 133.123 124.703C133.475 126.103 133.968 127.457 134.426 128.47C133.405 128.517 132.496 128.587 131.682 128.649C131.187 128.686 130.726 128.721 130.296 128.747C129.042 128.823 128.021 128.823 127.025 128.619C126.194 127.488 125.998 126.029 126.118 124.523C126.241 122.959 126.699 121.425 127.045 120.305Z" fill="#12577D"/>
<path d="M127.045 120.305L127.067 120.233V120.157C127.067 119.57 127.204 119.496 127.229 119.482C127.266 119.462 127.346 119.436 127.513 119.437C127.678 119.439 127.889 119.466 128.161 119.518C128.389 119.562 128.649 119.621 128.94 119.688C129.888 119.904 131.161 120.194 132.7 120.257C132.512 121.586 132.746 123.206 133.123 124.703C133.475 126.103 133.968 127.457 134.426 128.47C133.405 128.517 132.496 128.587 131.682 128.649C131.187 128.686 130.726 128.721 130.296 128.747C129.042 128.823 128.021 128.823 127.025 128.619C126.194 127.488 125.998 126.029 126.118 124.523C126.241 122.959 126.699 121.425 127.045 120.305Z" stroke="url(#paint45_linear)"/>
<path d="M127.045 120.305L127.067 120.233V120.157C127.067 119.57 127.204 119.496 127.229 119.482C127.266 119.462 127.346 119.436 127.513 119.437C127.678 119.439 127.889 119.466 128.161 119.518C128.389 119.562 128.649 119.621 128.94 119.688C129.888 119.904 131.161 120.194 132.7 120.257C132.512 121.586 132.746 123.206 133.123 124.703C133.475 126.103 133.968 127.457 134.426 128.47C133.405 128.517 132.496 128.587 131.682 128.649C131.187 128.686 130.726 128.721 130.296 128.747C129.042 128.823 128.021 128.823 127.025 128.619C126.194 127.488 125.998 126.029 126.118 124.523C126.241 122.959 126.699 121.425 127.045 120.305Z" stroke="url(#paint46_linear)"/>
<path d="M135.495 132.037C135.661 132.69 135.832 133.314 136.136 134.003C129.449 134.099 125.228 134.553 120.615 136.004C119.618 135.217 119.281 134.652 119.153 134.114C119.08 133.811 119.066 133.485 119.076 133.078C119.079 132.941 119.085 132.787 119.091 132.622C119.101 132.375 119.112 132.101 119.115 131.817C119.241 131.666 119.438 131.503 119.721 131.334C120.068 131.127 120.516 130.928 121.056 130.741C122.135 130.368 123.53 130.061 125.092 129.826C128.105 129.373 131.68 129.195 134.688 129.297C135.055 130.276 135.247 131.047 135.427 131.765C135.45 131.856 135.473 131.947 135.495 132.037Z" fill="#12577D"/>
<path d="M135.495 132.037C135.661 132.69 135.832 133.314 136.136 134.003C129.449 134.099 125.228 134.553 120.615 136.004C119.618 135.217 119.281 134.652 119.153 134.114C119.08 133.811 119.066 133.485 119.076 133.078C119.079 132.941 119.085 132.787 119.091 132.622C119.101 132.375 119.112 132.101 119.115 131.817C119.241 131.666 119.438 131.503 119.721 131.334C120.068 131.127 120.516 130.928 121.056 130.741C122.135 130.368 123.53 130.061 125.092 129.826C128.105 129.373 131.68 129.195 134.688 129.297C135.055 130.276 135.247 131.047 135.427 131.765C135.45 131.856 135.473 131.947 135.495 132.037Z" stroke="url(#paint47_linear)"/>
<path d="M135.495 132.037C135.661 132.69 135.832 133.314 136.136 134.003C129.449 134.099 125.228 134.553 120.615 136.004C119.618 135.217 119.281 134.652 119.153 134.114C119.08 133.811 119.066 133.485 119.076 133.078C119.079 132.941 119.085 132.787 119.091 132.622C119.101 132.375 119.112 132.101 119.115 131.817C119.241 131.666 119.438 131.503 119.721 131.334C120.068 131.127 120.516 130.928 121.056 130.741C122.135 130.368 123.53 130.061 125.092 129.826C128.105 129.373 131.68 129.195 134.688 129.297C135.055 130.276 135.247 131.047 135.427 131.765C135.45 131.856 135.473 131.947 135.495 132.037Z" stroke="url(#paint48_linear)"/>
<path d="M135.495 132.037C135.661 132.69 135.832 133.314 136.136 134.003C129.449 134.099 125.228 134.553 120.615 136.004C119.618 135.217 119.281 134.652 119.153 134.114C119.08 133.811 119.066 133.485 119.076 133.078C119.079 132.941 119.085 132.787 119.091 132.622C119.101 132.375 119.112 132.101 119.115 131.817C119.241 131.666 119.438 131.503 119.721 131.334C120.068 131.127 120.516 130.928 121.056 130.741C122.135 130.368 123.53 130.061 125.092 129.826C128.105 129.373 131.68 129.195 134.688 129.297C135.055 130.276 135.247 131.047 135.427 131.765C135.45 131.856 135.473 131.947 135.495 132.037Z" stroke="url(#paint49_linear)"/>
<defs>
<linearGradient id="paint0_linear" x1="78.8519" y1="32.2882" x2="81.631" y2="119.011" gradientUnits="userSpaceOnUse">
<stop offset="0.354167" stop-color="#F38BEF" stop-opacity="0.953771"/>
<stop offset="0.552083" stop-color="#F38BEF"/>
<stop offset="0.723958" stop-color="#A21AE2" stop-opacity="0.81"/>
</linearGradient>
<linearGradient id="paint1_linear" x1="79.7603" y1="31.7754" x2="79.7603" y2="120.329" gradientUnits="userSpaceOnUse">
<stop offset="0.572575"/>
<stop offset="0.706208" stop-opacity="0"/>
</linearGradient>
<linearGradient id="paint2_linear" x1="128.026" y1="82.9062" x2="134.593" y2="83.3479" gradientUnits="userSpaceOnUse">
<stop stop-color="#EAE1E1"/>
<stop stop-color="#E4ADAD"/>
<stop offset="1"/>
</linearGradient>
<linearGradient id="paint3_linear" x1="41.0412" y1="92.2735" x2="37.1764" y2="92.4509" gradientUnits="userSpaceOnUse">
<stop stop-color="#EAE1E1"/>
<stop stop-color="#E4ADAD"/>
<stop offset="1"/>
</linearGradient>
<linearGradient id="paint4_linear" x1="81.9906" y1="17.3468" x2="81.9906" y2="73.5299" gradientUnits="userSpaceOnUse">
<stop stop-color="#F38BEF"/>
<stop offset="0.255208" stop-color="#F38BEF"/>
</linearGradient>
<linearGradient id="paint5_linear" x1="81.9906" y1="17.3468" x2="85.8164" y2="42.696" gradientUnits="userSpaceOnUse">
<stop/>
<stop offset="0.737398" stop-opacity="0"/>
</linearGradient>
<linearGradient id="paint6_linear" x1="127.931" y1="31.9034" x2="127.931" y2="77.1409" gradientUnits="userSpaceOnUse">
<stop stop-color="#F38BEF" stop-opacity="0"/>
<stop offset="0.541667" stop-color="#F38BEF"/>
</linearGradient>
<linearGradient id="paint7_linear" x1="127.931" y1="31.9034" x2="127.931" y2="77.1409" gradientUnits="userSpaceOnUse">
<stop offset="0.364583" stop-opacity="0"/>
<stop offset="0.682292"/>
</linearGradient>
<linearGradient id="paint8_linear" x1="101.8" y1="46.9075" x2="101.8" y2="82.7808" gradientUnits="userSpaceOnUse">
<stop offset="0.541667" stop-color="#F38BEF"/>
<stop offset="1" stop-color="#A21AE2" stop-opacity="0"/>
</linearGradient>
<linearGradient id="paint9_linear" x1="101.8" y1="46.9075" x2="101.8" y2="82.7808" gradientUnits="userSpaceOnUse">
<stop offset="0.364583" stop-opacity="0"/>
<stop offset="0.682292"/>
</linearGradient>
<linearGradient id="paint10_linear" x1="103.032" y1="45.9831" x2="103.032" y2="81.7766" gradientUnits="userSpaceOnUse">
<stop offset="0.484375" stop-color="#F38BEF"/>
<stop offset="1" stop-color="#A21AE2" stop-opacity="0"/>
</linearGradient>
<linearGradient id="paint11_linear" x1="123.791" y1="32.4793" x2="128.626" y2="62.7118" gradientUnits="userSpaceOnUse">
<stop offset="0.601832" stop-opacity="0"/>
<stop offset="0.682292"/>
</linearGradient>
<linearGradient id="paint12_linear" x1="97.8215" y1="51.4468" x2="100.78" y2="75.671" gradientUnits="userSpaceOnUse">
<stop offset="0.541667" stop-color="#F38BEF"/>
<stop offset="1" stop-color="#A21AE2" stop-opacity="0"/>
</linearGradient>
<linearGradient id="paint13_linear" x1="96.8226" y1="51.2013" x2="99.4968" y2="73.0945" gradientUnits="userSpaceOnUse">
<stop offset="0.364583" stop-opacity="0"/>
<stop offset="0.682292"/>
</linearGradient>
<linearGradient id="paint14_linear" x1="82.4803" y1="43.012" x2="82.4803" y2="71.7361" gradientUnits="userSpaceOnUse">
<stop offset="0.541667" stop-color="#F38BEF"/>
<stop offset="1" stop-color="#A21AE2" stop-opacity="0"/>
</linearGradient>
<linearGradient id="paint15_linear" x1="82.4803" y1="43.012" x2="82.4803" y2="71.7361" gradientUnits="userSpaceOnUse">
<stop offset="0.364583" stop-opacity="0"/>
<stop offset="0.682292"/>
</linearGradient>
<linearGradient id="paint16_linear" x1="41.4395" y1="41.8958" x2="39.5217" y2="53.2831" gradientUnits="userSpaceOnUse">
<stop offset="0.0250813" stop-color="#F38BEF" stop-opacity="0"/>
<stop offset="0.713542" stop-color="#F38BEF"/>
</linearGradient>
<linearGradient id="paint17_linear" x1="34.3674" y1="35.105" x2="34.3674" y2="80.3712" gradientUnits="userSpaceOnUse">
<stop offset="0.364583" stop-opacity="0"/>
<stop offset="0.682292"/>
</linearGradient>
<linearGradient id="paint18_linear" x1="45.1833" y1="57.6356" x2="47.7468" y2="79.8765" gradientUnits="userSpaceOnUse">
<stop offset="0.541667" stop-color="#F38BEF"/>
<stop offset="1" stop-color="#A21AE2" stop-opacity="0"/>
</linearGradient>
<linearGradient id="paint19_linear" x1="46.8356" y1="58.5219" x2="44.7953" y2="67.1971" gradientUnits="userSpaceOnUse">
<stop offset="0.322917" stop-opacity="0"/>
<stop offset="0.786458"/>
</linearGradient>
<linearGradient id="paint20_linear" x1="50.2173" y1="57.9073" x2="52.7839" y2="78.9195" gradientUnits="userSpaceOnUse">
<stop offset="0.541667" stop-color="#F38BEF"/>
<stop offset="1" stop-color="#A21AE2" stop-opacity="0"/>
</linearGradient>
<linearGradient id="paint21_linear" x1="51.1042" y1="57.4801" x2="53.4238" y2="76.4704" gradientUnits="userSpaceOnUse">
<stop offset="0.364583" stop-opacity="0"/>
<stop offset="0.682292"/>
</linearGradient>
<linearGradient id="paint22_linear" x1="68.4144" y1="41.0772" x2="68.4144" y2="70.4" gradientUnits="userSpaceOnUse">
<stop offset="0.541667" stop-color="#F38BEF"/>
<stop offset="1" stop-color="#A21AE2" stop-opacity="0"/>
</linearGradient>
<linearGradient id="paint23_linear" x1="68.4144" y1="41.0772" x2="68.4144" y2="70.4" gradientUnits="userSpaceOnUse">
<stop offset="0.364583" stop-opacity="0"/>
<stop offset="0.682292"/>
</linearGradient>
<linearGradient id="paint24_linear" x1="116.174" y1="41.1418" x2="124.867" y2="34.5649" gradientUnits="userSpaceOnUse">
<stop offset="0.541667" stop-color="#F38BEF"/>
<stop offset="1" stop-color="#A21AE2" stop-opacity="0"/>
</linearGradient>
<linearGradient id="paint25_linear" x1="119.86" y1="43.4741" x2="124.606" y2="38.4596" gradientUnits="userSpaceOnUse">
<stop offset="0.364583" stop-opacity="0"/>
<stop offset="0.682292"/>
</linearGradient>
<linearGradient id="paint26_linear" x1="44.3406" y1="41.4632" x2="34.8139" y2="35.6442" gradientUnits="userSpaceOnUse">
<stop offset="0.541667" stop-color="#F38BEF"/>
<stop offset="1" stop-color="#A21AE2" stop-opacity="0"/>
</linearGradient>
<linearGradient id="paint27_linear" x1="40.6504" y1="44.4939" x2="35.2051" y2="39.9011" gradientUnits="userSpaceOnUse">
<stop offset="0.364583" stop-opacity="0"/>
<stop offset="0.682292"/>
</linearGradient>
<linearGradient id="paint28_linear" x1="76.0663" y1="98.8776" x2="79.8125" y2="95.3659" gradientUnits="userSpaceOnUse">
<stop offset="0.213542"/>
<stop offset="0.911458" stop-opacity="0"/>
</linearGradient>
<linearGradient id="paint29_linear" x1="46.4043" y1="113.685" x2="50.6971" y2="128.132" gradientUnits="userSpaceOnUse">
<stop/>
<stop offset="1" stop-opacity="0"/>
</linearGradient>
<linearGradient id="paint30_linear" x1="46.3696" y1="142.501" x2="43.3919" y2="127.092" gradientUnits="userSpaceOnUse">
<stop/>
<stop offset="1" stop-opacity="0"/>
</linearGradient>
<linearGradient id="paint31_linear" x1="61.2337" y1="141.467" x2="60.459" y2="129.803" gradientUnits="userSpaceOnUse">
<stop/>
<stop offset="1" stop-opacity="0"/>
</linearGradient>
<linearGradient id="paint32_linear" x1="80.2461" y1="140.305" x2="71.5405" y2="128.821" gradientUnits="userSpaceOnUse">
<stop/>
<stop offset="1" stop-opacity="0"/>
</linearGradient>
<linearGradient id="paint33_linear" x1="74.0238" y1="114.087" x2="67.3743" y2="129.113" gradientUnits="userSpaceOnUse">
<stop/>
<stop offset="1" stop-opacity="0"/>
</linearGradient>
<linearGradient id="paint34_linear" x1="79.7275" y1="121.836" x2="86.7901" y2="125.945" gradientUnits="userSpaceOnUse">
<stop/>
<stop offset="1" stop-opacity="0"/>
</linearGradient>
<linearGradient id="paint35_linear" x1="86.9868" y1="114.087" x2="85.0966" y2="119.427" gradientUnits="userSpaceOnUse">
<stop/>
<stop offset="1" stop-color="white" stop-opacity="0"/>
</linearGradient>
<linearGradient id="paint36_linear" x1="104.962" y1="121.19" x2="104.962" y2="122.611" gradientUnits="userSpaceOnUse">
<stop/>
<stop offset="0.453125" stop-opacity="0"/>
</linearGradient>
<linearGradient id="paint37_linear" x1="86.4682" y1="124.936" x2="89.1931" y2="121.289" gradientUnits="userSpaceOnUse">
<stop offset="0.0833333"/>
<stop offset="0.25" stop-opacity="0"/>
</linearGradient>
<linearGradient id="paint38_linear" x1="93.7275" y1="120.803" x2="90.7428" y2="122.8" gradientUnits="userSpaceOnUse">
<stop/>
<stop offset="0.0001" stop-color="white" stop-opacity="0"/>
</linearGradient>
<linearGradient id="paint39_linear" x1="99.9497" y1="141.726" x2="93.5168" y2="125.799" gradientUnits="userSpaceOnUse">
<stop offset="0.5"/>
<stop offset="0.875" stop-opacity="0"/>
</linearGradient>
<linearGradient id="paint40_linear" x1="111.876" y1="140.692" x2="120.905" y2="130.71" gradientUnits="userSpaceOnUse">
<stop/>
<stop offset="1" stop-opacity="0"/>
</linearGradient>
<linearGradient id="paint41_linear" x1="134.345" y1="140.305" x2="133.256" y2="134.345" gradientUnits="userSpaceOnUse">
<stop/>
<stop offset="1" stop-opacity="0"/>
</linearGradient>
<linearGradient id="paint42_linear" x1="136.246" y1="112.279" x2="127.187" y2="123.207" gradientUnits="userSpaceOnUse">
<stop offset="0.0510956"/>
<stop offset="1" stop-opacity="0"/>
</linearGradient>
<linearGradient id="paint43_linear" x1="115.332" y1="124.161" x2="118.151" y2="125.628" gradientUnits="userSpaceOnUse">
<stop/>
<stop offset="1" stop-opacity="0"/>
</linearGradient>
<linearGradient id="paint44_linear" x1="121.728" y1="125.323" x2="119.871" y2="124.288" gradientUnits="userSpaceOnUse">
<stop/>
<stop offset="1" stop-color="white" stop-opacity="0"/>
</linearGradient>
<linearGradient id="paint45_linear" x1="133.135" y1="124.161" x2="132.789" y2="124.161" gradientUnits="userSpaceOnUse">
<stop/>
<stop offset="1" stop-opacity="0"/>
</linearGradient>
<linearGradient id="paint46_linear" x1="125.53" y1="124.936" x2="127.95" y2="124.936" gradientUnits="userSpaceOnUse">
<stop/>
<stop offset="1" stop-color="white" stop-opacity="0"/>
</linearGradient>
<linearGradient id="paint47_linear" x1="124.32" y1="129.456" x2="124.626" y2="130.549" gradientUnits="userSpaceOnUse">
<stop/>
<stop offset="1" stop-opacity="0"/>
</linearGradient>
<linearGradient id="paint48_linear" x1="135.728" y1="131.652" x2="134.948" y2="132.069" gradientUnits="userSpaceOnUse">
<stop/>
<stop offset="1" stop-color="white" stop-opacity="0"/>
</linearGradient>
<linearGradient id="paint49_linear" x1="125.53" y1="135.397" x2="125.53" y2="134.493" gradientUnits="userSpaceOnUse">
<stop/>
<stop offset="1" stop-color="white" stop-opacity="0"/>
</linearGradient>
</defs>
</svg>
